<svg width="701" height="1240" viewBox="0 0 701 1240" class="keymap" xmlns="http://www.w3.org/2000/svg" xmlns:xlink="http://www.w3.org/1999/xlink">
<style>/* inherit to force styles through use tags*/
svg path {
    fill: inherit;
}
/* font and background color specifications */
svg.keymap {
    font-family: SFMono-Regular,Consolas,Liberation Mono,Menlo,monospace;
    font-size: 14px;
    font-kerning: normal;
    text-rendering: optimizeLegibility;
    fill: #24292e;
}

/* default key styling */
rect.key {
    fill: #f6f8fa;
    stroke: #c9cccf;
    stroke-width: 1;
}

/* color accent for combo boxes */
rect.combo {
    fill: #cdf;
}

/* color accent for held keys */
rect.held, rect.combo.held {
    fill: #fdd;
}

/* color accent for ghost (optional) keys */
rect.ghost, rect.combo.ghost {
    stroke-dasharray: 4, 4;
    stroke-width: 2;
}

text {
    text-anchor: middle;
    dominant-baseline: middle;
}

/* styling for layer labels */
text.label {
    font-weight: bold;
    text-anchor: start;
    stroke: white;
    stroke-width: 2;
    paint-order: stroke;
}

text.tap {
    font-size: 16px;
}

/* styling for combo tap, and key hold/shifted label text */
text.combo, text.hold, text.shifted {
    font-size: 11px;
}

text.hold {
    text-anchor: middle;
    dominant-baseline: auto;
}

text.shifted {
    text-anchor: middle;
    dominant-baseline: hanging;
}

/* styling for hold/shifted label text in combo box */
text.combo.hold, text.combo.shifted {
    font-size: 8px;
}

/* lighter symbol for transparent keys */
text.trans {
    fill: #7b7e81;
}

/* styling for combo dendrons */
path.combo {
    stroke-width: 1;
    stroke: gray;
    fill: none;
}

/* Start Tabler Icons Cleanup */
/* cannot use height/width with glyphs */
.icon-tabler > path {
    fill: inherit;
    stroke: inherit;
}
/* hide tabler's default box */
.icon-tabler > path[stroke="none"][fill="none"] {
    visibility: collapse;
}

rect.low {
    fill: #355978;
}
rect.medium-low {
    fill: #636696;
}
rect.medium {
    fill: #9E6DA4;
}
rect.medium-high {
    fill: #D7749D;
}
rect.high {
    fill: #FF8585;
}

/* green styling for Naginata kana-shift */
rect.kshift {
    fill: #00CC00;
}
text.left {
    font-size: 18px;
    translate: 16px 7px;
}
text.right {
    fill: #00CC00;
    font-size: 16px;
    translate: -16px -10px;
}
</style>
<g transform="translate(30, 0)" class="layer-HD Promethium">
<text x="0" y="28" class="label" id="HD-Promethium">HD Promethium</text>
<g transform="translate(0, 59)">
<g transform="translate(46, 56) rotate(10.0)" class="key keypos-0">
<rect rx="6" ry="6" x="-26" y="-26" width="52" height="52" class="key"/>
<text x="0" y="0" class="key tap">⎋</text>
</g>
<g transform="translate(106, 38) rotate(10.0)" class="key medium-low keypos-1">
<rect rx="6" ry="6" x="-26" y="-26" width="52" height="52" class="key medium-low"/>
<text x="0" y="0" class="key medium-low tap">pP</text>
</g>
<g transform="translate(183, 35) rotate(18.0)" class="key medium keypos-2">
<rect rx="6" ry="6" x="-26" y="-26" width="52" height="52" class="key medium"/>
<text x="0" y="0" class="key medium tap">gG</text>
</g>
<g transform="translate(235, 82) rotate(22.0)" class="key medium keypos-3">
<rect rx="6" ry="6" x="-26" y="-26" width="52" height="52" class="key medium"/>
<text x="0" y="0" class="key medium tap">mM</text>
</g>
<g transform="translate(277, 130) rotate(22.0)" class="key low keypos-4">
<rect rx="6" ry="6" x="-26" y="-26" width="52" height="52" class="key low"/>
<text x="0" y="0" class="key low tap">kK</text>
</g>
<g transform="translate(364, 130) rotate(-22.0)" class="key medium-low keypos-5">
<rect rx="6" ry="6" x="-26" y="-26" width="52" height="52" class="key medium-low"/>
<text x="0" y="0" class="key medium-low tap">.:!</text>
</g>
<g transform="translate(407, 82) rotate(-22.0)" class="key keypos-6">
<rect rx="6" ry="6" x="-26" y="-26" width="52" height="52" class="key"/>
<text x="0" y="0" class="key tap">⌫</text>
</g>
<g transform="translate(459, 35) rotate(-18.0)" class="key medium-low keypos-7">
<rect rx="6" ry="6" x="-26" y="-26" width="52" height="52" class="key medium-low"/>
<text x="0" y="0" class="key medium-low tap">&#x27;&quot;</text>
</g>
<g transform="translate(535, 38) rotate(-10.0)" class="key medium-low keypos-8">
<rect rx="6" ry="6" x="-26" y="-26" width="52" height="52" class="key medium-low"/>
<text x="0" y="0" class="key medium-low tap">-_</text>
</g>
<g transform="translate(595, 56) rotate(-10.0)" class="key low keypos-9">
<rect rx="6" ry="6" x="-26" y="-26" width="52" height="52" class="key low"/>
<text x="0" y="0" class="key low tap">+=</text>
</g>
<g transform="translate(28, 128)" class="key high keypos-10">
<rect rx="6" ry="6" x="-26" y="-26" width="52" height="52" class="key high"/>
<text x="0" y="0" class="key high tap">sS</text>
</g>
<g transform="translate(97, 93) rotate(10.0)" class="key high keypos-11">
<rect rx="6" ry="6" x="-26" y="-26" width="52" height="52" class="key high"/>
<text x="0" y="0" class="key high tap">nN</text>
</g>
<g transform="translate(166, 88) rotate(18.0)" class="key high keypos-12">
<rect rx="6" ry="6" x="-26" y="-26" width="52" height="52" class="key high"/>
<text x="0" y="0" class="key high tap">tT</text>
</g>
<g transform="translate(215, 134) rotate(22.0)" class="key high keypos-13">
<rect rx="6" ry="6" x="-26" y="-26" width="52" height="52" class="key high"/>
<text x="0" y="0" class="key high tap">hH</text>
</g>
<g transform="translate(258, 182) rotate(22.0)" class="key low keypos-14">
<rect rx="6" ry="6" x="-26" y="-26" width="52" height="52" class="key low"/>
<text x="0" y="0" class="key low tap">jJ</text>
</g>
<g transform="translate(384, 182) rotate(-22.0)" class="key medium-low keypos-15">
<rect rx="6" ry="6" x="-26" y="-26" width="52" height="52" class="key medium-low"/>
<text x="0" y="0" class="key medium-low tap">,;?</text>
</g>
<g transform="translate(426, 134) rotate(-22.0)" class="key high keypos-16">
<rect rx="6" ry="6" x="-26" y="-26" width="52" height="52" class="key high"/>
<text x="0" y="0" class="key high tap">aA</text>
</g>
<g transform="translate(475, 88) rotate(-18.0)" class="key high keypos-17">
<rect rx="6" ry="6" x="-26" y="-26" width="52" height="52" class="key high"/>
<text x="0" y="0" class="key high tap">eE</text>
</g>
<g transform="translate(544, 93) rotate(-10.0)" class="key high keypos-18">
<rect rx="6" ry="6" x="-26" y="-26" width="52" height="52" class="key high"/>
<text x="0" y="0" class="key high tap">iI</text>
</g>
<g transform="translate(613, 128)" class="key medium keypos-19">
<rect rx="6" ry="6" x="-26" y="-26" width="52" height="52" class="key medium"/>
<text x="0" y="0" class="key medium tap">cC</text>
</g>
<g transform="translate(28, 184)" class="key medium-low keypos-20">
<rect rx="6" ry="6" x="-26" y="-26" width="52" height="52" class="key medium-low"/>
<text x="0" y="0" class="key medium-low tap">bB</text>
</g>
<g transform="translate(88, 148) rotate(10.0)" class="key medium keypos-21">
<rect rx="6" ry="6" x="-26" y="-26" width="52" height="52" class="key medium"/>
<text x="0" y="0" class="key medium tap">fF</text>
</g>
<g transform="translate(150, 142) rotate(18.0)" class="key medium-high keypos-22">
<rect rx="6" ry="6" x="-26" y="-26" width="52" height="52" class="key medium-high"/>
<text x="0" y="0" class="key medium-high tap">dD</text>
</g>
<g transform="translate(195, 186) rotate(22.0)" class="key medium-high keypos-23">
<rect rx="6" ry="6" x="-26" y="-26" width="52" height="52" class="key medium-high"/>
<text x="0" y="0" class="key medium-high tap">lL</text>
</g>
<g transform="translate(446, 186) rotate(-22.0)" class="key medium-high keypos-24">
<rect rx="6" ry="6" x="-26" y="-26" width="52" height="52" class="key medium-high"/>
<text x="0" y="0" class="key medium-high tap">uU</text>
</g>
<g transform="translate(492, 142) rotate(-18.0)" class="key high keypos-25">
<rect rx="6" ry="6" x="-26" y="-26" width="52" height="52" class="key high"/>
<text x="0" y="0" class="key high tap">oO</text>
</g>
<g transform="translate(553, 148) rotate(-10.0)" class="key medium keypos-26">
<rect rx="6" ry="6" x="-26" y="-26" width="52" height="52" class="key medium"/>
<text x="0" y="0" class="key medium tap">yY</text>
</g>
<g transform="translate(613, 184)" class="key medium keypos-27">
<rect rx="6" ry="6" x="-26" y="-26" width="52" height="52" class="key medium"/>
<text x="0" y="0" class="key medium tap">wW</text>
</g>
<g transform="translate(200, 267) rotate(33.0)" class="key high keypos-28">
<rect rx="6" ry="6" x="-26" y="-26" width="52" height="52" class="key high"/>
<text x="0" y="0" class="key high tap">rR</text>
</g>
<g transform="translate(247, 299) rotate(33.0)" class="key keypos-29">
<rect rx="6" ry="6" x="-26" y="-26" width="52" height="52" class="key"/>
<text x="0" y="0" class="key tap">⌫</text>
</g>
<g transform="translate(394, 299) rotate(-33.0)" class="key keypos-30">
<rect rx="6" ry="6" x="-26" y="-26" width="52" height="52" class="key"/>
<text x="0" y="0" class="key tap">⇧⇪</text>
</g>
<g transform="translate(441, 267) rotate(-33.0)" class="key high keypos-31">
<rect rx="6" ry="6" x="-26" y="-26" width="52" height="52" class="key high"/>
<text x="0" y="0" class="key high tap">⎵</text>
<text x="0" y="24" class="key high hold">Num+Nav</text>
</g>
<g class="combo combopos-0">
<path d="M321,10 h-269 a6.0,6.0 0 0 0 -6.0,6.0 v21" class="combo"/>
<path d="M321,10 h269 a6.0,6.0 0 0 1 6.0,6.0 v21" class="combo"/>
<rect rx="6" ry="6" x="296" y="-3" width="50" height="26" class="combo"/>
<text x="321" y="10" class="combo tap">
<tspan x="321" dy="-0.6em">Studio</tspan><tspan x="321" dy="1.2em">Unlock</tspan>
</text>
</g>
<g class="combo combopos-1">
<path d="M321,199 l-33,-53" class="combo"/>
<path d="M321,199 l33,-53" class="combo"/>
<path d="M321,199 l-104,59" class="combo"/>
<path d="M321,199 l104,59" class="combo"/>
<rect rx="6" ry="6" x="296" y="186" width="50" height="26" class="combo"/>
<text x="321" y="199" class="combo tap">
<tspan x="321" dy="-0.6em">Boot</tspan><tspan x="321" dy="1.2em">loader</tspan>
</text>
</g>
<g class="combo combopos-2">
<path d="M448,158 h-78 a6.0,6.0 0 0 1 -6.0,-6.0 v-3" class="combo"/>
<path d="M448,158 h22 a6.0,6.0 0 0 0 6.0,-6.0 v-45" class="combo"/>
<rect rx="6" ry="6" x="434" y="150" width="28" height="15" class="combo"/>
<text x="448" y="158" class="combo tap">かな</text>
</g>
<g class="combo combopos-3">
<path d="M194,158 h78 a6.0,6.0 0 0 0 6.0,-6.0 v-3" class="combo"/>
<path d="M194,158 h-22 a6.0,6.0 0 0 1 -6.0,-6.0 v-45" class="combo"/>
<rect rx="6" ry="6" x="180" y="150" width="28" height="15" class="combo"/>
<text x="194" y="158" class="combo tap">ABC</text>
</g>
<g class="combo combopos-4">
<path d="M169,214 h21 a6.0,6.0 0 0 0 6.0,-6.0 v-3" class="combo"/>
<path d="M169,214 h-13 a6.0,6.0 0 0 1 -6.0,-6.0 v-48" class="combo"/>
<path d="M169,214 h-75 a6.0,6.0 0 0 1 -6.0,-6.0 v-41" class="combo"/>
<rect rx="6" ry="6" x="155" y="207" width="28" height="15" class="combo"/>
<text x="169" y="214" class="combo tap">↹</text>
</g>
<g class="combo combopos-5">
<path d="M526,214 h-75 a6.0,6.0 0 0 1 -6.0,-6.0 v-3" class="combo"/>
<path d="M526,214 h-29 a6.0,6.0 0 0 1 -6.0,-6.0 v-48" class="combo"/>
<path d="M526,214 h21 a6.0,6.0 0 0 0 6.0,-6.0 v-41" class="combo"/>
<rect rx="6" ry="6" x="512" y="207" width="28" height="15" class="combo"/>
<text x="526" y="214" class="combo tap">⏎</text>
</g>
<g class="combo combopos-6">
<rect rx="6" ry="6" x="49" y="97" width="28" height="26" class="combo"/>
<text x="63" y="110" class="combo tap">⎇</text>
</g>
<g class="combo combopos-7">
<rect rx="6" ry="6" x="118" y="78" width="28" height="26" class="combo"/>
<text x="132" y="91" class="combo tap">⌃</text>
</g>
<g class="combo combopos-8">
<rect rx="6" ry="6" x="176" y="98" width="28" height="26" class="combo"/>
<text x="190" y="111" class="combo tap">⌘</text>
</g>
<g class="combo combopos-9">
<rect rx="6" ry="6" x="565" y="97" width="28" height="26" class="combo"/>
<text x="579" y="110" class="combo tap">⎇</text>
</g>
<g class="combo combopos-10">
<rect rx="6" ry="6" x="496" y="78" width="28" height="26" class="combo"/>
<text x="510" y="91" class="combo tap">⌃</text>
</g>
<g class="combo combopos-11">
<rect rx="6" ry="6" x="437" y="98" width="28" height="26" class="combo"/>
<text x="451" y="111" class="combo tap">⌘</text>
</g>
<g class="combo low combopos-12">
<rect rx="6" ry="6" x="195" y="46" width="28" height="26" class="combo low"/>
<text x="209" y="59" class="combo low tap">qQ</text>
</g>
<g class="combo low combopos-13">
<rect rx="6" ry="6" x="483" y="24" width="28" height="26" class="combo low"/>
<text x="497" y="37" class="combo low tap">zZ</text>
</g>
<g class="combo low combopos-14">
<rect rx="6" ry="6" x="130" y="24" width="28" height="26" class="combo low"/>
<text x="144" y="37" class="combo low tap">vV</text>
</g>
<g class="combo low combopos-15">
<rect rx="6" ry="6" x="105" y="132" width="28" height="26" class="combo low"/>
<text x="119" y="145" class="combo low tap">xX</text>
</g>
<g class="combo combopos-16">
<rect rx="6" ry="6" x="23" y="79" width="28" height="26" class="combo"/>
<text x="37" y="92" class="combo tap">`</text>
</g>
<g class="combo combopos-17">
<rect rx="6" ry="6" x="88" y="53" width="28" height="26" class="combo"/>
<text x="102" y="66" class="combo tap">@</text>
</g>
<g class="combo combopos-18">
<rect rx="6" ry="6" x="160" y="49" width="28" height="26" class="combo"/>
<text x="174" y="62" class="combo tap">£</text>
</g>
<g class="combo combopos-19">
<rect rx="6" ry="6" x="211" y="95" width="28" height="26" class="combo"/>
<text x="225" y="108" class="combo tap">$</text>
</g>
<g class="combo combopos-20">
<rect rx="6" ry="6" x="242" y="93" width="28" height="26" class="combo"/>
<text x="256" y="106" class="combo tap">%</text>
</g>
<g class="combo combopos-21">
<path d="M306,156 v-20 a6.0,6.0 0 0 0 -6.0,-6.0 h-4" class="combo"/>
<path d="M306,156 v20 a6.0,6.0 0 0 1 -6.0,6.0 h-24" class="combo"/>
<rect rx="6" ry="6" x="292" y="143" width="28" height="26" class="combo"/>
<text x="306" y="156" class="combo tap">|</text>
</g>
<g class="combo combopos-22">
<path d="M335,156 v-20 a6.0,6.0 0 0 1 6.0,-6.0 h4" class="combo"/>
<path d="M335,156 v20 a6.0,6.0 0 0 0 6.0,6.0 h24" class="combo"/>
<rect rx="6" ry="6" x="321" y="143" width="28" height="26" class="combo"/>
<text x="335" y="156" class="combo tap">/</text>
</g>
<g class="combo combopos-23">
<rect rx="6" ry="6" x="371" y="93" width="28" height="26" class="combo"/>
<text x="385" y="106" class="combo tap">^</text>
</g>
<g class="combo combopos-24">
<rect rx="6" ry="6" x="402" y="95" width="28" height="26" class="combo"/>
<text x="416" y="108" class="combo tap">&amp;</text>
</g>
<g class="combo combopos-25">
<rect rx="6" ry="6" x="453" y="49" width="28" height="26" class="combo"/>
<text x="467" y="62" class="combo tap">#</text>
</g>
<g class="combo combopos-26">
<rect rx="6" ry="6" x="526" y="53" width="28" height="26" class="combo"/>
<text x="540" y="66" class="combo tap">\</text>
</g>
<g class="combo combopos-27">
<rect rx="6" ry="6" x="590" y="79" width="28" height="26" class="combo"/>
<text x="604" y="92" class="combo tap">~</text>
</g>
<g class="combo combopos-28">
<rect rx="6" ry="6" x="222" y="145" width="28" height="26" class="combo"/>
<text x="236" y="158" class="combo tap">{</text>
</g>
<g class="combo combopos-29">
<rect rx="6" ry="6" x="391" y="145" width="28" height="26" class="combo"/>
<text x="405" y="158" class="combo tap">}</text>
</g>
<g class="combo combopos-30">
<rect rx="6" ry="6" x="232" y="119" width="28" height="26" class="combo"/>
<text x="246" y="132" class="combo tap">(&lt;</text>
</g>
<g class="combo combopos-31">
<rect rx="6" ry="6" x="381" y="119" width="28" height="26" class="combo"/>
<text x="395" y="132" class="combo tap">)&gt;</text>
</g>
<g class="combo combopos-32">
<rect rx="6" ry="6" x="213" y="171" width="28" height="26" class="combo"/>
<text x="227" y="184" class="combo tap">[{</text>
</g>
<g class="combo combopos-33">
<rect rx="6" ry="6" x="401" y="171" width="28" height="26" class="combo"/>
<text x="415" y="184" class="combo tap">]}</text>
</g>
</g>
</g>
<g transform="translate(30, 397)" class="layer-Naginata">
<text x="0" y="28" class="label" id="Naginata">Naginata</text>
<g transform="translate(0, 56)">
<g transform="translate(46, 56) rotate(10.0)" class="key keypos-0">
<rect rx="6" ry="6" x="-26" y="-26" width="52" height="52" class="key"/>
<text x="0" y="0" class="key tap">⎋</text>
<text x="0" y="24" class="key hold"><tspan style="font-size: 70%">Small-kana</tspan></text>
</g>
<g transform="translate(106, 38) rotate(10.0)" class="key keypos-1">
<rect rx="6" ry="6" x="-26" y="-26" width="52" height="52" class="key"/>
<text x="-24" y="0" class="key left">き</text>
<text x="24" y="0" class="key right">ぬ</text>
</g>
<g transform="translate(183, 35) rotate(18.0)" class="key keypos-2">
<rect rx="6" ry="6" x="-26" y="-26" width="52" height="52" class="key"/>
<text x="-24" y="0" class="key left">て</text>
<text x="24" y="0" class="key right">り</text>
</g>
<g transform="translate(235, 82) rotate(22.0)" class="key keypos-3">
<rect rx="6" ry="6" x="-26" y="-26" width="52" height="52" class="key"/>
<text x="-24" y="0" class="key left">し</text>
<text x="24" y="0" class="key right">め</text>
</g>
<g transform="translate(277, 130) rotate(22.0)" class="key keypos-4">
<rect rx="6" ry="6" x="-26" y="-26" width="52" height="52" class="key"/>
<text x="-24" y="0" class="key left">っ</text>
<text x="24" y="0" class="key right">ち</text>
</g>
<g transform="translate(364, 130) rotate(-22.0)" class="key keypos-5">
<rect rx="6" ry="6" x="-26" y="-26" width="52" height="52" class="key"/>
<text x="-24" y="0" class="key left">く</text>
<text x="24" y="0" class="key right">や</text>
</g>
<g transform="translate(407, 82) rotate(-22.0)" class="key keypos-6">
<rect rx="6" ry="6" x="-26" y="-26" width="52" height="52" class="key"/>
<text x="-24" y="0" class="key left">⌫</text>
<text x="24" y="0" class="key right">さ</text>
</g>
<g transform="translate(459, 35) rotate(-18.0)" class="key keypos-7">
<rect rx="6" ry="6" x="-26" y="-26" width="52" height="52" class="key"/>
<text x="-24" y="0" class="key left">る</text>
<text x="24" y="0" class="key right">よ</text>
</g>
<g transform="translate(535, 38) rotate(-10.0)" class="key keypos-8">
<rect rx="6" ry="6" x="-26" y="-26" width="52" height="52" class="key"/>
<text x="-24" y="0" class="key left">す</text>
<text x="24" y="0" class="key right">え</text>
</g>
<g transform="translate(595, 56) rotate(-10.0)" class="key keypos-9">
<rect rx="6" ry="6" x="-26" y="-26" width="52" height="52" class="key"/>
<text x="-24" y="0" class="key left">へ</text>
<text x="24" y="0" class="key right">ゆ</text>
</g>
<g transform="translate(28, 128)" class="key keypos-10">
<rect rx="6" ry="6" x="-26" y="-26" width="52" height="52" class="key"/>
<text x="-24" y="0" class="key left">ろ</text>
<text x="24" y="0" class="key right">せ</text>
</g>
<g transform="translate(97, 93) rotate(10.0)" class="key keypos-11">
<rect rx="6" ry="6" x="-26" y="-26" width="52" height="52" class="key"/>
<text x="-24" y="0" class="key left">け</text>
<text x="24" y="0" class="key right">み</text>
</g>
<g transform="translate(166, 88) rotate(18.0)" class="key keypos-12">
<rect rx="6" ry="6" x="-26" y="-26" width="52" height="52" class="key"/>
<text x="-24" y="0" class="key left">と</text>
<text x="24" y="0" class="key right">に</text>
</g>
<g transform="translate(215, 134) rotate(22.0)" class="key keypos-13">
<rect rx="6" ry="6" x="-26" y="-26" width="52" height="52" class="key"/>
<text x="0" y="24" class="key hold">濁音</text>
<text x="-24" y="0" class="key left">か</text>
<text x="24" y="0" class="key right">ま</text>
</g>
<g transform="translate(258, 182) rotate(22.0)" class="key keypos-14">
<rect rx="6" ry="6" x="-26" y="-26" width="52" height="52" class="key"/>
<text x="-24" y="0" class="key left">そ</text>
<text x="24" y="0" class="key right">む</text>
</g>
<g transform="translate(384, 182) rotate(-22.0)" class="key keypos-15">
<rect rx="6" ry="6" x="-26" y="-26" width="52" height="52" class="key"/>
<text x="-24" y="0" class="key left">た</text>
<text x="24" y="0" class="key right">お</text>
</g>
<g transform="translate(426, 134) rotate(-22.0)" class="key keypos-16">
<rect rx="6" ry="6" x="-26" y="-26" width="52" height="52" class="key"/>
<text x="0" y="24" class="key hold">濁音</text>
<text x="-24" y="0" class="key left">あ</text>
<text x="24" y="0" class="key right">の</text>
</g>
<g transform="translate(475, 88) rotate(-18.0)" class="key keypos-17">
<rect rx="6" ry="6" x="-26" y="-26" width="52" height="52" class="key"/>
<text x="-24" y="0" class="key left">い</text>
<text x="24" y="0" class="key right">も</text>
</g>
<g transform="translate(544, 93) rotate(-10.0)" class="key keypos-18">
<rect rx="6" ry="6" x="-26" y="-26" width="52" height="52" class="key"/>
<text x="-24" y="0" class="key left">う</text>
<text x="24" y="0" class="key right">つ</text>
</g>
<g transform="translate(613, 128)" class="key keypos-19">
<rect rx="6" ry="6" x="-26" y="-26" width="52" height="52" class="key"/>
<text x="-24" y="0" class="key left">ー</text>
<text x="24" y="0" class="key right">ふ</text>
</g>
<g transform="translate(28, 184)" class="key keypos-20">
<rect rx="6" ry="6" x="-26" y="-26" width="52" height="52" class="key"/>
<text x="-24" y="0" class="key left">ほ</text>
</g>
<g transform="translate(88, 148) rotate(10.0)" class="key keypos-21">
<rect rx="6" ry="6" x="-26" y="-26" width="52" height="52" class="key"/>
<text x="-24" y="0" class="key left">ひ</text>
</g>
<g transform="translate(150, 142) rotate(18.0)" class="key keypos-22">
<rect rx="6" ry="6" x="-26" y="-26" width="52" height="52" class="key"/>
<text x="-24" y="0" class="key left">は</text>
<text x="24" y="0" class="key right">を</text>
</g>
<g transform="translate(195, 186) rotate(22.0)" class="key keypos-23">
<rect rx="6" ry="6" x="-26" y="-26" width="52" height="52" class="key"/>
<text x="0" y="24" class="key hold">半濁音</text>
<text x="-24" y="0" class="key left">こ</text>
<text x="24" y="0" class="key right">、</text>
</g>
<g transform="translate(446, 186) rotate(-22.0)" class="key keypos-24">
<rect rx="6" ry="6" x="-26" y="-26" width="52" height="52" class="key"/>
<text x="0" y="24" class="key hold">半濁音</text>
<text x="-24" y="0" class="key left">な</text>
<text x="24" y="0" class="key right">。</text>
</g>
<g transform="translate(492, 142) rotate(-18.0)" class="key keypos-25">
<rect rx="6" ry="6" x="-26" y="-26" width="52" height="52" class="key"/>
<text x="-24" y="0" class="key left">ん</text>
<text x="24" y="0" class="key right">ね</text>
</g>
<g transform="translate(553, 148) rotate(-10.0)" class="key keypos-26">
<rect rx="6" ry="6" x="-26" y="-26" width="52" height="52" class="key"/>
<text x="-24" y="0" class="key left">ら</text>
<text x="24" y="0" class="key right">わ</text>
</g>
<g transform="translate(613, 184)" class="key keypos-27">
<rect rx="6" ry="6" x="-26" y="-26" width="52" height="52" class="key"/>
<text x="-24" y="0" class="key left">れ</text>
</g>
<g transform="translate(200, 267) rotate(33.0)" class="key kshift keypos-28">
<rect rx="6" ry="6" x="-26" y="-26" width="52" height="52" class="key kshift"/>
<text x="0" y="0" class="key kshift tap">⏎</text>
<text x="0" y="24" class="key kshift hold"><tspan style="font-size: 70%">Kana-Shift</tspan></text>
</g>
<g transform="translate(247, 299) rotate(33.0)" class="key keypos-29">
<rect rx="6" ry="6" x="-26" y="-26" width="52" height="52" class="key"/>
<text x="0" y="0" class="key tap">⌫</text>
</g>
<g transform="translate(394, 299) rotate(-33.0)" class="key kshift keypos-30">
<rect rx="6" ry="6" x="-26" y="-26" width="52" height="52" class="key kshift"/>
<text x="0" y="0" class="key kshift tap">⎵</text>
<text x="0" y="24" class="key kshift hold"><tspan style="font-size: 70%">Kana-Shift</tspan></text>
</g>
<g transform="translate(441, 267) rotate(-33.0)" class="key keypos-31">
<rect rx="6" ry="6" x="-26" y="-26" width="52" height="52" class="key"/>
<text x="0" y="0" class="key tap">⇧⎵</text>
<a href="#Num--Nav">
<text x="0" y="24" class="key hold layer-activator"><tspan style="font-size: 78%">Num + Nav</tspan></text>
</a></g>
<g class="combo combopos-0">
<path d="M448,158 h-78 a6.0,6.0 0 0 1 -6.0,-6.0 v-3" class="combo"/>
<path d="M448,158 h22 a6.0,6.0 0 0 0 6.0,-6.0 v-45" class="combo"/>
<rect rx="6" ry="6" x="434" y="150" width="28" height="15" class="combo"/>
<text x="448" y="158" class="combo tap">かな</text>
</g>
<g class="combo combopos-1">
<path d="M194,158 h78 a6.0,6.0 0 0 0 6.0,-6.0 v-3" class="combo"/>
<path d="M194,158 h-22 a6.0,6.0 0 0 1 -6.0,-6.0 v-45" class="combo"/>
<rect rx="6" ry="6" x="180" y="150" width="28" height="15" class="combo"/>
<text x="194" y="158" class="combo tap">ABC</text>
</g>
<g class="combo combopos-2">
<path d="M169,214 h21 a6.0,6.0 0 0 0 6.0,-6.0 v-3" class="combo"/>
<path d="M169,214 h-13 a6.0,6.0 0 0 1 -6.0,-6.0 v-48" class="combo"/>
<path d="M169,214 h-75 a6.0,6.0 0 0 1 -6.0,-6.0 v-41" class="combo"/>
<rect rx="6" ry="6" x="155" y="207" width="28" height="15" class="combo"/>
<text x="169" y="214" class="combo tap">↹</text>
</g>
<g class="combo combopos-3">
<path d="M526,214 h-75 a6.0,6.0 0 0 1 -6.0,-6.0 v-3" class="combo"/>
<path d="M526,214 h-29 a6.0,6.0 0 0 1 -6.0,-6.0 v-48" class="combo"/>
<path d="M526,214 h21 a6.0,6.0 0 0 0 6.0,-6.0 v-41" class="combo"/>
<rect rx="6" ry="6" x="512" y="207" width="28" height="15" class="combo"/>
<text x="526" y="214" class="combo tap">⏎</text>
</g>
</g>
</g>
<g transform="translate(30, 790)" class="layer-Num + Nav">
<text x="0" y="28" class="label" id="Num--Nav">Num + Nav</text>
<g transform="translate(0, 56)">
<g transform="translate(46, 56) rotate(10.0)" class="key keypos-0">
<rect rx="6" ry="6" x="-26" y="-26" width="52" height="52" class="key"/>
<text x="0" y="0" class="key tap">/</text>
</g>
<g transform="translate(106, 38) rotate(10.0)" class="key keypos-1">
<rect rx="6" ry="6" x="-26" y="-26" width="52" height="52" class="key"/>
<text x="0" y="0" class="key tap">1</text>
</g>
<g transform="translate(183, 35) rotate(18.0)" class="key keypos-2">
<rect rx="6" ry="6" x="-26" y="-26" width="52" height="52" class="key"/>
<text x="0" y="0" class="key tap">2</text>
</g>
<g transform="translate(235, 82) rotate(22.0)" class="key keypos-3">
<rect rx="6" ry="6" x="-26" y="-26" width="52" height="52" class="key"/>
<text x="0" y="0" class="key tap">3</text>
</g>
<g transform="translate(277, 130) rotate(22.0)" class="key keypos-4">
<rect rx="6" ry="6" x="-26" y="-26" width="52" height="52" class="key"/>
<text x="0" y="0" class="key tap">+</text>
</g>
<g transform="translate(364, 130) rotate(-22.0)" class="key keypos-5">
<rect rx="6" ry="6" x="-26" y="-26" width="52" height="52" class="key"/>
<text x="0" y="0" class="key tap">⇞</text>
</g>
<g transform="translate(407, 82) rotate(-22.0)" class="key keypos-6">
<rect rx="6" ry="6" x="-26" y="-26" width="52" height="52" class="key"/>
<text x="0" y="0" class="key tap">↖</text>
</g>
<g transform="translate(459, 35) rotate(-18.0)" class="key keypos-7">
<rect rx="6" ry="6" x="-26" y="-26" width="52" height="52" class="key"/>
<text x="0" y="0" class="key tap">↑</text>
</g>
<g transform="translate(535, 38) rotate(-10.0)" class="key keypos-8">
<rect rx="6" ry="6" x="-26" y="-26" width="52" height="52" class="key"/>
<text x="0" y="0" class="key tap">↘</text>
</g>
<g transform="translate(595, 56) rotate(-10.0)" class="key keypos-9">
<rect rx="6" ry="6" x="-26" y="-26" width="52" height="52" class="key"/>
<text x="0" y="0" class="key tap">⏯</text>
</g>
<g transform="translate(28, 128)" class="key keypos-10">
<rect rx="6" ry="6" x="-26" y="-26" width="52" height="52" class="key"/>
<text x="0" y="0" class="key tap">*</text>
</g>
<g transform="translate(97, 93) rotate(10.0)" class="key keypos-11">
<rect rx="6" ry="6" x="-26" y="-26" width="52" height="52" class="key"/>
<text x="0" y="0" class="key tap">4</text>
</g>
<g transform="translate(166, 88) rotate(18.0)" class="key keypos-12">
<rect rx="6" ry="6" x="-26" y="-26" width="52" height="52" class="key"/>
<text x="0" y="0" class="key tap">5</text>
</g>
<g transform="translate(215, 134) rotate(22.0)" class="key keypos-13">
<rect rx="6" ry="6" x="-26" y="-26" width="52" height="52" class="key"/>
<text x="0" y="0" class="key tap">6</text>
</g>
<g transform="translate(258, 182) rotate(22.0)" class="key keypos-14">
<rect rx="6" ry="6" x="-26" y="-26" width="52" height="52" class="key"/>
<text x="0" y="0" class="key tap">-</text>
</g>
<g transform="translate(384, 182) rotate(-22.0)" class="key keypos-15">
<rect rx="6" ry="6" x="-26" y="-26" width="52" height="52" class="key"/>
<text x="0" y="0" class="key tap">⇟</text>
</g>
<g transform="translate(426, 134) rotate(-22.0)" class="key keypos-16">
<rect rx="6" ry="6" x="-26" y="-26" width="52" height="52" class="key"/>
<text x="0" y="0" class="key tap">←</text>
</g>
<g transform="translate(475, 88) rotate(-18.0)" class="key keypos-17">
<rect rx="6" ry="6" x="-26" y="-26" width="52" height="52" class="key"/>
<text x="0" y="0" class="key tap">↓</text>
</g>
<g transform="translate(544, 93) rotate(-10.0)" class="key keypos-18">
<rect rx="6" ry="6" x="-26" y="-26" width="52" height="52" class="key"/>
<text x="0" y="0" class="key tap">→</text>
</g>
<g transform="translate(613, 128)" class="key keypos-19">
<rect rx="6" ry="6" x="-26" y="-26" width="52" height="52" class="key"/>
<text x="0" y="0" class="key tap">
<tspan x="0" dy="-0.6em">VOL</tspan><tspan x="0" dy="1.2em">UP</tspan>
</text>
</g>
<g transform="translate(28, 184)" class="key keypos-20">
<rect rx="6" ry="6" x="-26" y="-26" width="52" height="52" class="key"/>
<text x="0" y="0" class="key tap">.</text>
</g>
<g transform="translate(88, 148) rotate(10.0)" class="key keypos-21">
<rect rx="6" ry="6" x="-26" y="-26" width="52" height="52" class="key"/>
<text x="0" y="0" class="key tap">7</text>
</g>
<g transform="translate(150, 142) rotate(18.0)" class="key keypos-22">
<rect rx="6" ry="6" x="-26" y="-26" width="52" height="52" class="key"/>
<text x="0" y="0" class="key tap">8</text>
</g>
<g transform="translate(195, 186) rotate(22.0)" class="key keypos-23">
<rect rx="6" ry="6" x="-26" y="-26" width="52" height="52" class="key"/>
<text x="0" y="0" class="key tap">9</text>
</g>
<g transform="translate(446, 186) rotate(-22.0)" class="key keypos-24">
<rect rx="6" ry="6" x="-26" y="-26" width="52" height="52" class="key"/>
<text x="0" y="0" class="key tap">↞</text>
</g>
<g transform="translate(492, 142) rotate(-18.0)" class="key keypos-25">
<rect rx="6" ry="6" x="-26" y="-26" width="52" height="52" class="key"/>
<text x="0" y="0" class="key tap">⏎</text>
</g>
<g transform="translate(553, 148) rotate(-10.0)" class="key keypos-26">
<rect rx="6" ry="6" x="-26" y="-26" width="52" height="52" class="key"/>
<text x="0" y="0" class="key tap">↠</text>
</g>
<g transform="translate(613, 184)" class="key keypos-27">
<rect rx="6" ry="6" x="-26" y="-26" width="52" height="52" class="key"/>
<text x="0" y="0" class="key tap">
<tspan x="0" dy="-0.6em">VOL</tspan><tspan x="0" dy="1.2em">DOWN</tspan>
</text>
</g>
<g transform="translate(200, 267) rotate(33.0)" class="key keypos-28">
<rect rx="6" ry="6" x="-26" y="-26" width="52" height="52" class="key"/>
<text x="0" y="0" class="key tap">0</text>
<text x="0" y="24" class="key hold">⇧</text>
</g>
<g transform="translate(247, 299) rotate(33.0)" class="key trans keypos-29">
<rect rx="6" ry="6" x="-26" y="-26" width="52" height="52" class="key trans"/>
<text x="0" y="0" class="key trans tap">▽</text>
</g>
<g transform="translate(394, 299) rotate(-33.0)" class="key trans keypos-30">
<rect rx="6" ry="6" x="-26" y="-26" width="52" height="52" class="key trans"/>
<text x="0" y="0" class="key trans tap">▽</text>
</g>
<g transform="translate(441, 267) rotate(-33.0)" class="key held keypos-31">
<rect rx="6" ry="6" x="-26" y="-26" width="52" height="52" class="key held"/>
</g>
<g class="combo combopos-0">
<path d="M169,214 h21 a6.0,6.0 0 0 0 6.0,-6.0 v-3" class="combo"/>
<path d="M169,214 h-13 a6.0,6.0 0 0 1 -6.0,-6.0 v-48" class="combo"/>
<path d="M169,214 h-75 a6.0,6.0 0 0 1 -6.0,-6.0 v-41" class="combo"/>
<rect rx="6" ry="6" x="155" y="207" width="28" height="15" class="combo"/>
<text x="169" y="214" class="combo tap">↹</text>
</g>
<g class="combo combopos-1">
<path d="M526,214 h-75 a6.0,6.0 0 0 1 -6.0,-6.0 v-3" class="combo"/>
<path d="M526,214 h-29 a6.0,6.0 0 0 1 -6.0,-6.0 v-48" class="combo"/>
<path d="M526,214 h21 a6.0,6.0 0 0 0 6.0,-6.0 v-41" class="combo"/>
<rect rx="6" ry="6" x="512" y="207" width="28" height="15" class="combo"/>
<text x="526" y="214" class="combo tap">⏎</text>
</g>
<g class="combo combopos-2">
<rect rx="6" ry="6" x="49" y="97" width="28" height="26" class="combo"/>
<text x="63" y="110" class="combo tap">⎇</text>
</g>
<g class="combo combopos-3">
<rect rx="6" ry="6" x="118" y="78" width="28" height="26" class="combo"/>
<text x="132" y="91" class="combo tap">⌃</text>
</g>
<g class="combo combopos-4">
<rect rx="6" ry="6" x="176" y="98" width="28" height="26" class="combo"/>
<text x="190" y="111" class="combo tap">⌘</text>
</g>
<g class="combo combopos-5">
<rect rx="6" ry="6" x="565" y="97" width="28" height="26" class="combo"/>
<text x="579" y="110" class="combo tap">⎇</text>
</g>
<g class="combo combopos-6">
<rect rx="6" ry="6" x="496" y="78" width="28" height="26" class="combo"/>
<text x="510" y="91" class="combo tap">⌃</text>
</g>
<g class="combo combopos-7">
<rect rx="6" ry="6" x="437" y="98" width="28" height="26" class="combo"/>
<text x="451" y="111" class="combo tap">⌘</text>
</g>
<g class="combo combopos-8">
<rect rx="6" ry="6" x="23" y="79" width="28" height="26" class="combo"/>
<text x="37" y="92" class="combo tap">`</text>
</g>
<g class="combo combopos-9">
<rect rx="6" ry="6" x="88" y="53" width="28" height="26" class="combo"/>
<text x="102" y="66" class="combo tap">@</text>
</g>
<g class="combo combopos-10">
<rect rx="6" ry="6" x="160" y="49" width="28" height="26" class="combo"/>
<text x="174" y="62" class="combo tap">£</text>
</g>
<g class="combo combopos-11">
<rect rx="6" ry="6" x="211" y="95" width="28" height="26" class="combo"/>
<text x="225" y="108" class="combo tap">$</text>
</g>
<g class="combo combopos-12">
<rect rx="6" ry="6" x="242" y="93" width="28" height="26" class="combo"/>
<text x="256" y="106" class="combo tap">%</text>
</g>
<g class="combo combopos-13">
<path d="M306,156 v-20 a6.0,6.0 0 0 0 -6.0,-6.0 h-4" class="combo"/>
<path d="M306,156 v20 a6.0,6.0 0 0 1 -6.0,6.0 h-24" class="combo"/>
<rect rx="6" ry="6" x="292" y="143" width="28" height="26" class="combo"/>
<text x="306" y="156" class="combo tap">|</text>
</g>
<g class="combo combopos-14">
<path d="M335,156 v-20 a6.0,6.0 0 0 1 6.0,-6.0 h4" class="combo"/>
<path d="M335,156 v20 a6.0,6.0 0 0 0 6.0,6.0 h24" class="combo"/>
<rect rx="6" ry="6" x="321" y="143" width="28" height="26" class="combo"/>
<text x="335" y="156" class="combo tap">/</text>
</g>
<g class="combo combopos-15">
<rect rx="6" ry="6" x="371" y="93" width="28" height="26" class="combo"/>
<text x="385" y="106" class="combo tap">^</text>
</g>
<g class="combo combopos-16">
<rect rx="6" ry="6" x="402" y="95" width="28" height="26" class="combo"/>
<text x="416" y="108" class="combo tap">&amp;</text>
</g>
<g class="combo combopos-17">
<rect rx="6" ry="6" x="453" y="49" width="28" height="26" class="combo"/>
<text x="467" y="62" class="combo tap">#</text>
</g>
<g class="combo combopos-18">
<rect rx="6" ry="6" x="526" y="53" width="28" height="26" class="combo"/>
<text x="540" y="66" class="combo tap">\</text>
</g>
<g class="combo combopos-19">
<rect rx="6" ry="6" x="590" y="79" width="28" height="26" class="combo"/>
<text x="604" y="92" class="combo tap">~</text>
</g>
<g class="combo combopos-20">
<rect rx="6" ry="6" x="222" y="145" width="28" height="26" class="combo"/>
<text x="236" y="158" class="combo tap">{</text>
</g>
<g class="combo combopos-21">
<rect rx="6" ry="6" x="391" y="145" width="28" height="26" class="combo"/>
<text x="405" y="158" class="combo tap">}</text>
</g>
<g class="combo combopos-22">
<rect rx="6" ry="6" x="232" y="119" width="28" height="26" class="combo"/>
<text x="246" y="132" class="combo tap">(&lt;</text>
</g>
<g class="combo combopos-23">
<rect rx="6" ry="6" x="381" y="119" width="28" height="26" class="combo"/>
<text x="395" y="132" class="combo tap">)&gt;</text>
</g>
<g class="combo combopos-24">
<rect rx="6" ry="6" x="213" y="171" width="28" height="26" class="combo"/>
<text x="227" y="184" class="combo tap">[{</text>
</g>
<g class="combo combopos-25">
<rect rx="6" ry="6" x="401" y="171" width="28" height="26" class="combo"/>
<text x="415" y="184" class="combo tap">]}</text>
</g>
</g>
</g>
</svg>
