<svg width="700" height="1227" viewBox="0 0 700 1227" class="keymap" xmlns="http://www.w3.org/2000/svg" xmlns:xlink="http://www.w3.org/1999/xlink">
<style>/* inherit to force styles through use tags*/
svg path {
    fill: inherit;
}
/* font and background color specifications */
svg.keymap {
    font-family: SFMono-Regular,Consolas,Liberation Mono,Menlo,monospace;
    font-size: 14px;
    font-kerning: normal;
    text-rendering: optimizeLegibility;
    fill: #24292e;
}

/* default key styling */
rect.key {
    fill: #f6f8fa;
    stroke: #c9cccf;
    stroke-width: 1;
}

/* color accent for combo boxes */
rect.combo {
    fill: #cdf;
}

/* color accent for held keys */
rect.held, rect.combo.held {
    fill: #fdd;
}

/* color accent for ghost (optional) keys */
rect.ghost, rect.combo.ghost {
    stroke-dasharray: 4, 4;
    stroke-width: 2;
}

text {
    text-anchor: middle;
    dominant-baseline: middle;
}

/* styling for layer labels */
text.label {
    font-weight: bold;
    text-anchor: start;
    stroke: white;
    stroke-width: 2;
    paint-order: stroke;
}

text.tap {
    font-size: 16px;
}

/* styling for combo tap, and key hold/shifted label text */
text.combo, text.hold, text.shifted {
    font-size: 11px;
}

text.hold {
    text-anchor: middle;
    dominant-baseline: auto;
}

text.shifted {
    text-anchor: middle;
    dominant-baseline: hanging;
}

/* styling for hold/shifted label text in combo box */
text.combo.hold, text.combo.shifted {
    font-size: 8px;
}

/* lighter symbol for transparent keys */
text.trans {
    fill: #7b7e81;
}

/* styling for combo dendrons */
path.combo {
    stroke-width: 1;
    stroke: gray;
    fill: none;
}

/* Start Tabler Icons Cleanup */
/* cannot use height/width with glyphs */
.icon-tabler > path {
    fill: inherit;
    stroke: inherit;
}
/* hide tabler's default box */
.icon-tabler > path[stroke="none"][fill="none"] {
    visibility: collapse;
}

rect.low {
    fill: #355978;
}
rect.medium-low {
    fill: #636696;
}
rect.medium {
    fill: #9E6DA4;
}
rect.medium-high {
    fill: #D7749D;
}
rect.high {
    fill: #FF8585;
}

/* green styling for Naginata kana-shift */
rect.kshift {
    fill: #00CC00;
}
text.left {
    font-size: 18px;
    translate: 16px 7px;
}
text.right {
    fill: #00CC00;
    font-size: 16px;
    translate: -16px -10px;
}
</style>
<g transform="translate(30, 0)" class="layer-HD Promethium">
<text x="0" y="28" class="label" id="HD-Promethium">HD Promethium</text>
<g transform="translate(0, 60)">
<g transform="translate(46, 65) rotate(10.0)" class="key keypos-0">
<rect rx="6" ry="6" x="-26" y="-37" width="52" height="74" class="key"/>
<text x="0" y="0" class="key tap">⎋</text>
</g>
<g transform="translate(106, 38) rotate(10.0)" class="key medium-low keypos-1">
<rect rx="6" ry="6" x="-26" y="-26" width="52" height="52" class="key medium-low"/>
<text x="0" y="0" class="key medium-low tap">pP</text>
</g>
<g transform="translate(181, 35) rotate(18.0)" class="key medium keypos-2">
<rect rx="6" ry="6" x="-26" y="-26" width="52" height="52" class="key medium"/>
<text x="0" y="0" class="key medium tap">gG</text>
</g>
<g transform="translate(234, 85) rotate(22.0)" class="key medium keypos-3">
<rect rx="6" ry="6" x="-26" y="-26" width="52" height="52" class="key medium"/>
<text x="0" y="0" class="key medium tap">mM</text>
</g>
<g transform="translate(276, 136) rotate(22.0)" class="key low keypos-4">
<rect rx="6" ry="6" x="-26" y="-26" width="52" height="52" class="key low"/>
<text x="0" y="0" class="key low tap">kK</text>
</g>
<g transform="translate(364, 136) rotate(-22.0)" class="key medium-low keypos-5">
<rect rx="6" ry="6" x="-26" y="-26" width="52" height="52" class="key medium-low"/>
<text x="0" y="0" class="key medium-low tap">.:</text>
</g>
<g transform="translate(407, 85) rotate(-22.0)" class="key keypos-6">
<rect rx="6" ry="6" x="-26" y="-26" width="52" height="52" class="key"/>
<text x="0" y="0" class="key tap">⌫</text>
</g>
<g transform="translate(459, 35) rotate(-18.0)" class="key medium-low keypos-7">
<rect rx="6" ry="6" x="-26" y="-26" width="52" height="52" class="key medium-low"/>
<text x="0" y="0" class="key medium-low tap">&#x27;&quot;</text>
</g>
<g transform="translate(534, 38) rotate(-10.0)" class="key medium-low keypos-8">
<rect rx="6" ry="6" x="-26" y="-26" width="52" height="52" class="key medium-low"/>
<text x="0" y="0" class="key medium-low tap">-_</text>
</g>
<g transform="translate(594, 65) rotate(-10.0)" class="key low keypos-9">
<rect rx="6" ry="6" x="-26" y="-37" width="52" height="74" class="key low"/>
<text x="0" y="0" class="key low tap">=+</text>
</g>
<g transform="translate(28, 132)" class="key high keypos-10">
<rect rx="6" ry="6" x="-26" y="-26" width="52" height="52" class="key high"/>
<text x="0" y="0" class="key high tap">sS</text>
<text x="0" y="24" class="key high hold">⇧</text>
</g>
<g transform="translate(97, 95) rotate(10.0)" class="key high keypos-11">
<rect rx="6" ry="6" x="-26" y="-26" width="52" height="52" class="key high"/>
<text x="0" y="0" class="key high tap">nN</text>
<text x="0" y="24" class="key high hold">⎇</text>
</g>
<g transform="translate(166, 90) rotate(18.0)" class="key high keypos-12">
<rect rx="6" ry="6" x="-26" y="-26" width="52" height="52" class="key high"/>
<text x="0" y="0" class="key high tap">tT</text>
<text x="0" y="24" class="key high hold">⌃</text>
</g>
<g transform="translate(214, 139) rotate(22.0)" class="key high keypos-13">
<rect rx="6" ry="6" x="-26" y="-26" width="52" height="52" class="key high"/>
<text x="0" y="0" class="key high tap">hH</text>
<text x="0" y="24" class="key high hold">⌘</text>
</g>
<g transform="translate(257, 189) rotate(22.0)" class="key low keypos-14">
<rect rx="6" ry="6" x="-26" y="-26" width="52" height="52" class="key low"/>
<text x="0" y="0" class="key low tap">jJ</text>
</g>
<g transform="translate(383, 189) rotate(-22.0)" class="key medium-low keypos-15">
<rect rx="6" ry="6" x="-26" y="-26" width="52" height="52" class="key medium-low"/>
<text x="0" y="0" class="key medium-low tap">,;</text>
</g>
<g transform="translate(426, 139) rotate(-22.0)" class="key high keypos-16">
<rect rx="6" ry="6" x="-26" y="-26" width="52" height="52" class="key high"/>
<text x="0" y="0" class="key high tap">aA</text>
<text x="0" y="24" class="key high hold">⌘</text>
</g>
<g transform="translate(474, 90) rotate(-18.0)" class="key high keypos-17">
<rect rx="6" ry="6" x="-26" y="-26" width="52" height="52" class="key high"/>
<text x="0" y="0" class="key high tap">eE</text>
<text x="0" y="24" class="key high hold">⌃</text>
</g>
<g transform="translate(543, 95) rotate(-10.0)" class="key high keypos-18">
<rect rx="6" ry="6" x="-26" y="-26" width="52" height="52" class="key high"/>
<text x="0" y="0" class="key high tap">iI</text>
<text x="0" y="24" class="key high hold">⎇</text>
</g>
<g transform="translate(612, 132)" class="key medium keypos-19">
<rect rx="6" ry="6" x="-26" y="-26" width="52" height="52" class="key medium"/>
<text x="0" y="0" class="key medium tap">cC</text>
<text x="0" y="24" class="key medium hold">⇧</text>
</g>
<g transform="translate(28, 190)" class="key medium-low keypos-20">
<rect rx="6" ry="6" x="-26" y="-26" width="52" height="52" class="key medium-low"/>
<text x="0" y="0" class="key medium-low tap">bB</text>
<text x="0" y="24" class="key medium-low hold">⇧</text>
</g>
<g transform="translate(88, 152) rotate(10.0)" class="key medium keypos-21">
<rect rx="6" ry="6" x="-26" y="-26" width="52" height="52" class="key medium"/>
<text x="0" y="0" class="key medium tap">fF</text>
<text x="0" y="24" class="key medium hold">⎇</text>
</g>
<g transform="translate(150, 145) rotate(18.0)" class="key medium-high keypos-22">
<rect rx="6" ry="6" x="-26" y="-26" width="52" height="52" class="key medium-high"/>
<text x="0" y="0" class="key medium-high tap">dD</text>
<text x="0" y="24" class="key medium-high hold">⌃</text>
</g>
<g transform="translate(195, 192) rotate(22.0)" class="key medium-high keypos-23">
<rect rx="6" ry="6" x="-26" y="-26" width="52" height="52" class="key medium-high"/>
<text x="0" y="0" class="key medium-high tap">lL</text>
<text x="0" y="24" class="key medium-high hold">⌘</text>
</g>
<g transform="translate(251, 274) rotate(37.0)" class="key high keypos-24">
<rect rx="6" ry="6" x="-46" y="-26" width="91" height="52" class="key high"/>
<text x="0" y="0" class="key high tap">rR</text>
<text x="0" y="24" class="key high hold">⇧</text>
</g>
<g transform="translate(389, 274) rotate(-37.0)" class="key high keypos-25">
<rect rx="6" ry="6" x="-46" y="-26" width="91" height="52" class="key high"/>
<text x="0" y="0" class="key high tap">⎵R</text>
<text x="0" y="24" class="key high hold">Num+Nav</text>
</g>
<g transform="translate(445, 192) rotate(-22.0)" class="key medium-high keypos-26">
<rect rx="6" ry="6" x="-26" y="-26" width="52" height="52" class="key medium-high"/>
<text x="0" y="0" class="key medium-high tap">uU</text>
<text x="0" y="24" class="key medium-high hold">⌘</text>
</g>
<g transform="translate(491, 145) rotate(-18.0)" class="key high keypos-27">
<rect rx="6" ry="6" x="-26" y="-26" width="52" height="52" class="key high"/>
<text x="0" y="0" class="key high tap">oO</text>
<text x="0" y="24" class="key high hold">⌃</text>
</g>
<g transform="translate(552, 152) rotate(-10.0)" class="key medium keypos-28">
<rect rx="6" ry="6" x="-26" y="-26" width="52" height="52" class="key medium"/>
<text x="0" y="0" class="key medium tap">yY</text>
<text x="0" y="24" class="key medium hold">⎇</text>
</g>
<g transform="translate(612, 190)" class="key medium keypos-29">
<rect rx="6" ry="6" x="-26" y="-26" width="52" height="52" class="key medium"/>
<text x="0" y="0" class="key medium tap">wW</text>
<text x="0" y="24" class="key medium hold">⇧</text>
</g>
<g transform="translate(95, 207)" class="key keypos-30">
<rect rx="6" ry="6" x="-23" y="-23" width="46" height="46" class="key"/>
<text x="0" y="0" class="key tap">↑</text>
</g>
<g transform="translate(45, 258)" class="key keypos-31">
<rect rx="6" ry="6" x="-23" y="-23" width="46" height="46" class="key"/>
<text x="0" y="0" class="key tap">←</text>
</g>
<g transform="translate(95, 258)" class="key keypos-32">
<rect rx="6" ry="6" x="-23" y="-23" width="46" height="46" class="key"/>
<text x="0" y="0" class="key tap">⏎</text>
</g>
<g transform="translate(146, 258)" class="key keypos-33">
<rect rx="6" ry="6" x="-23" y="-23" width="46" height="46" class="key"/>
<text x="0" y="0" class="key tap">→</text>
</g>
<g transform="translate(95, 308)" class="key keypos-34">
<rect rx="6" ry="6" x="-23" y="-23" width="46" height="46" class="key"/>
<text x="0" y="0" class="key tap">↓</text>
</g>
<g class="combo combopos-0">
<path d="M320,9 h-268 a6.0,6.0 0 0 0 -6.0,6.0 v23" class="combo"/>
<path d="M320,9 h268 a6.0,6.0 0 0 1 6.0,6.0 v23" class="combo"/>
<rect rx="6" ry="6" x="295" y="-4" width="50" height="26" class="combo"/>
<text x="320" y="9" class="combo tap">
<tspan x="320" dy="-0.6em">Studio</tspan><tspan x="320" dy="1.2em">Unlock</tspan>
</text>
</g>
<g class="combo combopos-1">
<path d="M320,205 l-34,-54" class="combo"/>
<path d="M320,205 l34,-54" class="combo"/>
<path d="M320,205 l-47,47" class="combo"/>
<path d="M320,205 l47,47" class="combo"/>
<rect rx="6" ry="6" x="295" y="192" width="50" height="26" class="combo"/>
<text x="320" y="205" class="combo tap">
<tspan x="320" dy="-0.6em">Boot</tspan><tspan x="320" dy="1.2em">loader</tspan>
</text>
</g>
<g class="combo combopos-2">
<path d="M514,167 h-82 a6.0,6.0 0 0 1 -6.0,-6.0 v-3" class="combo"/>
<path d="M514,167 h23 a6.0,6.0 0 0 0 6.0,-6.0 v-47" class="combo"/>
<rect rx="6" ry="6" x="500" y="159" width="28" height="15" class="combo"/>
<text x="514" y="167" class="combo tap">かな</text>
</g>
<g class="combo combopos-3">
<path d="M126,167 h82 a6.0,6.0 0 0 0 6.0,-6.0 v-3" class="combo"/>
<path d="M126,167 h-23 a6.0,6.0 0 0 1 -6.0,-6.0 v-47" class="combo"/>
<rect rx="6" ry="6" x="112" y="159" width="28" height="15" class="combo"/>
<text x="126" y="167" class="combo tap">ABC</text>
</g>
<g class="combo combopos-6">
<path d="M169,220 h21 a6.0,6.0 0 0 0 6.0,-6.0 v-3" class="combo"/>
<path d="M169,220 h-13 a6.0,6.0 0 0 1 -6.0,-6.0 v-50" class="combo"/>
<path d="M169,220 h-75 a6.0,6.0 0 0 1 -6.0,-6.0 v-43" class="combo"/>
<rect rx="6" ry="6" x="155" y="213" width="28" height="15" class="combo"/>
<text x="169" y="220" class="combo tap">↹</text>
</g>
<g class="combo combopos-7">
<path d="M525,220 h-75 a6.0,6.0 0 0 1 -6.0,-6.0 v-3" class="combo"/>
<path d="M525,220 h-29 a6.0,6.0 0 0 1 -6.0,-6.0 v-50" class="combo"/>
<path d="M525,220 h21 a6.0,6.0 0 0 0 6.0,-6.0 v-43" class="combo"/>
<rect rx="6" ry="6" x="511" y="213" width="28" height="15" class="combo"/>
<text x="525" y="220" class="combo tap">⏎</text>
</g>
<g class="combo low combopos-8">
<rect rx="6" ry="6" x="193" y="47" width="28" height="26" class="combo low"/>
<text x="207" y="60" class="combo low tap">vQ</text>
</g>
<g class="combo low combopos-9">
<rect rx="6" ry="6" x="482" y="24" width="28" height="26" class="combo low"/>
<text x="496" y="37" class="combo low tap">zZ</text>
</g>
<g class="combo low combopos-10">
<rect rx="6" ry="6" x="130" y="24" width="28" height="26" class="combo low"/>
<text x="144" y="37" class="combo low tap">vV</text>
</g>
<g class="combo low combopos-11">
<rect rx="6" ry="6" x="105" y="136" width="28" height="26" class="combo low"/>
<text x="119" y="149" class="combo low tap">xX</text>
</g>
<g class="combo combopos-12">
<rect rx="6" ry="6" x="23" y="85" width="28" height="26" class="combo"/>
<text x="37" y="98" class="combo tap">`</text>
</g>
<g class="combo combopos-13">
<rect rx="6" ry="6" x="87" y="54" width="28" height="26" class="combo"/>
<text x="101" y="67" class="combo tap">@</text>
</g>
<g class="combo combopos-14">
<rect rx="6" ry="6" x="160" y="50" width="28" height="26" class="combo"/>
<text x="174" y="63" class="combo tap">|</text>
</g>
<g class="combo combopos-15">
<rect rx="6" ry="6" x="210" y="99" width="28" height="26" class="combo"/>
<text x="224" y="112" class="combo tap">$</text>
</g>
<g class="combo combopos-16">
<rect rx="6" ry="6" x="241" y="97" width="28" height="26" class="combo"/>
<text x="255" y="110" class="combo tap">\</text>
</g>
<g class="combo combopos-17">
<path d="M305,162 v-21 a6.0,6.0 0 0 0 -6.0,-6.0 h-4" class="combo"/>
<path d="M305,162 v21 a6.0,6.0 0 0 1 -6.0,6.0 h-23" class="combo"/>
<rect rx="6" ry="6" x="291" y="149" width="28" height="26" class="combo"/>
<text x="305" y="162" class="combo tap">%</text>
</g>
<g class="combo combopos-18">
<path d="M335,162 v-21 a6.0,6.0 0 0 1 6.0,-6.0 h4" class="combo"/>
<path d="M335,162 v21 a6.0,6.0 0 0 0 6.0,6.0 h23" class="combo"/>
<rect rx="6" ry="6" x="321" y="149" width="28" height="26" class="combo"/>
<text x="335" y="162" class="combo tap">^</text>
</g>
<g class="combo combopos-19">
<rect rx="6" ry="6" x="371" y="97" width="28" height="26" class="combo"/>
<text x="385" y="110" class="combo tap">/</text>
</g>
<g class="combo combopos-20">
<rect rx="6" ry="6" x="402" y="99" width="28" height="26" class="combo"/>
<text x="416" y="112" class="combo tap">?</text>
</g>
<g class="combo combopos-21">
<rect rx="6" ry="6" x="452" y="50" width="28" height="26" class="combo"/>
<text x="466" y="63" class="combo tap">#</text>
</g>
<g class="combo combopos-22">
<rect rx="6" ry="6" x="525" y="54" width="28" height="26" class="combo"/>
<text x="539" y="67" class="combo tap">!</text>
</g>
<g class="combo combopos-23">
<rect rx="6" ry="6" x="589" y="85" width="28" height="26" class="combo"/>
<text x="603" y="98" class="combo tap">~</text>
</g>
<g class="combo combopos-24">
<rect rx="6" ry="6" x="231" y="124" width="28" height="26" class="combo"/>
<text x="245" y="137" class="combo tap">{</text>
</g>
<g class="combo combopos-25">
<rect rx="6" ry="6" x="381" y="124" width="28" height="26" class="combo"/>
<text x="395" y="137" class="combo tap">}</text>
</g>
<g class="combo combopos-26">
<rect rx="6" ry="6" x="222" y="151" width="28" height="26" class="combo"/>
<text x="236" y="164" class="combo tap">(&lt;</text>
</g>
<g class="combo combopos-27">
<rect rx="6" ry="6" x="390" y="151" width="28" height="26" class="combo"/>
<text x="404" y="164" class="combo tap">)&gt;</text>
</g>
<g class="combo combopos-28">
<rect rx="6" ry="6" x="212" y="178" width="28" height="26" class="combo"/>
<text x="226" y="191" class="combo tap">[{</text>
</g>
<g class="combo combopos-29">
<rect rx="6" ry="6" x="400" y="178" width="28" height="26" class="combo"/>
<text x="414" y="191" class="combo tap">]}</text>
</g>
</g>
</g>
<g transform="translate(30, 393)" class="layer-Naginata">
<text x="0" y="28" class="label" id="Naginata">Naginata</text>
<g transform="translate(0, 56)">
<g transform="translate(46, 65) rotate(10.0)" class="key keypos-0">
<rect rx="6" ry="6" x="-26" y="-37" width="52" height="74" class="key"/>
<text x="0" y="0" class="key tap">⎋</text>
<text x="0" y="35" class="key hold"><tspan style="font-size: 70%">Small-kana</tspan></text>
</g>
<g transform="translate(106, 38) rotate(10.0)" class="key keypos-1">
<rect rx="6" ry="6" x="-26" y="-26" width="52" height="52" class="key"/>
<text x="-24" y="0" class="key left">き</text>
<text x="24" y="0" class="key right">め</text>
</g>
<g transform="translate(181, 35) rotate(18.0)" class="key keypos-2">
<rect rx="6" ry="6" x="-26" y="-26" width="52" height="52" class="key"/>
<text x="-24" y="0" class="key left">て</text>
<text x="24" y="0" class="key right">り</text>
</g>
<g transform="translate(234, 85) rotate(22.0)" class="key keypos-3">
<rect rx="6" ry="6" x="-26" y="-26" width="52" height="52" class="key"/>
<text x="-24" y="0" class="key left">し</text>
<text x="24" y="0" class="key right">ね</text>
</g>
<g transform="translate(276, 136) rotate(22.0)" class="key keypos-4">
<rect rx="6" ry="6" x="-26" y="-26" width="52" height="52" class="key"/>
<text x="-24" y="0" class="key left">そ</text>
<text x="24" y="0" class="key right">ぬ</text>
</g>
<g transform="translate(364, 136) rotate(-22.0)" class="key keypos-5">
<rect rx="6" ry="6" x="-26" y="-26" width="52" height="52" class="key"/>
<text x="-24" y="0" class="key left">た</text>
<text x="24" y="0" class="key right">お</text>
</g>
<g transform="translate(407, 85) rotate(-22.0)" class="key keypos-6">
<rect rx="6" ry="6" x="-26" y="-26" width="52" height="52" class="key"/>
<text x="-24" y="0" class="key left">⌫</text>
<text x="24" y="0" class="key right">さ</text>
</g>
<g transform="translate(459, 35) rotate(-18.0)" class="key keypos-7">
<rect rx="6" ry="6" x="-26" y="-26" width="52" height="52" class="key"/>
<text x="-24" y="0" class="key left">る</text>
<text x="24" y="0" class="key right">よ</text>
</g>
<g transform="translate(534, 38) rotate(-10.0)" class="key keypos-8">
<rect rx="6" ry="6" x="-26" y="-26" width="52" height="52" class="key"/>
<text x="-24" y="0" class="key left">す</text>
<text x="24" y="0" class="key right">え</text>
</g>
<g transform="translate(594, 65) rotate(-10.0)" class="key keypos-9">
<rect rx="6" ry="6" x="-26" y="-37" width="52" height="74" class="key"/>
<text x="-24" y="0" class="key left">へ</text>
<text x="24" y="0" class="key right">ゆ</text>
</g>
<g transform="translate(28, 132)" class="key keypos-10">
<rect rx="6" ry="6" x="-26" y="-26" width="52" height="52" class="key"/>
<text x="-24" y="0" class="key left">ろ</text>
<text x="24" y="0" class="key right">せ</text>
</g>
<g transform="translate(97, 95) rotate(10.0)" class="key keypos-11">
<rect rx="6" ry="6" x="-26" y="-26" width="52" height="52" class="key"/>
<text x="-24" y="0" class="key left">け</text>
<text x="24" y="0" class="key right">み</text>
</g>
<g transform="translate(166, 90) rotate(18.0)" class="key keypos-12">
<rect rx="6" ry="6" x="-26" y="-26" width="52" height="52" class="key"/>
<text x="-24" y="0" class="key left">と</text>
<text x="24" y="0" class="key right">に</text>
</g>
<g transform="translate(214, 139) rotate(22.0)" class="key keypos-13">
<rect rx="6" ry="6" x="-26" y="-26" width="52" height="52" class="key"/>
<text x="0" y="24" class="key hold">濁音</text>
<text x="-24" y="0" class="key left">か</text>
<text x="24" y="0" class="key right">ま</text>
</g>
<g transform="translate(257, 189) rotate(22.0)" class="key keypos-14">
<rect rx="6" ry="6" x="-26" y="-26" width="52" height="52" class="key"/>
<text x="-24" y="0" class="key left">っ</text>
<text x="24" y="0" class="key right">ち</text>
</g>
<g transform="translate(383, 189) rotate(-22.0)" class="key keypos-15">
<rect rx="6" ry="6" x="-26" y="-26" width="52" height="52" class="key"/>
<text x="-24" y="0" class="key left">く</text>
<text x="24" y="0" class="key right">や</text>
</g>
<g transform="translate(426, 139) rotate(-22.0)" class="key keypos-16">
<rect rx="6" ry="6" x="-26" y="-26" width="52" height="52" class="key"/>
<text x="0" y="24" class="key hold">濁音</text>
<text x="-24" y="0" class="key left">あ</text>
<text x="24" y="0" class="key right">の</text>
</g>
<g transform="translate(474, 90) rotate(-18.0)" class="key keypos-17">
<rect rx="6" ry="6" x="-26" y="-26" width="52" height="52" class="key"/>
<text x="-24" y="0" class="key left">い</text>
<text x="24" y="0" class="key right">も</text>
</g>
<g transform="translate(543, 95) rotate(-10.0)" class="key keypos-18">
<rect rx="6" ry="6" x="-26" y="-26" width="52" height="52" class="key"/>
<text x="-24" y="0" class="key left">う</text>
<text x="24" y="0" class="key right">つ</text>
</g>
<g transform="translate(612, 132)" class="key keypos-19">
<rect rx="6" ry="6" x="-26" y="-26" width="52" height="52" class="key"/>
<text x="-24" y="0" class="key left">ー</text>
<text x="24" y="0" class="key right">ふ</text>
</g>
<g transform="translate(28, 190)" class="key keypos-20">
<rect rx="6" ry="6" x="-26" y="-26" width="52" height="52" class="key"/>
<text x="-24" y="0" class="key left">ほ</text>
</g>
<g transform="translate(88, 152) rotate(10.0)" class="key keypos-21">
<rect rx="6" ry="6" x="-26" y="-26" width="52" height="52" class="key"/>
<text x="-24" y="0" class="key left">ひ</text>
</g>
<g transform="translate(150, 145) rotate(18.0)" class="key keypos-22">
<rect rx="6" ry="6" x="-26" y="-26" width="52" height="52" class="key"/>
<text x="-24" y="0" class="key left">は</text>
<text x="24" y="0" class="key right">を</text>
</g>
<g transform="translate(195, 192) rotate(22.0)" class="key keypos-23">
<rect rx="6" ry="6" x="-26" y="-26" width="52" height="52" class="key"/>
<text x="0" y="24" class="key hold">半濁音</text>
<text x="-24" y="0" class="key left">こ</text>
<text x="24" y="0" class="key right">、</text>
</g>
<g transform="translate(251, 274) rotate(37.0)" class="key kshift keypos-24">
<rect rx="6" ry="6" x="-46" y="-26" width="91" height="52" class="key kshift"/>
<text x="0" y="0" class="key kshift tap">⎵</text>
<text x="0" y="24" class="key kshift hold"><tspan style="font-size: 70%">Kana-Shift</tspan></text>
</g>
<g transform="translate(389, 274) rotate(-37.0)" class="key keypos-25">
<rect rx="6" ry="6" x="-46" y="-26" width="91" height="52" class="key"/>
<text x="0" y="0" class="key tap">⇧⎵</text>
<a href="#Num--Nav">
<text x="0" y="24" class="key hold layer-activator"><tspan style="font-size: 78%">Num + Nav</tspan></text>
</a></g>
<g transform="translate(445, 192) rotate(-22.0)" class="key keypos-26">
<rect rx="6" ry="6" x="-26" y="-26" width="52" height="52" class="key"/>
<text x="0" y="24" class="key hold">半濁音</text>
<text x="-24" y="0" class="key left">な</text>
<text x="24" y="0" class="key right">。</text>
</g>
<g transform="translate(491, 145) rotate(-18.0)" class="key keypos-27">
<rect rx="6" ry="6" x="-26" y="-26" width="52" height="52" class="key"/>
<text x="-24" y="0" class="key left">ん</text>
<text x="24" y="0" class="key right">む</text>
</g>
<g transform="translate(552, 152) rotate(-10.0)" class="key keypos-28">
<rect rx="6" ry="6" x="-26" y="-26" width="52" height="52" class="key"/>
<text x="-24" y="0" class="key left">ら</text>
<text x="24" y="0" class="key right">わ</text>
</g>
<g transform="translate(612, 190)" class="key keypos-29">
<rect rx="6" ry="6" x="-26" y="-26" width="52" height="52" class="key"/>
<text x="-24" y="0" class="key left">れ</text>
</g>
<g transform="translate(95, 207)" class="key keypos-30">
<rect rx="6" ry="6" x="-23" y="-23" width="46" height="46" class="key"/>
<text x="0" y="0" class="key tap">↑</text>
</g>
<g transform="translate(45, 258)" class="key keypos-31">
<rect rx="6" ry="6" x="-23" y="-23" width="46" height="46" class="key"/>
<text x="0" y="0" class="key tap">←</text>
</g>
<g transform="translate(95, 258)" class="key keypos-32">
<rect rx="6" ry="6" x="-23" y="-23" width="46" height="46" class="key"/>
<text x="0" y="0" class="key tap">⏎</text>
</g>
<g transform="translate(146, 258)" class="key keypos-33">
<rect rx="6" ry="6" x="-23" y="-23" width="46" height="46" class="key"/>
<text x="0" y="0" class="key tap">→</text>
</g>
<g transform="translate(95, 308)" class="key keypos-34">
<rect rx="6" ry="6" x="-23" y="-23" width="46" height="46" class="key"/>
<text x="0" y="0" class="key tap">↓</text>
</g>
<g class="combo combopos-0">
<path d="M514,167 h-82 a6.0,6.0 0 0 1 -6.0,-6.0 v-3" class="combo"/>
<path d="M514,167 h23 a6.0,6.0 0 0 0 6.0,-6.0 v-47" class="combo"/>
<rect rx="6" ry="6" x="500" y="159" width="28" height="15" class="combo"/>
<text x="514" y="167" class="combo tap">かな</text>
</g>
<g class="combo combopos-1">
<path d="M126,167 h82 a6.0,6.0 0 0 0 6.0,-6.0 v-3" class="combo"/>
<path d="M126,167 h-23 a6.0,6.0 0 0 1 -6.0,-6.0 v-47" class="combo"/>
<rect rx="6" ry="6" x="112" y="159" width="28" height="15" class="combo"/>
<text x="126" y="167" class="combo tap">ABC</text>
</g>
<g class="combo combopos-2">
<path d="M169,220 h21 a6.0,6.0 0 0 0 6.0,-6.0 v-3" class="combo"/>
<path d="M169,220 h-13 a6.0,6.0 0 0 1 -6.0,-6.0 v-50" class="combo"/>
<path d="M169,220 h-75 a6.0,6.0 0 0 1 -6.0,-6.0 v-43" class="combo"/>
<rect rx="6" ry="6" x="155" y="213" width="28" height="15" class="combo"/>
<text x="169" y="220" class="combo tap">↹</text>
</g>
<g class="combo combopos-3">
<path d="M525,220 h-75 a6.0,6.0 0 0 1 -6.0,-6.0 v-3" class="combo"/>
<path d="M525,220 h-29 a6.0,6.0 0 0 1 -6.0,-6.0 v-50" class="combo"/>
<path d="M525,220 h21 a6.0,6.0 0 0 0 6.0,-6.0 v-43" class="combo"/>
<rect rx="6" ry="6" x="511" y="213" width="28" height="15" class="combo"/>
<text x="525" y="220" class="combo tap">⏎</text>
</g>
</g>
</g>
<g transform="translate(30, 782)" class="layer-Num + Nav">
<text x="0" y="28" class="label" id="Num--Nav">Num + Nav</text>
<g transform="translate(0, 56)">
<g transform="translate(46, 65) rotate(10.0)" class="key keypos-0">
<rect rx="6" ry="6" x="-26" y="-37" width="52" height="74" class="key"/>
<text x="0" y="0" class="key tap">/</text>
</g>
<g transform="translate(106, 38) rotate(10.0)" class="key keypos-1">
<rect rx="6" ry="6" x="-26" y="-26" width="52" height="52" class="key"/>
<text x="0" y="0" class="key tap">1</text>
</g>
<g transform="translate(181, 35) rotate(18.0)" class="key keypos-2">
<rect rx="6" ry="6" x="-26" y="-26" width="52" height="52" class="key"/>
<text x="0" y="0" class="key tap">2</text>
</g>
<g transform="translate(234, 85) rotate(22.0)" class="key keypos-3">
<rect rx="6" ry="6" x="-26" y="-26" width="52" height="52" class="key"/>
<text x="0" y="0" class="key tap">3</text>
</g>
<g transform="translate(276, 136) rotate(22.0)" class="key keypos-4">
<rect rx="6" ry="6" x="-26" y="-26" width="52" height="52" class="key"/>
<text x="0" y="0" class="key tap">+</text>
</g>
<g transform="translate(364, 136) rotate(-22.0)" class="key keypos-5">
<rect rx="6" ry="6" x="-26" y="-26" width="52" height="52" class="key"/>
<text x="0" y="0" class="key tap">⇞</text>
</g>
<g transform="translate(407, 85) rotate(-22.0)" class="key keypos-6">
<rect rx="6" ry="6" x="-26" y="-26" width="52" height="52" class="key"/>
<text x="0" y="0" class="key tap">⌫</text>
</g>
<g transform="translate(459, 35) rotate(-18.0)" class="key keypos-7">
<rect rx="6" ry="6" x="-26" y="-26" width="52" height="52" class="key"/>
<text x="0" y="0" class="key tap">↑</text>
</g>
<g transform="translate(534, 38) rotate(-10.0)" class="key keypos-8">
<rect rx="6" ry="6" x="-26" y="-26" width="52" height="52" class="key"/>
<text x="0" y="0" class="key tap">_</text>
</g>
<g transform="translate(594, 65) rotate(-10.0)" class="key keypos-9">
<rect rx="6" ry="6" x="-26" y="-37" width="52" height="74" class="key"/>
<text x="0" y="0" class="key tap">⏯</text>
</g>
<g transform="translate(28, 132)" class="key keypos-10">
<rect rx="6" ry="6" x="-26" y="-26" width="52" height="52" class="key"/>
<text x="0" y="0" class="key tap">*</text>
<text x="0" y="24" class="key hold">⇧</text>
</g>
<g transform="translate(97, 95) rotate(10.0)" class="key keypos-11">
<rect rx="6" ry="6" x="-26" y="-26" width="52" height="52" class="key"/>
<text x="0" y="0" class="key tap">4</text>
<text x="0" y="24" class="key hold">⎇</text>
</g>
<g transform="translate(166, 90) rotate(18.0)" class="key keypos-12">
<rect rx="6" ry="6" x="-26" y="-26" width="52" height="52" class="key"/>
<text x="0" y="0" class="key tap">5</text>
<text x="0" y="24" class="key hold">⌃</text>
</g>
<g transform="translate(214, 139) rotate(22.0)" class="key keypos-13">
<rect rx="6" ry="6" x="-26" y="-26" width="52" height="52" class="key"/>
<text x="0" y="0" class="key tap">6</text>
<text x="0" y="24" class="key hold">⌘</text>
</g>
<g transform="translate(257, 189) rotate(22.0)" class="key keypos-14">
<rect rx="6" ry="6" x="-26" y="-26" width="52" height="52" class="key"/>
<text x="0" y="0" class="key tap">-</text>
</g>
<g transform="translate(383, 189) rotate(-22.0)" class="key keypos-15">
<rect rx="6" ry="6" x="-26" y="-26" width="52" height="52" class="key"/>
<text x="0" y="0" class="key tap">⇟</text>
</g>
<g transform="translate(426, 139) rotate(-22.0)" class="key keypos-16">
<rect rx="6" ry="6" x="-26" y="-26" width="52" height="52" class="key"/>
<text x="0" y="0" class="key tap">←</text>
</g>
<g transform="translate(474, 90) rotate(-18.0)" class="key keypos-17">
<rect rx="6" ry="6" x="-26" y="-26" width="52" height="52" class="key"/>
<text x="0" y="0" class="key tap">↓</text>
</g>
<g transform="translate(543, 95) rotate(-10.0)" class="key keypos-18">
<rect rx="6" ry="6" x="-26" y="-26" width="52" height="52" class="key"/>
<text x="0" y="0" class="key tap">→</text>
</g>
<g transform="translate(612, 132)" class="key keypos-19">
<rect rx="6" ry="6" x="-26" y="-26" width="52" height="52" class="key"/>
<text x="0" y="0" class="key tap">
<tspan x="0" dy="-0.9em">VOL</tspan><tspan x="0" dy="1.2em">UP</tspan>
</text>
<text x="0" y="24" class="key hold">⇧</text>
</g>
<g transform="translate(28, 190)" class="key keypos-20">
<rect rx="6" ry="6" x="-26" y="-26" width="52" height="52" class="key"/>
<text x="0" y="0" class="key tap">.</text>
<text x="0" y="24" class="key hold">⇧</text>
</g>
<g transform="translate(88, 152) rotate(10.0)" class="key keypos-21">
<rect rx="6" ry="6" x="-26" y="-26" width="52" height="52" class="key"/>
<text x="0" y="0" class="key tap">7</text>
<text x="0" y="24" class="key hold">⎇</text>
</g>
<g transform="translate(150, 145) rotate(18.0)" class="key keypos-22">
<rect rx="6" ry="6" x="-26" y="-26" width="52" height="52" class="key"/>
<text x="0" y="0" class="key tap">8</text>
<text x="0" y="24" class="key hold">⌃</text>
</g>
<g transform="translate(195, 192) rotate(22.0)" class="key keypos-23">
<rect rx="6" ry="6" x="-26" y="-26" width="52" height="52" class="key"/>
<text x="0" y="0" class="key tap">9</text>
<text x="0" y="24" class="key hold">⌘</text>
</g>
<g transform="translate(251, 274) rotate(37.0)" class="key keypos-24">
<rect rx="6" ry="6" x="-46" y="-26" width="91" height="52" class="key"/>
<text x="0" y="0" class="key tap">0</text>
<text x="0" y="24" class="key hold">⇧</text>
</g>
<g transform="translate(389, 274) rotate(-37.0)" class="key held keypos-25">
<rect rx="6" ry="6" x="-46" y="-26" width="91" height="52" class="key held"/>
</g>
<g transform="translate(445, 192) rotate(-22.0)" class="key keypos-26">
<rect rx="6" ry="6" x="-26" y="-26" width="52" height="52" class="key"/>
<text x="0" y="0" class="key tap">↞</text>
</g>
<g transform="translate(491, 145) rotate(-18.0)" class="key keypos-27">
<rect rx="6" ry="6" x="-26" y="-26" width="52" height="52" class="key"/>
<text x="0" y="0" class="key tap">⏎</text>
</g>
<g transform="translate(552, 152) rotate(-10.0)" class="key keypos-28">
<rect rx="6" ry="6" x="-26" y="-26" width="52" height="52" class="key"/>
<text x="0" y="0" class="key tap">↠</text>
</g>
<g transform="translate(612, 190)" class="key keypos-29">
<rect rx="6" ry="6" x="-26" y="-26" width="52" height="52" class="key"/>
<text x="0" y="0" class="key tap">
<tspan x="0" dy="-0.9em">VOL</tspan><tspan x="0" dy="1.2em">DOWN</tspan>
</text>
<text x="0" y="24" class="key hold">⇧</text>
</g>
<g transform="translate(95, 207)" class="key keypos-30">
<rect rx="6" ry="6" x="-23" y="-23" width="46" height="46" class="key"/>
<text x="0" y="0" class="key tap">↑</text>
</g>
<g transform="translate(45, 258)" class="key keypos-31">
<rect rx="6" ry="6" x="-23" y="-23" width="46" height="46" class="key"/>
<text x="0" y="0" class="key tap">←</text>
</g>
<g transform="translate(95, 258)" class="key keypos-32">
<rect rx="6" ry="6" x="-23" y="-23" width="46" height="46" class="key"/>
<text x="0" y="0" class="key tap">⏎</text>
</g>
<g transform="translate(146, 258)" class="key keypos-33">
<rect rx="6" ry="6" x="-23" y="-23" width="46" height="46" class="key"/>
<text x="0" y="0" class="key tap">→</text>
</g>
<g transform="translate(95, 308)" class="key keypos-34">
<rect rx="6" ry="6" x="-23" y="-23" width="46" height="46" class="key"/>
<text x="0" y="0" class="key tap">↓</text>
</g>
<g class="combo combopos-2">
<path d="M169,220 h21 a6.0,6.0 0 0 0 6.0,-6.0 v-3" class="combo"/>
<path d="M169,220 h-13 a6.0,6.0 0 0 1 -6.0,-6.0 v-50" class="combo"/>
<path d="M169,220 h-75 a6.0,6.0 0 0 1 -6.0,-6.0 v-43" class="combo"/>
<rect rx="6" ry="6" x="155" y="213" width="28" height="15" class="combo"/>
<text x="169" y="220" class="combo tap">↹</text>
</g>
<g class="combo combopos-3">
<path d="M525,220 h-75 a6.0,6.0 0 0 1 -6.0,-6.0 v-3" class="combo"/>
<path d="M525,220 h-29 a6.0,6.0 0 0 1 -6.0,-6.0 v-50" class="combo"/>
<path d="M525,220 h21 a6.0,6.0 0 0 0 6.0,-6.0 v-43" class="combo"/>
<rect rx="6" ry="6" x="511" y="213" width="28" height="15" class="combo"/>
<text x="525" y="220" class="combo tap">⏎</text>
</g>
<g class="combo combopos-4">
<rect rx="6" ry="6" x="23" y="85" width="28" height="26" class="combo"/>
<text x="37" y="98" class="combo tap">`</text>
</g>
<g class="combo combopos-5">
<rect rx="6" ry="6" x="87" y="54" width="28" height="26" class="combo"/>
<text x="101" y="67" class="combo tap">@</text>
</g>
<g class="combo combopos-6">
<rect rx="6" ry="6" x="160" y="50" width="28" height="26" class="combo"/>
<text x="174" y="63" class="combo tap">|</text>
</g>
<g class="combo combopos-7">
<rect rx="6" ry="6" x="210" y="99" width="28" height="26" class="combo"/>
<text x="224" y="112" class="combo tap">$</text>
</g>
<g class="combo combopos-8">
<rect rx="6" ry="6" x="241" y="97" width="28" height="26" class="combo"/>
<text x="255" y="110" class="combo tap">\</text>
</g>
<g class="combo combopos-9">
<path d="M305,162 v-21 a6.0,6.0 0 0 0 -6.0,-6.0 h-4" class="combo"/>
<path d="M305,162 v21 a6.0,6.0 0 0 1 -6.0,6.0 h-23" class="combo"/>
<rect rx="6" ry="6" x="291" y="149" width="28" height="26" class="combo"/>
<text x="305" y="162" class="combo tap">%</text>
</g>
<g class="combo combopos-10">
<path d="M335,162 v-21 a6.0,6.0 0 0 1 6.0,-6.0 h4" class="combo"/>
<path d="M335,162 v21 a6.0,6.0 0 0 0 6.0,6.0 h23" class="combo"/>
<rect rx="6" ry="6" x="321" y="149" width="28" height="26" class="combo"/>
<text x="335" y="162" class="combo tap">^</text>
</g>
<g class="combo combopos-11">
<rect rx="6" ry="6" x="371" y="97" width="28" height="26" class="combo"/>
<text x="385" y="110" class="combo tap">/</text>
</g>
<g class="combo combopos-12">
<rect rx="6" ry="6" x="402" y="99" width="28" height="26" class="combo"/>
<text x="416" y="112" class="combo tap">?</text>
</g>
<g class="combo combopos-13">
<rect rx="6" ry="6" x="452" y="50" width="28" height="26" class="combo"/>
<text x="466" y="63" class="combo tap">#</text>
</g>
<g class="combo combopos-14">
<rect rx="6" ry="6" x="525" y="54" width="28" height="26" class="combo"/>
<text x="539" y="67" class="combo tap">!</text>
</g>
<g class="combo combopos-15">
<rect rx="6" ry="6" x="589" y="85" width="28" height="26" class="combo"/>
<text x="603" y="98" class="combo tap">~</text>
</g>
<g class="combo combopos-16">
<rect rx="6" ry="6" x="231" y="124" width="28" height="26" class="combo"/>
<text x="245" y="137" class="combo tap">{</text>
</g>
<g class="combo combopos-17">
<rect rx="6" ry="6" x="381" y="124" width="28" height="26" class="combo"/>
<text x="395" y="137" class="combo tap">}</text>
</g>
<g class="combo combopos-18">
<rect rx="6" ry="6" x="222" y="151" width="28" height="26" class="combo"/>
<text x="236" y="164" class="combo tap">(&lt;</text>
</g>
<g class="combo combopos-19">
<rect rx="6" ry="6" x="390" y="151" width="28" height="26" class="combo"/>
<text x="404" y="164" class="combo tap">)&gt;</text>
</g>
<g class="combo combopos-20">
<rect rx="6" ry="6" x="212" y="178" width="28" height="26" class="combo"/>
<text x="226" y="191" class="combo tap">[{</text>
</g>
<g class="combo combopos-21">
<rect rx="6" ry="6" x="400" y="178" width="28" height="26" class="combo"/>
<text x="414" y="191" class="combo tap">]}</text>
</g>
</g>
</g>
</svg>
