<svg width="780" height="1303" viewBox="0 0 780 1303" class="keymap" xmlns="http://www.w3.org/2000/svg" xmlns:xlink="http://www.w3.org/1999/xlink">
<style>/* inherit to force styles through use tags*/
svg path {
    fill: inherit;
}
/* font and background color specifications */
svg.keymap {
    font-family: SFMono-Regular,Consolas,Liberation Mono,Menlo,monospace;
    font-size: 14px;
    font-kerning: normal;
    text-rendering: optimizeLegibility;
    fill: #24292e;
}

/* default key styling */
rect.key {
    fill: #f6f8fa;
    stroke: #c9cccf;
    stroke-width: 1;
}

/* color accent for combo boxes */
rect.combo {
    fill: #cdf;
}

/* color accent for held keys */
rect.held, rect.combo.held {
    fill: #fdd;
}

/* color accent for ghost (optional) keys */
rect.ghost, rect.combo.ghost {
    stroke-dasharray: 4, 4;
    stroke-width: 2;
}

text {
    text-anchor: middle;
    dominant-baseline: middle;
}

/* styling for layer labels */
text.label {
    font-weight: bold;
    text-anchor: start;
    stroke: white;
    stroke-width: 2;
    paint-order: stroke;
}

text.tap {
    font-size: 16px;
}

/* styling for combo tap, and key hold/shifted label text */
text.combo, text.hold, text.shifted {
    font-size: 11px;
}

text.hold {
    text-anchor: middle;
    dominant-baseline: auto;
}

text.shifted {
    text-anchor: middle;
    dominant-baseline: hanging;
}

/* styling for hold/shifted label text in combo box */
text.combo.hold, text.combo.shifted {
    font-size: 8px;
}

/* lighter symbol for transparent keys */
text.trans {
    fill: #7b7e81;
}

/* styling for combo dendrons */
path.combo {
    stroke-width: 1;
    stroke: gray;
    fill: none;
}

/* Start Tabler Icons Cleanup */
/* cannot use height/width with glyphs */
.icon-tabler > path {
    fill: inherit;
    stroke: inherit;
}
/* hide tabler's default box */
.icon-tabler > path[stroke="none"][fill="none"] {
    visibility: collapse;
}

rect.low {
    fill: #355978;
}
rect.medium-low {
    fill: #636696;
}
rect.medium {
    fill: #9E6DA4;
}
rect.medium-high {
    fill: #D7749D;
}
rect.high {
    fill: #FF8585;
}

/* green styling for Naginata kana-shift */
rect.kshift {
    fill: #00CC00;
}
text.left {
    font-size: 18px;
    translate: 16px 7px;
}
text.right {
    fill: #00CC00;
    font-size: 16px;
    translate: -16px -10px;
}
</style>
<g transform="translate(30, 0)" class="layer-HD Promethium">
<text x="0" y="28" class="label" id="HD-Promethium">HD Promethium</text>
<g transform="translate(0, 56)">
<g transform="translate(28, 63)" class="key keypos-0">
<rect rx="6" ry="6" x="-26" y="-26" width="52" height="52" class="key"/>
<text x="0" y="0" class="key tap">⎋</text>
</g>
<g transform="translate(106, 38) rotate(10.0)" class="key medium-low keypos-1">
<rect rx="6" ry="6" x="-26" y="-26" width="52" height="52" class="key medium-low"/>
<text x="0" y="0" class="key medium-low tap">pP</text>
</g>
<g transform="translate(183, 35) rotate(18.0)" class="key medium keypos-2">
<rect rx="6" ry="6" x="-26" y="-26" width="52" height="52" class="key medium"/>
<text x="0" y="0" class="key medium tap">gG</text>
</g>
<g transform="translate(235, 82) rotate(22.0)" class="key medium keypos-3">
<rect rx="6" ry="6" x="-26" y="-26" width="52" height="52" class="key medium"/>
<text x="0" y="0" class="key medium tap">mM</text>
</g>
<g transform="translate(282, 117) rotate(22.0)" class="key low keypos-4">
<rect rx="6" ry="6" x="-26" y="-26" width="52" height="52" class="key low"/>
<text x="0" y="0" class="key low tap">xX</text>
</g>
<g transform="translate(437, 117) rotate(-22.0)" class="key low keypos-5">
<rect rx="6" ry="6" x="-26" y="-26" width="52" height="52" class="key low"/>
<text x="0" y="0" class="key low tap">/?</text>
</g>
<g transform="translate(484, 82) rotate(-22.0)" class="key keypos-6">
<rect rx="6" ry="6" x="-26" y="-26" width="52" height="52" class="key"/>
<text x="0" y="0" class="key tap">⌫</text>
</g>
<g transform="translate(537, 35) rotate(-18.0)" class="key medium-low keypos-7">
<rect rx="6" ry="6" x="-26" y="-26" width="52" height="52" class="key medium-low"/>
<text x="0" y="0" class="key medium-low tap">&#x27;&quot;</text>
</g>
<g transform="translate(613, 38) rotate(-10.0)" class="key medium-low keypos-8">
<rect rx="6" ry="6" x="-26" y="-26" width="52" height="52" class="key medium-low"/>
<text x="0" y="0" class="key medium-low tap">-_</text>
</g>
<g transform="translate(692, 63)" class="key low keypos-9">
<rect rx="6" ry="6" x="-26" y="-26" width="52" height="52" class="key low"/>
<text x="0" y="0" class="key low tap">=+</text>
</g>
<g transform="translate(28, 119)" class="key high keypos-10">
<rect rx="6" ry="6" x="-26" y="-26" width="52" height="52" class="key high"/>
<text x="0" y="0" class="key high tap">sS</text>
</g>
<g transform="translate(97, 93) rotate(10.0)" class="key high keypos-11">
<rect rx="6" ry="6" x="-26" y="-26" width="52" height="52" class="key high"/>
<text x="0" y="0" class="key high tap">nN</text>
</g>
<g transform="translate(166, 88) rotate(18.0)" class="key high keypos-12">
<rect rx="6" ry="6" x="-26" y="-26" width="52" height="52" class="key high"/>
<text x="0" y="0" class="key high tap">tT</text>
</g>
<g transform="translate(215, 134) rotate(22.0)" class="key high keypos-13">
<rect rx="6" ry="6" x="-26" y="-26" width="52" height="52" class="key high"/>
<text x="0" y="0" class="key high tap">hH</text>
</g>
<g transform="translate(262, 169) rotate(22.0)" class="key low keypos-14">
<rect rx="6" ry="6" x="-26" y="-26" width="52" height="52" class="key low"/>
<text x="0" y="0" class="key low tap">kK</text>
</g>
<g transform="translate(458, 169) rotate(-22.0)" class="key medium-low keypos-15">
<rect rx="6" ry="6" x="-26" y="-26" width="52" height="52" class="key medium-low"/>
<text x="0" y="0" class="key medium-low tap">.:</text>
</g>
<g transform="translate(505, 134) rotate(-22.0)" class="key high keypos-16">
<rect rx="6" ry="6" x="-26" y="-26" width="52" height="52" class="key high"/>
<text x="0" y="0" class="key high tap">aA</text>
</g>
<g transform="translate(554, 88) rotate(-18.0)" class="key high keypos-17">
<rect rx="6" ry="6" x="-26" y="-26" width="52" height="52" class="key high"/>
<text x="0" y="0" class="key high tap">eE</text>
</g>
<g transform="translate(622, 93) rotate(-10.0)" class="key high keypos-18">
<rect rx="6" ry="6" x="-26" y="-26" width="52" height="52" class="key high"/>
<text x="0" y="0" class="key high tap">iI</text>
</g>
<g transform="translate(692, 119)" class="key medium keypos-19">
<rect rx="6" ry="6" x="-26" y="-26" width="52" height="52" class="key medium"/>
<text x="0" y="0" class="key medium tap">cC</text>
</g>
<g transform="translate(28, 175)" class="key medium-low keypos-20">
<rect rx="6" ry="6" x="-26" y="-26" width="52" height="52" class="key medium-low"/>
<text x="0" y="0" class="key medium-low tap">bB</text>
</g>
<g transform="translate(88, 148) rotate(10.0)" class="key medium keypos-21">
<rect rx="6" ry="6" x="-26" y="-26" width="52" height="52" class="key medium"/>
<text x="0" y="0" class="key medium tap">fF</text>
</g>
<g transform="translate(150, 142) rotate(18.0)" class="key medium-high keypos-22">
<rect rx="6" ry="6" x="-26" y="-26" width="52" height="52" class="key medium-high"/>
<text x="0" y="0" class="key medium-high tap">dD</text>
</g>
<g transform="translate(195, 186) rotate(22.0)" class="key medium-high keypos-23">
<rect rx="6" ry="6" x="-26" y="-26" width="52" height="52" class="key medium-high"/>
<text x="0" y="0" class="key medium-high tap">lL</text>
</g>
<g transform="translate(242, 221) rotate(22.0)" class="key low keypos-24">
<rect rx="6" ry="6" x="-26" y="-26" width="52" height="52" class="key low"/>
<text x="0" y="0" class="key low tap">jJ</text>
</g>
<g transform="translate(477, 221) rotate(-22.0)" class="key medium-low keypos-25">
<rect rx="6" ry="6" x="-26" y="-26" width="52" height="52" class="key medium-low"/>
<text x="0" y="0" class="key medium-low tap">,;</text>
</g>
<g transform="translate(524, 186) rotate(-22.0)" class="key medium-high keypos-26">
<rect rx="6" ry="6" x="-26" y="-26" width="52" height="52" class="key medium-high"/>
<text x="0" y="0" class="key medium-high tap">uU</text>
</g>
<g transform="translate(570, 142) rotate(-18.0)" class="key high keypos-27">
<rect rx="6" ry="6" x="-26" y="-26" width="52" height="52" class="key high"/>
<text x="0" y="0" class="key high tap">oO</text>
</g>
<g transform="translate(632, 148) rotate(-10.0)" class="key medium keypos-28">
<rect rx="6" ry="6" x="-26" y="-26" width="52" height="52" class="key medium"/>
<text x="0" y="0" class="key medium tap">yY</text>
</g>
<g transform="translate(692, 175)" class="key medium keypos-29">
<rect rx="6" ry="6" x="-26" y="-26" width="52" height="52" class="key medium"/>
<text x="0" y="0" class="key medium tap">wW</text>
</g>
<g transform="translate(143, 241) rotate(22.0)" class="key keypos-30">
<rect rx="6" ry="6" x="-26" y="-26" width="52" height="52" class="key"/>
<text x="0" y="0" class="key tap">↹</text>
</g>
<g transform="translate(199, 274) rotate(37.0)" class="key high keypos-31">
<rect rx="6" ry="6" x="-26" y="-26" width="52" height="52" class="key high"/>
<text x="0" y="0" class="key high tap">rR</text>
</g>
<g transform="translate(244, 320) rotate(38.0)" class="key keypos-32">
<rect rx="6" ry="6" x="-26" y="-26" width="52" height="52" class="key"/>
<text x="0" y="0" class="key tap">⌫</text>
</g>
<g transform="translate(475, 320) rotate(-38.0)" class="key keypos-33">
<rect rx="6" ry="6" x="-26" y="-26" width="52" height="52" class="key"/>
<text x="0" y="0" class="key tap">⇧⇪</text>
</g>
<g transform="translate(521, 274) rotate(-37.0)" class="key high keypos-34">
<rect rx="6" ry="6" x="-26" y="-26" width="52" height="52" class="key high"/>
<text x="0" y="0" class="key high tap">⎵</text>
<text x="0" y="24" class="key high hold">Num+Nav</text>
</g>
<g transform="translate(576, 241) rotate(-22.0)" class="key keypos-35">
<rect rx="6" ry="6" x="-26" y="-26" width="52" height="52" class="key"/>
<a href="#Num--Nav">
<text x="0" y="0" class="key tap layer-activator">
<tspan x="0" dy="-1.2em">Num</tspan><tspan x="0" dy="1.2em">+</tspan><tspan x="0" dy="1.2em">Nav</tspan>
</text>
</a></g>
<g class="combo combopos-0">
<path d="M360,17 h-326 a6.0,6.0 0 0 0 -6.0,6.0 v21" class="combo"/>
<path d="M360,17 h326 a6.0,6.0 0 0 1 6.0,6.0 v21" class="combo"/>
<rect rx="6" ry="6" x="335" y="4" width="50" height="26" class="combo"/>
<text x="360" y="17" class="combo tap">
<tspan x="360" dy="-0.6em">Studio</tspan><tspan x="360" dy="1.2em">Unlock</tspan>
</text>
</g>
<g class="combo combopos-1">
<path d="M360,169 l-62,-42" class="combo"/>
<path d="M360,169 l62,-42" class="combo"/>
<path d="M360,169 l-100,45" class="combo"/>
<path d="M360,169 l100,45" class="combo"/>
<rect rx="6" ry="6" x="335" y="156" width="50" height="26" class="combo"/>
<text x="360" y="169" class="combo tap">
<tspan x="360" dy="-0.6em">Boot</tspan><tspan x="360" dy="1.2em">loader</tspan>
</text>
</g>
<g class="combo combopos-2">
<path d="M530,197 h-66 a6.0,6.0 0 0 1 -6.0,-6.0 v-3" class="combo"/>
<path d="M530,197 h18 a6.0,6.0 0 0 0 6.0,-6.0 v-84" class="combo"/>
<rect rx="6" ry="6" x="516" y="190" width="28" height="15" class="combo"/>
<text x="530" y="197" class="combo tap">かな</text>
</g>
<g class="combo combopos-3">
<path d="M190,197 h66 a6.0,6.0 0 0 0 6.0,-6.0 v-3" class="combo"/>
<path d="M190,197 h-18 a6.0,6.0 0 0 1 -6.0,-6.0 v-84" class="combo"/>
<rect rx="6" ry="6" x="176" y="190" width="28" height="15" class="combo"/>
<text x="190" y="197" class="combo tap">ABC</text>
</g>
<g class="combo combopos-4">
<path d="M169,214 h21 a6.0,6.0 0 0 0 6.0,-6.0 v-3" class="combo"/>
<path d="M169,214 h-13 a6.0,6.0 0 0 1 -6.0,-6.0 v-48" class="combo"/>
<path d="M169,214 h-75 a6.0,6.0 0 0 1 -6.0,-6.0 v-41" class="combo"/>
<rect rx="6" ry="6" x="155" y="207" width="28" height="15" class="combo"/>
<text x="169" y="214" class="combo tap">↹</text>
</g>
<g class="combo combopos-5">
<path d="M605,214 h-75 a6.0,6.0 0 0 1 -6.0,-6.0 v-3" class="combo"/>
<path d="M605,214 h-29 a6.0,6.0 0 0 1 -6.0,-6.0 v-48" class="combo"/>
<path d="M605,214 h21 a6.0,6.0 0 0 0 6.0,-6.0 v-41" class="combo"/>
<rect rx="6" ry="6" x="591" y="207" width="28" height="15" class="combo"/>
<text x="605" y="214" class="combo tap">⏎</text>
</g>
<g class="combo combopos-6">
<rect rx="6" ry="6" x="49" y="93" width="28" height="26" class="combo"/>
<text x="63" y="106" class="combo tap">⎇</text>
</g>
<g class="combo combopos-7">
<rect rx="6" ry="6" x="118" y="78" width="28" height="26" class="combo"/>
<text x="132" y="91" class="combo tap">⌃</text>
</g>
<g class="combo combopos-8">
<rect rx="6" ry="6" x="176" y="98" width="28" height="26" class="combo"/>
<text x="190" y="111" class="combo tap">⌘</text>
</g>
<g class="combo combopos-9">
<rect rx="6" ry="6" x="643" y="93" width="28" height="26" class="combo"/>
<text x="657" y="106" class="combo tap">⎇</text>
</g>
<g class="combo combopos-10">
<rect rx="6" ry="6" x="574" y="78" width="28" height="26" class="combo"/>
<text x="588" y="91" class="combo tap">⌃</text>
</g>
<g class="combo combopos-11">
<rect rx="6" ry="6" x="515" y="98" width="28" height="26" class="combo"/>
<text x="529" y="111" class="combo tap">⌘</text>
</g>
<g class="combo low combopos-12">
<rect rx="6" ry="6" x="195" y="46" width="28" height="26" class="combo low"/>
<text x="209" y="59" class="combo low tap">vQ</text>
</g>
<g class="combo low combopos-13">
<rect rx="6" ry="6" x="561" y="24" width="28" height="26" class="combo low"/>
<text x="575" y="37" class="combo low tap">zZ</text>
</g>
<g class="combo low combopos-14">
<rect rx="6" ry="6" x="130" y="24" width="28" height="26" class="combo low"/>
<text x="144" y="37" class="combo low tap">vV</text>
</g>
<g class="combo low combopos-15">
<rect rx="6" ry="6" x="105" y="132" width="28" height="26" class="combo low"/>
<text x="119" y="145" class="combo low tap">xX</text>
</g>
<g class="combo combopos-16">
<rect rx="6" ry="6" x="14" y="78" width="28" height="26" class="combo"/>
<text x="28" y="91" class="combo tap">`</text>
</g>
<g class="combo combopos-17">
<rect rx="6" ry="6" x="88" y="53" width="28" height="26" class="combo"/>
<text x="102" y="66" class="combo tap">@</text>
</g>
<g class="combo combopos-18">
<rect rx="6" ry="6" x="160" y="49" width="28" height="26" class="combo"/>
<text x="174" y="62" class="combo tap">£</text>
</g>
<g class="combo combopos-19">
<rect rx="6" ry="6" x="211" y="95" width="28" height="26" class="combo"/>
<text x="225" y="108" class="combo tap">$</text>
</g>
<g class="combo combopos-20">
<rect rx="6" ry="6" x="258" y="130" width="28" height="26" class="combo"/>
<text x="272" y="143" class="combo tap">%</text>
</g>
<g class="combo combopos-21">
<path d="M291,195 v-20 a6.0,6.0 0 0 0 -6.0,-6.0 h-4" class="combo"/>
<path d="M291,195 v20 a6.0,6.0 0 0 1 -6.0,6.0 h-24" class="combo"/>
<rect rx="6" ry="6" x="277" y="182" width="28" height="26" class="combo"/>
<text x="291" y="195" class="combo tap">\|</text>
</g>
<g class="combo combopos-22">
<path d="M429,195 v-20 a6.0,6.0 0 0 1 6.0,-6.0 h4" class="combo"/>
<path d="M429,195 v20 a6.0,6.0 0 0 0 6.0,6.0 h24" class="combo"/>
<rect rx="6" ry="6" x="415" y="182" width="28" height="26" class="combo"/>
<text x="429" y="195" class="combo tap">/?</text>
</g>
<g class="combo combopos-23">
<rect rx="6" ry="6" x="433" y="130" width="28" height="26" class="combo"/>
<text x="447" y="143" class="combo tap">^</text>
</g>
<g class="combo combopos-24">
<rect rx="6" ry="6" x="480" y="95" width="28" height="26" class="combo"/>
<text x="494" y="108" class="combo tap">&amp;</text>
</g>
<g class="combo combopos-25">
<rect rx="6" ry="6" x="531" y="49" width="28" height="26" class="combo"/>
<text x="545" y="62" class="combo tap">#</text>
</g>
<g class="combo combopos-26">
<rect rx="6" ry="6" x="604" y="53" width="28" height="26" class="combo"/>
<text x="618" y="66" class="combo tap">!</text>
</g>
<g class="combo combopos-27">
<rect rx="6" ry="6" x="678" y="78" width="28" height="26" class="combo"/>
<text x="692" y="91" class="combo tap">~</text>
</g>
<g class="combo combopos-28">
<rect rx="6" ry="6" x="244" y="87" width="28" height="26" class="combo"/>
<text x="258" y="100" class="combo tap">{</text>
</g>
<g class="combo combopos-29">
<rect rx="6" ry="6" x="447" y="87" width="28" height="26" class="combo"/>
<text x="461" y="100" class="combo tap">}</text>
</g>
<g class="combo combopos-30">
<rect rx="6" ry="6" x="225" y="139" width="28" height="26" class="combo"/>
<text x="239" y="152" class="combo tap">(&lt;</text>
</g>
<g class="combo combopos-31">
<rect rx="6" ry="6" x="467" y="139" width="28" height="26" class="combo"/>
<text x="481" y="152" class="combo tap">)&gt;</text>
</g>
<g class="combo combopos-32">
<rect rx="6" ry="6" x="205" y="191" width="28" height="26" class="combo"/>
<text x="219" y="204" class="combo tap">[{</text>
</g>
<g class="combo combopos-33">
<rect rx="6" ry="6" x="487" y="191" width="28" height="26" class="combo"/>
<text x="501" y="204" class="combo tap">]}</text>
</g>
</g>
</g>
<g transform="translate(30, 416)" class="layer-Naginata">
<text x="0" y="28" class="label" id="Naginata">Naginata</text>
<g transform="translate(0, 56)">
<g transform="translate(28, 63)" class="key keypos-0">
<rect rx="6" ry="6" x="-26" y="-26" width="52" height="52" class="key"/>
<text x="0" y="0" class="key tap">⎋</text>
<text x="0" y="24" class="key hold"><tspan style="font-size: 70%">Small-kana</tspan></text>
</g>
<g transform="translate(106, 38) rotate(10.0)" class="key keypos-1">
<rect rx="6" ry="6" x="-26" y="-26" width="52" height="52" class="key"/>
<text x="-24" y="0" class="key left">き</text>
<text x="24" y="0" class="key right">ぬ</text>
</g>
<g transform="translate(183, 35) rotate(18.0)" class="key keypos-2">
<rect rx="6" ry="6" x="-26" y="-26" width="52" height="52" class="key"/>
<text x="-24" y="0" class="key left">て</text>
<text x="24" y="0" class="key right">り</text>
</g>
<g transform="translate(235, 82) rotate(22.0)" class="key keypos-3">
<rect rx="6" ry="6" x="-26" y="-26" width="52" height="52" class="key"/>
<text x="-24" y="0" class="key left">し</text>
<text x="24" y="0" class="key right">め</text>
</g>
<g transform="translate(282, 117) rotate(22.0)" class="key keypos-4">
<rect rx="6" ry="6" x="-26" y="-26" width="52" height="52" class="key"/>
<text x="0" y="0" class="key tap">←</text>
</g>
<g transform="translate(437, 117) rotate(-22.0)" class="key keypos-5">
<rect rx="6" ry="6" x="-26" y="-26" width="52" height="52" class="key"/>
<text x="0" y="0" class="key tap">→</text>
</g>
<g transform="translate(484, 82) rotate(-22.0)" class="key keypos-6">
<rect rx="6" ry="6" x="-26" y="-26" width="52" height="52" class="key"/>
<text x="-24" y="0" class="key left">⌫</text>
<text x="24" y="0" class="key right">さ</text>
</g>
<g transform="translate(537, 35) rotate(-18.0)" class="key keypos-7">
<rect rx="6" ry="6" x="-26" y="-26" width="52" height="52" class="key"/>
<text x="-24" y="0" class="key left">る</text>
<text x="24" y="0" class="key right">よ</text>
</g>
<g transform="translate(613, 38) rotate(-10.0)" class="key keypos-8">
<rect rx="6" ry="6" x="-26" y="-26" width="52" height="52" class="key"/>
<text x="-24" y="0" class="key left">す</text>
<text x="24" y="0" class="key right">え</text>
</g>
<g transform="translate(692, 63)" class="key keypos-9">
<rect rx="6" ry="6" x="-26" y="-26" width="52" height="52" class="key"/>
<text x="-24" y="0" class="key left">へ</text>
<text x="24" y="0" class="key right">ゆ</text>
</g>
<g transform="translate(28, 119)" class="key keypos-10">
<rect rx="6" ry="6" x="-26" y="-26" width="52" height="52" class="key"/>
<text x="-24" y="0" class="key left">ろ</text>
<text x="24" y="0" class="key right">せ</text>
</g>
<g transform="translate(97, 93) rotate(10.0)" class="key keypos-11">
<rect rx="6" ry="6" x="-26" y="-26" width="52" height="52" class="key"/>
<text x="-24" y="0" class="key left">け</text>
<text x="24" y="0" class="key right">み</text>
</g>
<g transform="translate(166, 88) rotate(18.0)" class="key keypos-12">
<rect rx="6" ry="6" x="-26" y="-26" width="52" height="52" class="key"/>
<text x="-24" y="0" class="key left">と</text>
<text x="24" y="0" class="key right">に</text>
</g>
<g transform="translate(215, 134) rotate(22.0)" class="key keypos-13">
<rect rx="6" ry="6" x="-26" y="-26" width="52" height="52" class="key"/>
<text x="0" y="24" class="key hold">濁音</text>
<text x="-24" y="0" class="key left">か</text>
<text x="24" y="0" class="key right">ま</text>
</g>
<g transform="translate(262, 169) rotate(22.0)" class="key keypos-14">
<rect rx="6" ry="6" x="-26" y="-26" width="52" height="52" class="key"/>
<text x="-24" y="0" class="key left">っ</text>
<text x="24" y="0" class="key right">ち</text>
</g>
<g transform="translate(458, 169) rotate(-22.0)" class="key keypos-15">
<rect rx="6" ry="6" x="-26" y="-26" width="52" height="52" class="key"/>
<text x="-24" y="0" class="key left">く</text>
<text x="24" y="0" class="key right">や</text>
</g>
<g transform="translate(505, 134) rotate(-22.0)" class="key keypos-16">
<rect rx="6" ry="6" x="-26" y="-26" width="52" height="52" class="key"/>
<text x="0" y="24" class="key hold">濁音</text>
<text x="-24" y="0" class="key left">あ</text>
<text x="24" y="0" class="key right">の</text>
</g>
<g transform="translate(554, 88) rotate(-18.0)" class="key keypos-17">
<rect rx="6" ry="6" x="-26" y="-26" width="52" height="52" class="key"/>
<text x="-24" y="0" class="key left">い</text>
<text x="24" y="0" class="key right">も</text>
</g>
<g transform="translate(622, 93) rotate(-10.0)" class="key keypos-18">
<rect rx="6" ry="6" x="-26" y="-26" width="52" height="52" class="key"/>
<text x="-24" y="0" class="key left">う</text>
<text x="24" y="0" class="key right">つ</text>
</g>
<g transform="translate(692, 119)" class="key keypos-19">
<rect rx="6" ry="6" x="-26" y="-26" width="52" height="52" class="key"/>
<text x="-24" y="0" class="key left">ー</text>
<text x="24" y="0" class="key right">ふ</text>
</g>
<g transform="translate(28, 175)" class="key keypos-20">
<rect rx="6" ry="6" x="-26" y="-26" width="52" height="52" class="key"/>
<text x="-24" y="0" class="key left">ほ</text>
</g>
<g transform="translate(88, 148) rotate(10.0)" class="key keypos-21">
<rect rx="6" ry="6" x="-26" y="-26" width="52" height="52" class="key"/>
<text x="-24" y="0" class="key left">ひ</text>
</g>
<g transform="translate(150, 142) rotate(18.0)" class="key keypos-22">
<rect rx="6" ry="6" x="-26" y="-26" width="52" height="52" class="key"/>
<text x="-24" y="0" class="key left">は</text>
<text x="24" y="0" class="key right">を</text>
</g>
<g transform="translate(195, 186) rotate(22.0)" class="key keypos-23">
<rect rx="6" ry="6" x="-26" y="-26" width="52" height="52" class="key"/>
<text x="0" y="24" class="key hold">半濁音</text>
<text x="-24" y="0" class="key left">こ</text>
<text x="24" y="0" class="key right">、</text>
</g>
<g transform="translate(242, 221) rotate(22.0)" class="key keypos-24">
<rect rx="6" ry="6" x="-26" y="-26" width="52" height="52" class="key"/>
<text x="-24" y="0" class="key left">そ</text>
<text x="24" y="0" class="key right">む</text>
</g>
<g transform="translate(477, 221) rotate(-22.0)" class="key keypos-25">
<rect rx="6" ry="6" x="-26" y="-26" width="52" height="52" class="key"/>
<text x="-24" y="0" class="key left">た</text>
<text x="24" y="0" class="key right">お</text>
</g>
<g transform="translate(524, 186) rotate(-22.0)" class="key keypos-26">
<rect rx="6" ry="6" x="-26" y="-26" width="52" height="52" class="key"/>
<text x="0" y="24" class="key hold">半濁音</text>
<text x="-24" y="0" class="key left">な</text>
<text x="24" y="0" class="key right">。</text>
</g>
<g transform="translate(570, 142) rotate(-18.0)" class="key keypos-27">
<rect rx="6" ry="6" x="-26" y="-26" width="52" height="52" class="key"/>
<text x="-24" y="0" class="key left">ん</text>
<text x="24" y="0" class="key right">ね</text>
</g>
<g transform="translate(632, 148) rotate(-10.0)" class="key keypos-28">
<rect rx="6" ry="6" x="-26" y="-26" width="52" height="52" class="key"/>
<text x="-24" y="0" class="key left">ら</text>
<text x="24" y="0" class="key right">わ</text>
</g>
<g transform="translate(692, 175)" class="key keypos-29">
<rect rx="6" ry="6" x="-26" y="-26" width="52" height="52" class="key"/>
<text x="-24" y="0" class="key left">れ</text>
</g>
<g transform="translate(143, 241) rotate(22.0)" class="key keypos-30">
<rect rx="6" ry="6" x="-26" y="-26" width="52" height="52" class="key"/>
<text x="0" y="0" class="key tap">↹</text>
</g>
<g transform="translate(199, 274) rotate(37.0)" class="key kshift keypos-31">
<rect rx="6" ry="6" x="-26" y="-26" width="52" height="52" class="key kshift"/>
<text x="0" y="0" class="key kshift tap">⏎</text>
<text x="0" y="24" class="key kshift hold"><tspan style="font-size: 70%">Kana-Shift</tspan></text>
</g>
<g transform="translate(244, 320) rotate(38.0)" class="key keypos-32">
<rect rx="6" ry="6" x="-26" y="-26" width="52" height="52" class="key"/>
<text x="0" y="0" class="key tap">⌫</text>
</g>
<g transform="translate(475, 320) rotate(-38.0)" class="key kshift keypos-33">
<rect rx="6" ry="6" x="-26" y="-26" width="52" height="52" class="key kshift"/>
<text x="0" y="0" class="key kshift tap">⎵</text>
<text x="0" y="24" class="key kshift hold"><tspan style="font-size: 70%">Kana-Shift</tspan></text>
</g>
<g transform="translate(521, 274) rotate(-37.0)" class="key keypos-34">
<rect rx="6" ry="6" x="-26" y="-26" width="52" height="52" class="key"/>
<text x="0" y="0" class="key tap">⇧⎵</text>
<a href="#Num--Nav">
<text x="0" y="24" class="key hold layer-activator"><tspan style="font-size: 78%">Num + Nav</tspan></text>
</a></g>
<g transform="translate(576, 241) rotate(-22.0)" class="key keypos-35">
<rect rx="6" ry="6" x="-26" y="-26" width="52" height="52" class="key"/>
<a href="#Num--Nav">
<text x="0" y="0" class="key tap layer-activator">
<tspan x="0" dy="-1.2em">Num</tspan><tspan x="0" dy="1.2em">+</tspan><tspan x="0" dy="1.2em">Nav</tspan>
</text>
</a></g>
<g class="combo combopos-0">
<path d="M530,197 h-66 a6.0,6.0 0 0 1 -6.0,-6.0 v-3" class="combo"/>
<path d="M530,197 h18 a6.0,6.0 0 0 0 6.0,-6.0 v-84" class="combo"/>
<rect rx="6" ry="6" x="516" y="190" width="28" height="15" class="combo"/>
<text x="530" y="197" class="combo tap">かな</text>
</g>
<g class="combo combopos-1">
<path d="M190,197 h66 a6.0,6.0 0 0 0 6.0,-6.0 v-3" class="combo"/>
<path d="M190,197 h-18 a6.0,6.0 0 0 1 -6.0,-6.0 v-84" class="combo"/>
<rect rx="6" ry="6" x="176" y="190" width="28" height="15" class="combo"/>
<text x="190" y="197" class="combo tap">ABC</text>
</g>
<g class="combo combopos-2">
<path d="M169,214 h21 a6.0,6.0 0 0 0 6.0,-6.0 v-3" class="combo"/>
<path d="M169,214 h-13 a6.0,6.0 0 0 1 -6.0,-6.0 v-48" class="combo"/>
<path d="M169,214 h-75 a6.0,6.0 0 0 1 -6.0,-6.0 v-41" class="combo"/>
<rect rx="6" ry="6" x="155" y="207" width="28" height="15" class="combo"/>
<text x="169" y="214" class="combo tap">↹</text>
</g>
<g class="combo combopos-3">
<path d="M605,214 h-75 a6.0,6.0 0 0 1 -6.0,-6.0 v-3" class="combo"/>
<path d="M605,214 h-29 a6.0,6.0 0 0 1 -6.0,-6.0 v-48" class="combo"/>
<path d="M605,214 h21 a6.0,6.0 0 0 0 6.0,-6.0 v-41" class="combo"/>
<rect rx="6" ry="6" x="591" y="207" width="28" height="15" class="combo"/>
<text x="605" y="214" class="combo tap">⏎</text>
</g>
</g>
</g>
<g transform="translate(30, 831)" class="layer-Num + Nav">
<text x="0" y="28" class="label" id="Num--Nav">Num + Nav</text>
<g transform="translate(0, 56)">
<g transform="translate(28, 63)" class="key keypos-0">
<rect rx="6" ry="6" x="-26" y="-26" width="52" height="52" class="key"/>
<text x="0" y="0" class="key tap">/</text>
</g>
<g transform="translate(106, 38) rotate(10.0)" class="key keypos-1">
<rect rx="6" ry="6" x="-26" y="-26" width="52" height="52" class="key"/>
<text x="0" y="0" class="key tap">1</text>
</g>
<g transform="translate(183, 35) rotate(18.0)" class="key keypos-2">
<rect rx="6" ry="6" x="-26" y="-26" width="52" height="52" class="key"/>
<text x="0" y="0" class="key tap">2</text>
</g>
<g transform="translate(235, 82) rotate(22.0)" class="key keypos-3">
<rect rx="6" ry="6" x="-26" y="-26" width="52" height="52" class="key"/>
<text x="0" y="0" class="key tap">3</text>
</g>
<g transform="translate(282, 117) rotate(22.0)" class="key keypos-4">
<rect rx="6" ry="6" x="-26" y="-26" width="52" height="52" class="key"/>
<text x="0" y="0" class="key tap">=</text>
</g>
<g transform="translate(437, 117) rotate(-22.0)" class="key keypos-5">
<rect rx="6" ry="6" x="-26" y="-26" width="52" height="52" class="key"/>
<text x="0" y="0" class="key tap">⎋</text>
</g>
<g transform="translate(484, 82) rotate(-22.0)" class="key keypos-6">
<rect rx="6" ry="6" x="-26" y="-26" width="52" height="52" class="key"/>
<text x="0" y="0" class="key tap">↖</text>
</g>
<g transform="translate(537, 35) rotate(-18.0)" class="key keypos-7">
<rect rx="6" ry="6" x="-26" y="-26" width="52" height="52" class="key"/>
<text x="0" y="0" class="key tap">↑</text>
</g>
<g transform="translate(613, 38) rotate(-10.0)" class="key keypos-8">
<rect rx="6" ry="6" x="-26" y="-26" width="52" height="52" class="key"/>
<text x="0" y="0" class="key tap">↘</text>
</g>
<g transform="translate(692, 63)" class="key keypos-9">
<rect rx="6" ry="6" x="-26" y="-26" width="52" height="52" class="key"/>
<text x="0" y="0" class="key tap">⏯</text>
</g>
<g transform="translate(28, 119)" class="key keypos-10">
<rect rx="6" ry="6" x="-26" y="-26" width="52" height="52" class="key"/>
<text x="0" y="0" class="key tap">*</text>
</g>
<g transform="translate(97, 93) rotate(10.0)" class="key keypos-11">
<rect rx="6" ry="6" x="-26" y="-26" width="52" height="52" class="key"/>
<text x="0" y="0" class="key tap">4</text>
</g>
<g transform="translate(166, 88) rotate(18.0)" class="key keypos-12">
<rect rx="6" ry="6" x="-26" y="-26" width="52" height="52" class="key"/>
<text x="0" y="0" class="key tap">5</text>
</g>
<g transform="translate(215, 134) rotate(22.0)" class="key keypos-13">
<rect rx="6" ry="6" x="-26" y="-26" width="52" height="52" class="key"/>
<text x="0" y="0" class="key tap">6</text>
</g>
<g transform="translate(262, 169) rotate(22.0)" class="key keypos-14">
<rect rx="6" ry="6" x="-26" y="-26" width="52" height="52" class="key"/>
<text x="0" y="0" class="key tap">+</text>
</g>
<g transform="translate(458, 169) rotate(-22.0)" class="key keypos-15">
<rect rx="6" ry="6" x="-26" y="-26" width="52" height="52" class="key"/>
<text x="0" y="0" class="key tap">⇞</text>
</g>
<g transform="translate(505, 134) rotate(-22.0)" class="key keypos-16">
<rect rx="6" ry="6" x="-26" y="-26" width="52" height="52" class="key"/>
<text x="0" y="0" class="key tap">←</text>
</g>
<g transform="translate(554, 88) rotate(-18.0)" class="key keypos-17">
<rect rx="6" ry="6" x="-26" y="-26" width="52" height="52" class="key"/>
<text x="0" y="0" class="key tap">↓</text>
</g>
<g transform="translate(622, 93) rotate(-10.0)" class="key keypos-18">
<rect rx="6" ry="6" x="-26" y="-26" width="52" height="52" class="key"/>
<text x="0" y="0" class="key tap">→</text>
</g>
<g transform="translate(692, 119)" class="key keypos-19">
<rect rx="6" ry="6" x="-26" y="-26" width="52" height="52" class="key"/>
<text x="0" y="0" class="key tap">
<tspan x="0" dy="-0.6em">VOL</tspan><tspan x="0" dy="1.2em">UP</tspan>
</text>
</g>
<g transform="translate(28, 175)" class="key keypos-20">
<rect rx="6" ry="6" x="-26" y="-26" width="52" height="52" class="key"/>
<text x="0" y="0" class="key tap">.</text>
</g>
<g transform="translate(88, 148) rotate(10.0)" class="key keypos-21">
<rect rx="6" ry="6" x="-26" y="-26" width="52" height="52" class="key"/>
<text x="0" y="0" class="key tap">7</text>
</g>
<g transform="translate(150, 142) rotate(18.0)" class="key keypos-22">
<rect rx="6" ry="6" x="-26" y="-26" width="52" height="52" class="key"/>
<text x="0" y="0" class="key tap">8</text>
</g>
<g transform="translate(195, 186) rotate(22.0)" class="key keypos-23">
<rect rx="6" ry="6" x="-26" y="-26" width="52" height="52" class="key"/>
<text x="0" y="0" class="key tap">9</text>
</g>
<g transform="translate(242, 221) rotate(22.0)" class="key keypos-24">
<rect rx="6" ry="6" x="-26" y="-26" width="52" height="52" class="key"/>
<text x="0" y="0" class="key tap">-</text>
</g>
<g transform="translate(477, 221) rotate(-22.0)" class="key keypos-25">
<rect rx="6" ry="6" x="-26" y="-26" width="52" height="52" class="key"/>
<text x="0" y="0" class="key tap">⇟</text>
</g>
<g transform="translate(524, 186) rotate(-22.0)" class="key keypos-26">
<rect rx="6" ry="6" x="-26" y="-26" width="52" height="52" class="key"/>
<text x="0" y="0" class="key tap">↞</text>
</g>
<g transform="translate(570, 142) rotate(-18.0)" class="key keypos-27">
<rect rx="6" ry="6" x="-26" y="-26" width="52" height="52" class="key"/>
<text x="0" y="0" class="key tap">⏎</text>
</g>
<g transform="translate(632, 148) rotate(-10.0)" class="key keypos-28">
<rect rx="6" ry="6" x="-26" y="-26" width="52" height="52" class="key"/>
<text x="0" y="0" class="key tap">↠</text>
</g>
<g transform="translate(692, 175)" class="key keypos-29">
<rect rx="6" ry="6" x="-26" y="-26" width="52" height="52" class="key"/>
<text x="0" y="0" class="key tap">
<tspan x="0" dy="-0.6em">VOL</tspan><tspan x="0" dy="1.2em">DOWN</tspan>
</text>
</g>
<g transform="translate(143, 241) rotate(22.0)" class="key trans keypos-30">
<rect rx="6" ry="6" x="-26" y="-26" width="52" height="52" class="key trans"/>
<text x="0" y="0" class="key trans tap">▽</text>
</g>
<g transform="translate(199, 274) rotate(37.0)" class="key keypos-31">
<rect rx="6" ry="6" x="-26" y="-26" width="52" height="52" class="key"/>
<text x="0" y="0" class="key tap">0</text>
<text x="0" y="24" class="key hold">⇧</text>
</g>
<g transform="translate(244, 320) rotate(38.0)" class="key trans keypos-32">
<rect rx="6" ry="6" x="-26" y="-26" width="52" height="52" class="key trans"/>
<text x="0" y="0" class="key trans tap">▽</text>
</g>
<g transform="translate(475, 320) rotate(-38.0)" class="key trans keypos-33">
<rect rx="6" ry="6" x="-26" y="-26" width="52" height="52" class="key trans"/>
<text x="0" y="0" class="key trans tap">▽</text>
</g>
<g transform="translate(521, 274) rotate(-37.0)" class="key trans keypos-34">
<rect rx="6" ry="6" x="-26" y="-26" width="52" height="52" class="key trans"/>
<text x="0" y="0" class="key trans tap">▽</text>
</g>
<g transform="translate(576, 241) rotate(-22.0)" class="key held keypos-35">
<rect rx="6" ry="6" x="-26" y="-26" width="52" height="52" class="key held"/>
</g>
<g class="combo combopos-0">
<path d="M169,214 h21 a6.0,6.0 0 0 0 6.0,-6.0 v-3" class="combo"/>
<path d="M169,214 h-13 a6.0,6.0 0 0 1 -6.0,-6.0 v-48" class="combo"/>
<path d="M169,214 h-75 a6.0,6.0 0 0 1 -6.0,-6.0 v-41" class="combo"/>
<rect rx="6" ry="6" x="155" y="207" width="28" height="15" class="combo"/>
<text x="169" y="214" class="combo tap">↹</text>
</g>
<g class="combo combopos-1">
<path d="M605,214 h-75 a6.0,6.0 0 0 1 -6.0,-6.0 v-3" class="combo"/>
<path d="M605,214 h-29 a6.0,6.0 0 0 1 -6.0,-6.0 v-48" class="combo"/>
<path d="M605,214 h21 a6.0,6.0 0 0 0 6.0,-6.0 v-41" class="combo"/>
<rect rx="6" ry="6" x="591" y="207" width="28" height="15" class="combo"/>
<text x="605" y="214" class="combo tap">⏎</text>
</g>
<g class="combo combopos-2">
<rect rx="6" ry="6" x="49" y="93" width="28" height="26" class="combo"/>
<text x="63" y="106" class="combo tap">⎇</text>
</g>
<g class="combo combopos-3">
<rect rx="6" ry="6" x="118" y="78" width="28" height="26" class="combo"/>
<text x="132" y="91" class="combo tap">⌃</text>
</g>
<g class="combo combopos-4">
<rect rx="6" ry="6" x="176" y="98" width="28" height="26" class="combo"/>
<text x="190" y="111" class="combo tap">⌘</text>
</g>
<g class="combo combopos-5">
<rect rx="6" ry="6" x="643" y="93" width="28" height="26" class="combo"/>
<text x="657" y="106" class="combo tap">⎇</text>
</g>
<g class="combo combopos-6">
<rect rx="6" ry="6" x="574" y="78" width="28" height="26" class="combo"/>
<text x="588" y="91" class="combo tap">⌃</text>
</g>
<g class="combo combopos-7">
<rect rx="6" ry="6" x="515" y="98" width="28" height="26" class="combo"/>
<text x="529" y="111" class="combo tap">⌘</text>
</g>
<g class="combo combopos-8">
<rect rx="6" ry="6" x="14" y="78" width="28" height="26" class="combo"/>
<text x="28" y="91" class="combo tap">`</text>
</g>
<g class="combo combopos-9">
<rect rx="6" ry="6" x="88" y="53" width="28" height="26" class="combo"/>
<text x="102" y="66" class="combo tap">@</text>
</g>
<g class="combo combopos-10">
<rect rx="6" ry="6" x="160" y="49" width="28" height="26" class="combo"/>
<text x="174" y="62" class="combo tap">£</text>
</g>
<g class="combo combopos-11">
<rect rx="6" ry="6" x="211" y="95" width="28" height="26" class="combo"/>
<text x="225" y="108" class="combo tap">$</text>
</g>
<g class="combo combopos-12">
<rect rx="6" ry="6" x="258" y="130" width="28" height="26" class="combo"/>
<text x="272" y="143" class="combo tap">%</text>
</g>
<g class="combo combopos-13">
<path d="M291,195 v-20 a6.0,6.0 0 0 0 -6.0,-6.0 h-4" class="combo"/>
<path d="M291,195 v20 a6.0,6.0 0 0 1 -6.0,6.0 h-24" class="combo"/>
<rect rx="6" ry="6" x="277" y="182" width="28" height="26" class="combo"/>
<text x="291" y="195" class="combo tap">\|</text>
</g>
<g class="combo combopos-14">
<path d="M429,195 v-20 a6.0,6.0 0 0 1 6.0,-6.0 h4" class="combo"/>
<path d="M429,195 v20 a6.0,6.0 0 0 0 6.0,6.0 h24" class="combo"/>
<rect rx="6" ry="6" x="415" y="182" width="28" height="26" class="combo"/>
<text x="429" y="195" class="combo tap">/?</text>
</g>
<g class="combo combopos-15">
<rect rx="6" ry="6" x="433" y="130" width="28" height="26" class="combo"/>
<text x="447" y="143" class="combo tap">^</text>
</g>
<g class="combo combopos-16">
<rect rx="6" ry="6" x="480" y="95" width="28" height="26" class="combo"/>
<text x="494" y="108" class="combo tap">&amp;</text>
</g>
<g class="combo combopos-17">
<rect rx="6" ry="6" x="531" y="49" width="28" height="26" class="combo"/>
<text x="545" y="62" class="combo tap">#</text>
</g>
<g class="combo combopos-18">
<rect rx="6" ry="6" x="604" y="53" width="28" height="26" class="combo"/>
<text x="618" y="66" class="combo tap">!</text>
</g>
<g class="combo combopos-19">
<rect rx="6" ry="6" x="678" y="78" width="28" height="26" class="combo"/>
<text x="692" y="91" class="combo tap">~</text>
</g>
<g class="combo combopos-20">
<rect rx="6" ry="6" x="244" y="87" width="28" height="26" class="combo"/>
<text x="258" y="100" class="combo tap">{</text>
</g>
<g class="combo combopos-21">
<rect rx="6" ry="6" x="447" y="87" width="28" height="26" class="combo"/>
<text x="461" y="100" class="combo tap">}</text>
</g>
<g class="combo combopos-22">
<rect rx="6" ry="6" x="225" y="139" width="28" height="26" class="combo"/>
<text x="239" y="152" class="combo tap">(&lt;</text>
</g>
<g class="combo combopos-23">
<rect rx="6" ry="6" x="467" y="139" width="28" height="26" class="combo"/>
<text x="481" y="152" class="combo tap">)&gt;</text>
</g>
<g class="combo combopos-24">
<rect rx="6" ry="6" x="205" y="191" width="28" height="26" class="combo"/>
<text x="219" y="204" class="combo tap">[{</text>
</g>
<g class="combo combopos-25">
<rect rx="6" ry="6" x="487" y="191" width="28" height="26" class="combo"/>
<text x="501" y="204" class="combo tap">]}</text>
</g>
<g class="combo combopos-26">
<rect rx="6" ry="6" x="53" y="37" width="28" height="26" class="combo"/>
<text x="67" y="50" class="combo tap">BT</text>
<text x="67" y="61" class="combo hold">0</text>
</g>
<g class="combo combopos-27">
<rect rx="6" ry="6" x="130" y="24" width="28" height="26" class="combo"/>
<text x="144" y="37" class="combo tap">BT</text>
<text x="144" y="48" class="combo hold">1</text>
</g>
<g class="combo combopos-28">
<rect rx="6" ry="6" x="195" y="46" width="28" height="26" class="combo"/>
<text x="209" y="59" class="combo tap">BT</text>
<text x="209" y="70" class="combo hold">2</text>
</g>
<g class="combo combopos-29">
<rect rx="6" ry="6" x="497" y="46" width="28" height="26" class="combo"/>
<text x="511" y="59" class="combo tap">
<tspan x="511" dy="-0.6em">BT</tspan><tspan x="511" dy="1.2em">CLR</tspan>
</text>
</g>
<g class="combo combopos-30">
<rect rx="6" ry="6" x="561" y="24" width="28" height="26" class="combo"/>
<text x="575" y="37" class="combo tap">
<tspan x="575" dy="-0.6em">BT</tspan><tspan x="575" dy="1.2em">…</tspan>
</text>
</g>
</g>
</g>
</svg>
