<svg width="791" height="1399" viewBox="0 0 791 1399" class="keymap" xmlns="http://www.w3.org/2000/svg" xmlns:xlink="http://www.w3.org/1999/xlink">
<style>/* inherit to force styles through use tags*/
svg path {
    fill: inherit;
}
/* font and background color specifications */
svg.keymap {
    font-family: SFMono-Regular,Consolas,Liberation Mono,Menlo,monospace;
    font-size: 14px;
    font-kerning: normal;
    text-rendering: optimizeLegibility;
    fill: #24292e;
}

/* default key styling */
rect.key {
    fill: #f6f8fa;
    stroke: #c9cccf;
    stroke-width: 1;
}

/* color accent for combo boxes */
rect.combo {
    fill: #cdf;
}

/* color accent for held keys */
rect.held, rect.combo.held {
    fill: #fdd;
}

/* color accent for ghost (optional) keys */
rect.ghost, rect.combo.ghost {
    stroke-dasharray: 4, 4;
    stroke-width: 2;
}

text {
    text-anchor: middle;
    dominant-baseline: middle;
}

/* styling for layer labels */
text.label {
    font-weight: bold;
    text-anchor: start;
    stroke: white;
    stroke-width: 2;
    paint-order: stroke;
}

text.tap {
    font-size: 16px;
}

/* styling for combo tap, and key hold/shifted label text */
text.combo, text.hold, text.shifted {
    font-size: 11px;
}

text.hold {
    text-anchor: middle;
    dominant-baseline: auto;
}

text.shifted {
    text-anchor: middle;
    dominant-baseline: hanging;
}

/* styling for hold/shifted label text in combo box */
text.combo.hold, text.combo.shifted {
    font-size: 8px;
}

/* lighter symbol for transparent keys */
text.trans {
    fill: #7b7e81;
}

/* styling for combo dendrons */
path.combo {
    stroke-width: 1;
    stroke: gray;
    fill: none;
}

/* Start Tabler Icons Cleanup */
/* cannot use height/width with glyphs */
.icon-tabler > path {
    fill: inherit;
    stroke: inherit;
}
/* hide tabler's default box */
.icon-tabler > path[stroke="none"][fill="none"] {
    visibility: collapse;
}

rect.low {
    fill: #355978;
}
rect.medium-low {
    fill: #636696;
}
rect.medium {
    fill: #9E6DA4;
}
rect.medium-high {
    fill: #D7749D;
}
rect.high {
    fill: #FF8585;
}

/* green styling for Naginata kana-shift */
rect.kshift {
    fill: #00CC00;
}
text.left {
    font-size: 18px;
    translate: 16px 7px;
}
text.right {
    fill: #00CC00;
    font-size: 16px;
    translate: -16px -10px;
}
</style>
<g transform="translate(30, 0)" class="layer-HD Promethium">
<text x="0" y="28" class="label" id="HD-Promethium">HD Promethium</text>
<g transform="translate(0, 78)">
<g transform="translate(99, 50) rotate(32.0)" class="key keypos-0">
<rect rx="6" ry="6" x="-26" y="-40" width="52" height="80" class="key"/>
<text x="0" y="0" class="key tap">⎋</text>
</g>
<g transform="translate(161, 58) rotate(32.0)" class="key medium-low keypos-1">
<rect rx="6" ry="6" x="-26" y="-26" width="52" height="52" class="key medium-low"/>
<text x="0" y="0" class="key medium-low tap">pP</text>
</g>
<g transform="translate(230, 84) rotate(40.0)" class="key medium keypos-2">
<rect rx="6" ry="6" x="-26" y="-26" width="52" height="52" class="key medium"/>
<text x="0" y="0" class="key medium tap">gG</text>
</g>
<g transform="translate(262, 148) rotate(44.0)" class="key medium keypos-3">
<rect rx="6" ry="6" x="-26" y="-26" width="52" height="52" class="key medium"/>
<text x="0" y="0" class="key medium tap">mM</text>
</g>
<g transform="translate(285, 209) rotate(44.0)" class="key low keypos-4">
<rect rx="6" ry="6" x="-26" y="-26" width="52" height="52" class="key low"/>
<text x="0" y="0" class="key low tap">kK</text>
</g>
<g transform="translate(446, 209) rotate(-44.0)" class="key medium-low keypos-5">
<rect rx="6" ry="6" x="-26" y="-26" width="52" height="52" class="key medium-low"/>
<text x="0" y="0" class="key medium-low tap">.:</text>
</g>
<g transform="translate(469, 149) rotate(-44.0)" class="key keypos-6">
<rect rx="6" ry="6" x="-26" y="-26" width="52" height="52" class="key"/>
<text x="0" y="0" class="key tap">⌫</text>
<text x="0" y="24" class="key hold">Sft+⌫</text>
</g>
<g transform="translate(501, 85) rotate(-40.0)" class="key medium-low keypos-7">
<rect rx="6" ry="6" x="-26" y="-26" width="52" height="52" class="key medium-low"/>
<text x="0" y="0" class="key medium-low tap">&#x27;&quot;</text>
</g>
<g transform="translate(571, 57) rotate(-32.0)" class="key medium-low keypos-8">
<rect rx="6" ry="6" x="-26" y="-26" width="52" height="52" class="key medium-low"/>
<text x="0" y="0" class="key medium-low tap">-_</text>
</g>
<g transform="translate(632, 51) rotate(-32.0)" class="key low keypos-9">
<rect rx="6" ry="6" x="-26" y="-40" width="52" height="80" class="key low"/>
<text x="0" y="0" class="key low tap">=+</text>
</g>
<g transform="translate(55, 108) rotate(22.0)" class="key high keypos-10">
<rect rx="6" ry="6" x="-26" y="-26" width="52" height="52" class="key high"/>
<text x="0" y="0" class="key high tap">sS</text>
</g>
<g transform="translate(132, 103) rotate(32.0)" class="key high keypos-11">
<rect rx="6" ry="6" x="-26" y="-26" width="52" height="52" class="key high"/>
<text x="0" y="0" class="key high tap">nN</text>
</g>
<g transform="translate(197, 126) rotate(40.0)" class="key high keypos-12">
<rect rx="6" ry="6" x="-26" y="-26" width="52" height="52" class="key high"/>
<text x="0" y="0" class="key high tap">tT</text>
</g>
<g transform="translate(226, 188) rotate(44.0)" class="key high keypos-13">
<rect rx="6" ry="6" x="-26" y="-26" width="52" height="52" class="key high"/>
<text x="0" y="0" class="key high tap">hH</text>
</g>
<g transform="translate(249, 249) rotate(44.0)" class="key low keypos-14">
<rect rx="6" ry="6" x="-26" y="-26" width="52" height="52" class="key low"/>
<text x="0" y="0" class="key low tap">jJ</text>
</g>
<g transform="translate(482, 249) rotate(-44.0)" class="key medium-low keypos-15">
<rect rx="6" ry="6" x="-26" y="-26" width="52" height="52" class="key medium-low"/>
<text x="0" y="0" class="key medium-low tap">,;</text>
</g>
<g transform="translate(505, 188) rotate(-44.0)" class="key high keypos-16">
<rect rx="6" ry="6" x="-26" y="-26" width="52" height="52" class="key high"/>
<text x="0" y="0" class="key high tap">aA</text>
</g>
<g transform="translate(534, 126) rotate(-40.0)" class="key high keypos-17">
<rect rx="6" ry="6" x="-26" y="-26" width="52" height="52" class="key high"/>
<text x="0" y="0" class="key high tap">eE</text>
</g>
<g transform="translate(599, 104) rotate(-32.0)" class="key high keypos-18">
<rect rx="6" ry="6" x="-26" y="-26" width="52" height="52" class="key high"/>
<text x="0" y="0" class="key high tap">iI</text>
</g>
<g transform="translate(675, 108) rotate(-22.0)" class="key medium keypos-19">
<rect rx="6" ry="6" x="-26" y="-26" width="52" height="52" class="key medium"/>
<text x="0" y="0" class="key medium tap">cC</text>
</g>
<g transform="translate(36, 158) rotate(22.0)" class="key medium-low keypos-20">
<rect rx="6" ry="6" x="-26" y="-26" width="52" height="52" class="key medium-low"/>
<text x="0" y="0" class="key medium-low tap">bB</text>
</g>
<g transform="translate(104, 148) rotate(32.0)" class="key medium keypos-21">
<rect rx="6" ry="6" x="-26" y="-26" width="52" height="52" class="key medium"/>
<text x="0" y="0" class="key medium tap">fF</text>
</g>
<g transform="translate(164, 167) rotate(40.0)" class="key medium-high keypos-22">
<rect rx="6" ry="6" x="-26" y="-26" width="52" height="52" class="key medium-high"/>
<text x="0" y="0" class="key medium-high tap">dD</text>
</g>
<g transform="translate(190, 227) rotate(44.0)" class="key medium-high keypos-23">
<rect rx="6" ry="6" x="-26" y="-26" width="52" height="52" class="key medium-high"/>
<text x="0" y="0" class="key medium-high tap">lL</text>
</g>
<g transform="translate(210, 328) rotate(59.0)" class="key high keypos-24">
<rect rx="6" ry="6" x="-47" y="-26" width="94" height="52" class="key high"/>
<text x="0" y="0" class="key high tap">rR</text>
<text x="0" y="24" class="key high hold">⇧</text>
</g>
<g transform="translate(521, 328) rotate(-59.0)" class="key high keypos-25">
<rect rx="6" ry="6" x="-47" y="-26" width="94" height="52" class="key high"/>
<text x="0" y="0" class="key high tap">⎵R</text>
<text x="0" y="24" class="key high hold">Num+Nav</text>
</g>
<g transform="translate(540, 227) rotate(-44.0)" class="key medium-high keypos-26">
<rect rx="6" ry="6" x="-26" y="-26" width="52" height="52" class="key medium-high"/>
<text x="0" y="0" class="key medium-high tap">uU</text>
</g>
<g transform="translate(567, 168) rotate(-40.0)" class="key high keypos-27">
<rect rx="6" ry="6" x="-26" y="-26" width="52" height="52" class="key high"/>
<text x="0" y="0" class="key high tap">oO</text>
</g>
<g transform="translate(627, 149) rotate(-32.0)" class="key medium keypos-28">
<rect rx="6" ry="6" x="-26" y="-26" width="52" height="52" class="key medium"/>
<text x="0" y="0" class="key medium tap">yY</text>
</g>
<g transform="translate(694, 158) rotate(-22.0)" class="key medium keypos-29">
<rect rx="6" ry="6" x="-26" y="-26" width="52" height="52" class="key medium"/>
<text x="0" y="0" class="key medium tap">wW</text>
</g>
<g class="combo combopos-0">
<path d="M365,-9 h-261 a6.0,6.0 0 0 0 -6.0,6.0 v26" class="combo"/>
<path d="M365,-9 h261 a6.0,6.0 0 0 1 6.0,6.0 v26" class="combo"/>
<rect rx="6" ry="6" x="340" y="-22" width="50" height="26" class="combo"/>
<text x="365" y="-9" class="combo tap">
<tspan x="365" dy="-0.6em">Studio</tspan><tspan x="365" dy="1.2em">Unlock</tspan>
</text>
</g>
<g class="combo combopos-1">
<path d="M365,278 h-75 a6.0,6.0 0 0 1 -6.0,-6.0 v-44" class="combo"/>
<path d="M365,278 h75 a6.0,6.0 0 0 0 6.0,-6.0 v-44" class="combo"/>
<path d="M365,278 h-111 a6.0,6.0 0 0 1 -6.0,-6.0 v-4" class="combo"/>
<path d="M365,278 h110 a6.0,6.0 0 0 0 6.0,-6.0 v-4" class="combo"/>
<rect rx="6" ry="6" x="340" y="265" width="50" height="26" class="combo"/>
<text x="365" y="278" class="combo tap">
<tspan x="365" dy="-0.6em">Boot</tspan><tspan x="365" dy="1.2em">loader</tspan>
</text>
</g>
<g class="combo combopos-2">
<path d="M575,216 h-65 a6.0,6.0 0 0 1 -6.0,-6.0 v-3" class="combo"/>
<path d="M575,216 h18 a6.0,6.0 0 0 0 6.0,-6.0 v-88" class="combo"/>
<rect rx="6" ry="6" x="561" y="209" width="28" height="15" class="combo"/>
<text x="575" y="216" class="combo tap">かな</text>
</g>
<g class="combo combopos-3">
<path d="M155,215 h65 a6.0,6.0 0 0 0 6.0,-6.0 v-3" class="combo"/>
<path d="M155,215 h-18 a6.0,6.0 0 0 1 -6.0,-6.0 v-88" class="combo"/>
<rect rx="6" ry="6" x="141" y="208" width="28" height="15" class="combo"/>
<text x="155" y="215" class="combo tap">ABC</text>
</g>
<g class="combo combopos-4">
<path d="M169,255 h16 a6.0,6.0 0 0 0 6.0,-6.0 v-3" class="combo"/>
<path d="M169,255 l-4,-69" class="combo"/>
<path d="M169,255 h-59 a6.0,6.0 0 0 1 -6.0,-6.0 v-82" class="combo"/>
<rect rx="6" ry="6" x="155" y="247" width="28" height="15" class="combo"/>
<text x="169" y="255" class="combo tap">↹</text>
</g>
<g class="combo combopos-5">
<path d="M605,255 h-59 a6.0,6.0 0 0 1 -6.0,-6.0 v-3" class="combo"/>
<path d="M605,255 h-33 a6.0,6.0 0 0 1 -6.0,-6.0 v-63" class="combo"/>
<path d="M605,255 h16 a6.0,6.0 0 0 0 6.0,-6.0 v-82" class="combo"/>
<rect rx="6" ry="6" x="591" y="248" width="28" height="15" class="combo"/>
<text x="605" y="255" class="combo tap">⏎</text>
</g>
<g class="combo combopos-6">
<rect rx="6" ry="6" x="80" y="92" width="28" height="26" class="combo"/>
<text x="94" y="105" class="combo tap">⎇</text>
</g>
<g class="combo combopos-7">
<rect rx="6" ry="6" x="623" y="93" width="28" height="26" class="combo"/>
<text x="637" y="106" class="combo tap">⎇</text>
</g>
<g class="combo combopos-8">
<rect rx="6" ry="6" x="150" y="102" width="28" height="26" class="combo"/>
<text x="164" y="115" class="combo tap">⌃</text>
</g>
<g class="combo combopos-9">
<rect rx="6" ry="6" x="552" y="102" width="28" height="26" class="combo"/>
<text x="566" y="115" class="combo tap">⌃</text>
</g>
<g class="combo combopos-10">
<rect rx="6" ry="6" x="198" y="144" width="28" height="26" class="combo"/>
<text x="212" y="157" class="combo tap">⌘</text>
</g>
<g class="combo combopos-11">
<rect rx="6" ry="6" x="505" y="144" width="28" height="26" class="combo"/>
<text x="519" y="157" class="combo tap">⌘</text>
</g>
<g class="combo combopos-18">
<rect rx="6" ry="6" x="163" y="184" width="28" height="26" class="combo"/>
<text x="177" y="197" class="combo tap">⇧</text>
</g>
<g class="combo combopos-19">
<rect rx="6" ry="6" x="539" y="185" width="28" height="26" class="combo"/>
<text x="553" y="198" class="combo tap">⇧</text>
</g>
<g class="combo low combopos-20">
<rect rx="6" ry="6" x="232" y="103" width="28" height="26" class="combo low"/>
<text x="246" y="116" class="combo low tap">qQ</text>
</g>
<g class="combo low combopos-21">
<rect rx="6" ry="6" x="522" y="58" width="28" height="26" class="combo low"/>
<text x="536" y="71" class="combo low tap">zZ</text>
</g>
<g class="combo low combopos-22">
<rect rx="6" ry="6" x="182" y="58" width="28" height="26" class="combo low"/>
<text x="196" y="71" class="combo low tap">vV</text>
</g>
<g class="combo low combopos-23">
<rect rx="6" ry="6" x="120" y="145" width="28" height="26" class="combo low"/>
<text x="134" y="158" class="combo low tap">xX</text>
</g>
<g class="combo combopos-24">
<path d="M365,328 l-123,0" class="combo"/>
<path d="M365,328 l123,0" class="combo"/>
<rect rx="6" ry="6" x="351" y="315" width="28" height="26" class="combo"/>
<text x="365" y="328" class="combo tap">⇪</text>
</g>
<g class="combo combopos-25">
<rect rx="6" ry="6" x="63" y="66" width="28" height="26" class="combo"/>
<text x="77" y="79" class="combo tap">`</text>
</g>
<g class="combo combopos-26">
<rect rx="6" ry="6" x="132" y="68" width="28" height="26" class="combo"/>
<text x="146" y="81" class="combo tap">@</text>
</g>
<g class="combo combopos-27">
<rect rx="6" ry="6" x="200" y="92" width="28" height="26" class="combo"/>
<text x="214" y="105" class="combo tap">|</text>
</g>
<g class="combo combopos-28">
<rect rx="6" ry="6" x="230" y="155" width="28" height="26" class="combo"/>
<text x="244" y="168" class="combo tap">$</text>
</g>
<g class="combo combopos-29">
<rect rx="6" ry="6" x="259" y="166" width="28" height="26" class="combo"/>
<text x="273" y="179" class="combo tap">\</text>
</g>
<g class="combo combopos-30">
<path d="M314,229 v-14 a6.0,6.0 0 0 0 -6.0,-6.0 h-4" class="combo"/>
<path d="M314,229 v14 a6.0,6.0 0 0 1 -6.0,6.0 h-40" class="combo"/>
<rect rx="6" ry="6" x="300" y="216" width="28" height="26" class="combo"/>
<text x="314" y="229" class="combo tap">%</text>
</g>
<g class="combo combopos-31">
<rect rx="6" ry="6" x="444" y="166" width="28" height="26" class="combo"/>
<text x="458" y="179" class="combo tap">/</text>
</g>
<g class="combo combopos-32">
<path d="M417,229 v-14 a6.0,6.0 0 0 1 6.0,-6.0 h4" class="combo"/>
<path d="M417,229 v14 a6.0,6.0 0 0 0 6.0,6.0 h40" class="combo"/>
<rect rx="6" ry="6" x="403" y="216" width="28" height="26" class="combo"/>
<text x="417" y="229" class="combo tap">^</text>
</g>
<g class="combo combopos-33">
<rect rx="6" ry="6" x="473" y="156" width="28" height="26" class="combo"/>
<text x="487" y="169" class="combo tap">?</text>
</g>
<g class="combo combopos-34">
<rect rx="6" ry="6" x="503" y="92" width="28" height="26" class="combo"/>
<text x="517" y="105" class="combo tap">#</text>
</g>
<g class="combo combopos-35">
<rect rx="6" ry="6" x="571" y="68" width="28" height="26" class="combo"/>
<text x="585" y="81" class="combo tap">!</text>
</g>
<g class="combo combopos-36">
<rect rx="6" ry="6" x="639" y="66" width="28" height="26" class="combo"/>
<text x="653" y="79" class="combo tap">~</text>
</g>
<g class="combo combopos-37">
<rect rx="6" ry="6" x="241" y="186" width="28" height="26" class="combo"/>
<text x="255" y="199" class="combo tap">{</text>
</g>
<g class="combo combopos-38">
<rect rx="6" ry="6" x="461" y="186" width="28" height="26" class="combo"/>
<text x="475" y="199" class="combo tap">}</text>
</g>
<g class="combo combopos-39">
<rect rx="6" ry="6" x="223" y="205" width="28" height="26" class="combo"/>
<text x="237" y="218" class="combo tap">(&lt;</text>
</g>
<g class="combo combopos-40">
<rect rx="6" ry="6" x="479" y="205" width="28" height="26" class="combo"/>
<text x="493" y="218" class="combo tap">)&gt;</text>
</g>
<g class="combo combopos-41">
<rect rx="6" ry="6" x="206" y="225" width="28" height="26" class="combo"/>
<text x="220" y="238" class="combo tap">[{</text>
</g>
<g class="combo combopos-42">
<rect rx="6" ry="6" x="497" y="225" width="28" height="26" class="combo"/>
<text x="511" y="238" class="combo tap">]}</text>
</g>
</g>
</g>
<g transform="translate(30, 463)" class="layer-Naginata">
<text x="0" y="28" class="label" id="Naginata">Naginata</text>
<g transform="translate(0, 56)">
<g transform="translate(99, 50) rotate(32.0)" class="key keypos-0">
<rect rx="6" ry="6" x="-26" y="-40" width="52" height="80" class="key"/>
<text x="0" y="0" class="key tap">⎋</text>
<text x="0" y="38" class="key hold"><tspan style="font-size: 70%">Small-kana</tspan></text>
</g>
<g transform="translate(161, 58) rotate(32.0)" class="key keypos-1">
<rect rx="6" ry="6" x="-26" y="-26" width="52" height="52" class="key"/>
<text x="-24" y="0" class="key left">き</text>
<text x="24" y="0" class="key right">め</text>
</g>
<g transform="translate(230, 84) rotate(40.0)" class="key keypos-2">
<rect rx="6" ry="6" x="-26" y="-26" width="52" height="52" class="key"/>
<text x="-24" y="0" class="key left">て</text>
<text x="24" y="0" class="key right">り</text>
</g>
<g transform="translate(262, 148) rotate(44.0)" class="key keypos-3">
<rect rx="6" ry="6" x="-26" y="-26" width="52" height="52" class="key"/>
<text x="-24" y="0" class="key left">し</text>
<text x="24" y="0" class="key right">ね</text>
</g>
<g transform="translate(285, 209) rotate(44.0)" class="key keypos-4">
<rect rx="6" ry="6" x="-26" y="-26" width="52" height="52" class="key"/>
<text x="-24" y="0" class="key left">そ</text>
<text x="24" y="0" class="key right">ぬ</text>
</g>
<g transform="translate(446, 209) rotate(-44.0)" class="key keypos-5">
<rect rx="6" ry="6" x="-26" y="-26" width="52" height="52" class="key"/>
<text x="-24" y="0" class="key left">た</text>
<text x="24" y="0" class="key right">お</text>
</g>
<g transform="translate(469, 149) rotate(-44.0)" class="key keypos-6">
<rect rx="6" ry="6" x="-26" y="-26" width="52" height="52" class="key"/>
<text x="-24" y="0" class="key left">⌫</text>
<text x="24" y="0" class="key right">さ</text>
</g>
<g transform="translate(501, 85) rotate(-40.0)" class="key keypos-7">
<rect rx="6" ry="6" x="-26" y="-26" width="52" height="52" class="key"/>
<text x="-24" y="0" class="key left">る</text>
<text x="24" y="0" class="key right">よ</text>
</g>
<g transform="translate(571, 57) rotate(-32.0)" class="key keypos-8">
<rect rx="6" ry="6" x="-26" y="-26" width="52" height="52" class="key"/>
<text x="-24" y="0" class="key left">す</text>
<text x="24" y="0" class="key right">え</text>
</g>
<g transform="translate(632, 51) rotate(-32.0)" class="key keypos-9">
<rect rx="6" ry="6" x="-26" y="-40" width="52" height="80" class="key"/>
<text x="-24" y="0" class="key left">へ</text>
<text x="24" y="0" class="key right">ゆ</text>
</g>
<g transform="translate(55, 108) rotate(22.0)" class="key keypos-10">
<rect rx="6" ry="6" x="-26" y="-26" width="52" height="52" class="key"/>
<text x="-24" y="0" class="key left">ろ</text>
<text x="24" y="0" class="key right">せ</text>
</g>
<g transform="translate(132, 103) rotate(32.0)" class="key keypos-11">
<rect rx="6" ry="6" x="-26" y="-26" width="52" height="52" class="key"/>
<text x="-24" y="0" class="key left">け</text>
<text x="24" y="0" class="key right">み</text>
</g>
<g transform="translate(197, 126) rotate(40.0)" class="key keypos-12">
<rect rx="6" ry="6" x="-26" y="-26" width="52" height="52" class="key"/>
<text x="-24" y="0" class="key left">と</text>
<text x="24" y="0" class="key right">に</text>
</g>
<g transform="translate(226, 188) rotate(44.0)" class="key keypos-13">
<rect rx="6" ry="6" x="-26" y="-26" width="52" height="52" class="key"/>
<text x="0" y="24" class="key hold">濁音</text>
<text x="-24" y="0" class="key left">か</text>
<text x="24" y="0" class="key right">ま</text>
</g>
<g transform="translate(249, 249) rotate(44.0)" class="key keypos-14">
<rect rx="6" ry="6" x="-26" y="-26" width="52" height="52" class="key"/>
<text x="-24" y="0" class="key left">っ</text>
<text x="24" y="0" class="key right">ち</text>
</g>
<g transform="translate(482, 249) rotate(-44.0)" class="key keypos-15">
<rect rx="6" ry="6" x="-26" y="-26" width="52" height="52" class="key"/>
<text x="-24" y="0" class="key left">く</text>
<text x="24" y="0" class="key right">や</text>
</g>
<g transform="translate(505, 188) rotate(-44.0)" class="key keypos-16">
<rect rx="6" ry="6" x="-26" y="-26" width="52" height="52" class="key"/>
<text x="0" y="24" class="key hold">濁音</text>
<text x="-24" y="0" class="key left">あ</text>
<text x="24" y="0" class="key right">の</text>
</g>
<g transform="translate(534, 126) rotate(-40.0)" class="key keypos-17">
<rect rx="6" ry="6" x="-26" y="-26" width="52" height="52" class="key"/>
<text x="-24" y="0" class="key left">い</text>
<text x="24" y="0" class="key right">も</text>
</g>
<g transform="translate(599, 104) rotate(-32.0)" class="key keypos-18">
<rect rx="6" ry="6" x="-26" y="-26" width="52" height="52" class="key"/>
<text x="-24" y="0" class="key left">う</text>
<text x="24" y="0" class="key right">つ</text>
</g>
<g transform="translate(675, 108) rotate(-22.0)" class="key keypos-19">
<rect rx="6" ry="6" x="-26" y="-26" width="52" height="52" class="key"/>
<text x="-24" y="0" class="key left">ー</text>
<text x="24" y="0" class="key right">ふ</text>
</g>
<g transform="translate(36, 158) rotate(22.0)" class="key keypos-20">
<rect rx="6" ry="6" x="-26" y="-26" width="52" height="52" class="key"/>
<text x="-24" y="0" class="key left">ほ</text>
</g>
<g transform="translate(104, 148) rotate(32.0)" class="key keypos-21">
<rect rx="6" ry="6" x="-26" y="-26" width="52" height="52" class="key"/>
<text x="-24" y="0" class="key left">ひ</text>
</g>
<g transform="translate(164, 167) rotate(40.0)" class="key keypos-22">
<rect rx="6" ry="6" x="-26" y="-26" width="52" height="52" class="key"/>
<text x="-24" y="0" class="key left">は</text>
<text x="24" y="0" class="key right">を</text>
</g>
<g transform="translate(190, 227) rotate(44.0)" class="key keypos-23">
<rect rx="6" ry="6" x="-26" y="-26" width="52" height="52" class="key"/>
<text x="0" y="24" class="key hold">半濁音</text>
<text x="-24" y="0" class="key left">こ</text>
<text x="24" y="0" class="key right">、</text>
</g>
<g transform="translate(210, 328) rotate(59.0)" class="key kshift keypos-24">
<rect rx="6" ry="6" x="-47" y="-26" width="94" height="52" class="key kshift"/>
<text x="0" y="0" class="key kshift tap">⇧+⎵</text>
<text x="0" y="24" class="key kshift hold"><tspan style="font-size: 70%">Kana-Shift</tspan></text>
</g>
<g transform="translate(521, 328) rotate(-59.0)" class="key keypos-25">
<rect rx="6" ry="6" x="-47" y="-26" width="94" height="52" class="key"/>
<text x="0" y="0" class="key tap">⎵</text>
<text x="0" y="24" class="key hold">Num+Nav</text>
</g>
<g transform="translate(540, 227) rotate(-44.0)" class="key keypos-26">
<rect rx="6" ry="6" x="-26" y="-26" width="52" height="52" class="key"/>
<text x="0" y="24" class="key hold">半濁音</text>
<text x="-24" y="0" class="key left">な</text>
<text x="24" y="0" class="key right">。</text>
</g>
<g transform="translate(567, 168) rotate(-40.0)" class="key keypos-27">
<rect rx="6" ry="6" x="-26" y="-26" width="52" height="52" class="key"/>
<text x="-24" y="0" class="key left">ん</text>
<text x="24" y="0" class="key right">む</text>
</g>
<g transform="translate(627, 149) rotate(-32.0)" class="key keypos-28">
<rect rx="6" ry="6" x="-26" y="-26" width="52" height="52" class="key"/>
<text x="-24" y="0" class="key left">ら</text>
<text x="24" y="0" class="key right">わ</text>
</g>
<g transform="translate(694, 158) rotate(-22.0)" class="key keypos-29">
<rect rx="6" ry="6" x="-26" y="-26" width="52" height="52" class="key"/>
<text x="-24" y="0" class="key left">れ</text>
</g>
<g class="combo combopos-0">
<path d="M575,216 h-65 a6.0,6.0 0 0 1 -6.0,-6.0 v-3" class="combo"/>
<path d="M575,216 h18 a6.0,6.0 0 0 0 6.0,-6.0 v-88" class="combo"/>
<rect rx="6" ry="6" x="561" y="209" width="28" height="15" class="combo"/>
<text x="575" y="216" class="combo tap">かな</text>
</g>
<g class="combo combopos-1">
<path d="M155,215 h65 a6.0,6.0 0 0 0 6.0,-6.0 v-3" class="combo"/>
<path d="M155,215 h-18 a6.0,6.0 0 0 1 -6.0,-6.0 v-88" class="combo"/>
<rect rx="6" ry="6" x="141" y="208" width="28" height="15" class="combo"/>
<text x="155" y="215" class="combo tap">ABC</text>
</g>
<g class="combo combopos-2">
<path d="M169,255 h16 a6.0,6.0 0 0 0 6.0,-6.0 v-3" class="combo"/>
<path d="M169,255 l-4,-69" class="combo"/>
<path d="M169,255 h-59 a6.0,6.0 0 0 1 -6.0,-6.0 v-82" class="combo"/>
<rect rx="6" ry="6" x="155" y="247" width="28" height="15" class="combo"/>
<text x="169" y="255" class="combo tap">↹</text>
</g>
<g class="combo combopos-3">
<path d="M605,255 h-59 a6.0,6.0 0 0 1 -6.0,-6.0 v-3" class="combo"/>
<path d="M605,255 h-33 a6.0,6.0 0 0 1 -6.0,-6.0 v-63" class="combo"/>
<path d="M605,255 h16 a6.0,6.0 0 0 0 6.0,-6.0 v-82" class="combo"/>
<rect rx="6" ry="6" x="591" y="248" width="28" height="15" class="combo"/>
<text x="605" y="255" class="combo tap">⏎</text>
</g>
</g>
</g>
<g transform="translate(30, 903)" class="layer-Num + Nav">
<text x="0" y="28" class="label" id="Num--Nav">Num + Nav</text>
<g transform="translate(0, 56)">
<g transform="translate(99, 50) rotate(32.0)" class="key keypos-0">
<rect rx="6" ry="6" x="-26" y="-40" width="52" height="80" class="key"/>
<text x="0" y="0" class="key tap">/</text>
</g>
<g transform="translate(161, 58) rotate(32.0)" class="key keypos-1">
<rect rx="6" ry="6" x="-26" y="-26" width="52" height="52" class="key"/>
<text x="0" y="0" class="key tap">1</text>
</g>
<g transform="translate(230, 84) rotate(40.0)" class="key keypos-2">
<rect rx="6" ry="6" x="-26" y="-26" width="52" height="52" class="key"/>
<text x="0" y="0" class="key tap">2</text>
</g>
<g transform="translate(262, 148) rotate(44.0)" class="key keypos-3">
<rect rx="6" ry="6" x="-26" y="-26" width="52" height="52" class="key"/>
<text x="0" y="0" class="key tap">3</text>
</g>
<g transform="translate(285, 209) rotate(44.0)" class="key keypos-4">
<rect rx="6" ry="6" x="-26" y="-26" width="52" height="52" class="key"/>
<text x="0" y="0" class="key tap">=</text>
</g>
<g transform="translate(446, 209) rotate(-44.0)" class="key keypos-5">
<rect rx="6" ry="6" x="-26" y="-26" width="52" height="52" class="key"/>
<text x="0" y="0" class="key tap">⎋</text>
</g>
<g transform="translate(469, 149) rotate(-44.0)" class="key keypos-6">
<rect rx="6" ry="6" x="-26" y="-26" width="52" height="52" class="key"/>
<text x="0" y="0" class="key tap">⌫</text>
</g>
<g transform="translate(501, 85) rotate(-40.0)" class="key keypos-7">
<rect rx="6" ry="6" x="-26" y="-26" width="52" height="52" class="key"/>
<text x="0" y="0" class="key tap">↑</text>
</g>
<g transform="translate(571, 57) rotate(-32.0)" class="key keypos-8">
<rect rx="6" ry="6" x="-26" y="-26" width="52" height="52" class="key"/>
<text x="0" y="0" class="key tap">_</text>
</g>
<g transform="translate(632, 51) rotate(-32.0)" class="key keypos-9">
<rect rx="6" ry="6" x="-26" y="-40" width="52" height="80" class="key"/>
<text x="0" y="0" class="key tap">⏯</text>
</g>
<g transform="translate(55, 108) rotate(22.0)" class="key keypos-10">
<rect rx="6" ry="6" x="-26" y="-26" width="52" height="52" class="key"/>
<text x="0" y="0" class="key tap">*</text>
</g>
<g transform="translate(132, 103) rotate(32.0)" class="key keypos-11">
<rect rx="6" ry="6" x="-26" y="-26" width="52" height="52" class="key"/>
<text x="0" y="0" class="key tap">4</text>
</g>
<g transform="translate(197, 126) rotate(40.0)" class="key keypos-12">
<rect rx="6" ry="6" x="-26" y="-26" width="52" height="52" class="key"/>
<text x="0" y="0" class="key tap">5</text>
</g>
<g transform="translate(226, 188) rotate(44.0)" class="key keypos-13">
<rect rx="6" ry="6" x="-26" y="-26" width="52" height="52" class="key"/>
<text x="0" y="0" class="key tap">6</text>
</g>
<g transform="translate(249, 249) rotate(44.0)" class="key keypos-14">
<rect rx="6" ry="6" x="-26" y="-26" width="52" height="52" class="key"/>
<text x="0" y="0" class="key tap">+</text>
</g>
<g transform="translate(482, 249) rotate(-44.0)" class="key keypos-15">
<rect rx="6" ry="6" x="-26" y="-26" width="52" height="52" class="key"/>
<text x="0" y="0" class="key tap">⇞</text>
</g>
<g transform="translate(505, 188) rotate(-44.0)" class="key keypos-16">
<rect rx="6" ry="6" x="-26" y="-26" width="52" height="52" class="key"/>
<text x="0" y="0" class="key tap">←</text>
</g>
<g transform="translate(534, 126) rotate(-40.0)" class="key keypos-17">
<rect rx="6" ry="6" x="-26" y="-26" width="52" height="52" class="key"/>
<text x="0" y="0" class="key tap">↓</text>
</g>
<g transform="translate(599, 104) rotate(-32.0)" class="key keypos-18">
<rect rx="6" ry="6" x="-26" y="-26" width="52" height="52" class="key"/>
<text x="0" y="0" class="key tap">→</text>
</g>
<g transform="translate(675, 108) rotate(-22.0)" class="key keypos-19">
<rect rx="6" ry="6" x="-26" y="-26" width="52" height="52" class="key"/>
<text x="0" y="0" class="key tap">
<tspan x="0" dy="-0.6em">VOL</tspan><tspan x="0" dy="1.2em">UP</tspan>
</text>
</g>
<g transform="translate(36, 158) rotate(22.0)" class="key keypos-20">
<rect rx="6" ry="6" x="-26" y="-26" width="52" height="52" class="key"/>
<text x="0" y="0" class="key tap">.</text>
</g>
<g transform="translate(104, 148) rotate(32.0)" class="key keypos-21">
<rect rx="6" ry="6" x="-26" y="-26" width="52" height="52" class="key"/>
<text x="0" y="0" class="key tap">7</text>
</g>
<g transform="translate(164, 167) rotate(40.0)" class="key keypos-22">
<rect rx="6" ry="6" x="-26" y="-26" width="52" height="52" class="key"/>
<text x="0" y="0" class="key tap">8</text>
</g>
<g transform="translate(190, 227) rotate(44.0)" class="key keypos-23">
<rect rx="6" ry="6" x="-26" y="-26" width="52" height="52" class="key"/>
<text x="0" y="0" class="key tap">9</text>
</g>
<g transform="translate(210, 328) rotate(59.0)" class="key keypos-24">
<rect rx="6" ry="6" x="-47" y="-26" width="94" height="52" class="key"/>
<text x="0" y="0" class="key tap">0</text>
<text x="0" y="24" class="key hold">⇧</text>
</g>
<g transform="translate(521, 328) rotate(-59.0)" class="key trans keypos-25">
<rect rx="6" ry="6" x="-47" y="-26" width="94" height="52" class="key trans"/>
<text x="0" y="0" class="key trans tap">▽</text>
</g>
<g transform="translate(540, 227) rotate(-44.0)" class="key keypos-26">
<rect rx="6" ry="6" x="-26" y="-26" width="52" height="52" class="key"/>
<text x="0" y="0" class="key tap">↞</text>
</g>
<g transform="translate(567, 168) rotate(-40.0)" class="key keypos-27">
<rect rx="6" ry="6" x="-26" y="-26" width="52" height="52" class="key"/>
<text x="0" y="0" class="key tap">⏎</text>
</g>
<g transform="translate(627, 149) rotate(-32.0)" class="key keypos-28">
<rect rx="6" ry="6" x="-26" y="-26" width="52" height="52" class="key"/>
<text x="0" y="0" class="key tap">↠</text>
</g>
<g transform="translate(694, 158) rotate(-22.0)" class="key keypos-29">
<rect rx="6" ry="6" x="-26" y="-26" width="52" height="52" class="key"/>
<text x="0" y="0" class="key tap">
<tspan x="0" dy="-0.6em">VOL</tspan><tspan x="0" dy="1.2em">DOWN</tspan>
</text>
</g>
<g class="combo combopos-0">
<path d="M169,255 h16 a6.0,6.0 0 0 0 6.0,-6.0 v-3" class="combo"/>
<path d="M169,255 l-4,-69" class="combo"/>
<path d="M169,255 h-59 a6.0,6.0 0 0 1 -6.0,-6.0 v-82" class="combo"/>
<rect rx="6" ry="6" x="155" y="247" width="28" height="15" class="combo"/>
<text x="169" y="255" class="combo tap">↹</text>
</g>
<g class="combo combopos-1">
<path d="M605,255 h-59 a6.0,6.0 0 0 1 -6.0,-6.0 v-3" class="combo"/>
<path d="M605,255 h-33 a6.0,6.0 0 0 1 -6.0,-6.0 v-63" class="combo"/>
<path d="M605,255 h16 a6.0,6.0 0 0 0 6.0,-6.0 v-82" class="combo"/>
<rect rx="6" ry="6" x="591" y="248" width="28" height="15" class="combo"/>
<text x="605" y="255" class="combo tap">⏎</text>
</g>
<g class="combo combopos-2">
<rect rx="6" ry="6" x="80" y="92" width="28" height="26" class="combo"/>
<text x="94" y="105" class="combo tap">⎇</text>
</g>
<g class="combo combopos-3">
<rect rx="6" ry="6" x="623" y="93" width="28" height="26" class="combo"/>
<text x="637" y="106" class="combo tap">⎇</text>
</g>
<g class="combo combopos-4">
<rect rx="6" ry="6" x="150" y="102" width="28" height="26" class="combo"/>
<text x="164" y="115" class="combo tap">⌃</text>
</g>
<g class="combo combopos-5">
<rect rx="6" ry="6" x="552" y="102" width="28" height="26" class="combo"/>
<text x="566" y="115" class="combo tap">⌃</text>
</g>
<g class="combo combopos-6">
<rect rx="6" ry="6" x="198" y="144" width="28" height="26" class="combo"/>
<text x="212" y="157" class="combo tap">⌘</text>
</g>
<g class="combo combopos-7">
<rect rx="6" ry="6" x="505" y="144" width="28" height="26" class="combo"/>
<text x="519" y="157" class="combo tap">⌘</text>
</g>
<g class="combo combopos-14">
<rect rx="6" ry="6" x="163" y="184" width="28" height="26" class="combo"/>
<text x="177" y="197" class="combo tap">⇧</text>
</g>
<g class="combo combopos-15">
<rect rx="6" ry="6" x="539" y="185" width="28" height="26" class="combo"/>
<text x="553" y="198" class="combo tap">⇧</text>
</g>
<g class="combo combopos-16">
<rect rx="6" ry="6" x="63" y="66" width="28" height="26" class="combo"/>
<text x="77" y="79" class="combo tap">`</text>
</g>
<g class="combo combopos-17">
<rect rx="6" ry="6" x="132" y="68" width="28" height="26" class="combo"/>
<text x="146" y="81" class="combo tap">@</text>
</g>
<g class="combo combopos-18">
<rect rx="6" ry="6" x="200" y="92" width="28" height="26" class="combo"/>
<text x="214" y="105" class="combo tap">|</text>
</g>
<g class="combo combopos-19">
<rect rx="6" ry="6" x="230" y="155" width="28" height="26" class="combo"/>
<text x="244" y="168" class="combo tap">$</text>
</g>
<g class="combo combopos-20">
<rect rx="6" ry="6" x="259" y="166" width="28" height="26" class="combo"/>
<text x="273" y="179" class="combo tap">\</text>
</g>
<g class="combo combopos-21">
<path d="M314,229 v-14 a6.0,6.0 0 0 0 -6.0,-6.0 h-4" class="combo"/>
<path d="M314,229 v14 a6.0,6.0 0 0 1 -6.0,6.0 h-40" class="combo"/>
<rect rx="6" ry="6" x="300" y="216" width="28" height="26" class="combo"/>
<text x="314" y="229" class="combo tap">%</text>
</g>
<g class="combo combopos-22">
<rect rx="6" ry="6" x="444" y="166" width="28" height="26" class="combo"/>
<text x="458" y="179" class="combo tap">/</text>
</g>
<g class="combo combopos-23">
<path d="M417,229 v-14 a6.0,6.0 0 0 1 6.0,-6.0 h4" class="combo"/>
<path d="M417,229 v14 a6.0,6.0 0 0 0 6.0,6.0 h40" class="combo"/>
<rect rx="6" ry="6" x="403" y="216" width="28" height="26" class="combo"/>
<text x="417" y="229" class="combo tap">^</text>
</g>
<g class="combo combopos-24">
<rect rx="6" ry="6" x="473" y="156" width="28" height="26" class="combo"/>
<text x="487" y="169" class="combo tap">?</text>
</g>
<g class="combo combopos-25">
<rect rx="6" ry="6" x="503" y="92" width="28" height="26" class="combo"/>
<text x="517" y="105" class="combo tap">#</text>
</g>
<g class="combo combopos-26">
<rect rx="6" ry="6" x="571" y="68" width="28" height="26" class="combo"/>
<text x="585" y="81" class="combo tap">!</text>
</g>
<g class="combo combopos-27">
<rect rx="6" ry="6" x="639" y="66" width="28" height="26" class="combo"/>
<text x="653" y="79" class="combo tap">~</text>
</g>
<g class="combo combopos-28">
<rect rx="6" ry="6" x="241" y="186" width="28" height="26" class="combo"/>
<text x="255" y="199" class="combo tap">{</text>
</g>
<g class="combo combopos-29">
<rect rx="6" ry="6" x="461" y="186" width="28" height="26" class="combo"/>
<text x="475" y="199" class="combo tap">}</text>
</g>
<g class="combo combopos-30">
<rect rx="6" ry="6" x="223" y="205" width="28" height="26" class="combo"/>
<text x="237" y="218" class="combo tap">(&lt;</text>
</g>
<g class="combo combopos-31">
<rect rx="6" ry="6" x="479" y="205" width="28" height="26" class="combo"/>
<text x="493" y="218" class="combo tap">)&gt;</text>
</g>
<g class="combo combopos-32">
<rect rx="6" ry="6" x="206" y="225" width="28" height="26" class="combo"/>
<text x="220" y="238" class="combo tap">[{</text>
</g>
<g class="combo combopos-33">
<rect rx="6" ry="6" x="497" y="225" width="28" height="26" class="combo"/>
<text x="511" y="238" class="combo tap">]}</text>
</g>
</g>
</g>
</svg>
