<svg width="922" height="1233" viewBox="0 0 922 1233" class="keymap" xmlns="http://www.w3.org/2000/svg" xmlns:xlink="http://www.w3.org/1999/xlink">
<style>/* inherit to force styles through use tags*/
svg path {
    fill: inherit;
}
/* font and background color specifications */
svg.keymap {
    font-family: SFMono-Regular,Consolas,Liberation Mono,Menlo,monospace;
    font-size: 14px;
    font-kerning: normal;
    text-rendering: optimizeLegibility;
    fill: #24292e;
}

/* default key styling */
rect.key {
    fill: #f6f8fa;
    stroke: #c9cccf;
    stroke-width: 1;
}

/* color accent for combo boxes */
rect.combo {
    fill: #cdf;
}

/* color accent for held keys */
rect.held, rect.combo.held {
    fill: #fdd;
}

/* color accent for ghost (optional) keys */
rect.ghost, rect.combo.ghost {
    stroke-dasharray: 4, 4;
    stroke-width: 2;
}

text {
    text-anchor: middle;
    dominant-baseline: middle;
}

/* styling for layer labels */
text.label {
    font-weight: bold;
    text-anchor: start;
    stroke: white;
    stroke-width: 2;
    paint-order: stroke;
}

text.tap {
    font-size: 16px;
}

/* styling for combo tap, and key hold/shifted label text */
text.combo, text.hold, text.shifted {
    font-size: 11px;
}

text.hold {
    text-anchor: middle;
    dominant-baseline: auto;
}

text.shifted {
    text-anchor: middle;
    dominant-baseline: hanging;
}

/* styling for hold/shifted label text in combo box */
text.combo.hold, text.combo.shifted {
    font-size: 8px;
}

/* lighter symbol for transparent keys */
text.trans {
    fill: #7b7e81;
}

/* styling for combo dendrons */
path.combo {
    stroke-width: 1;
    stroke: gray;
    fill: none;
}

/* Start Tabler Icons Cleanup */
/* cannot use height/width with glyphs */
.icon-tabler > path {
    fill: inherit;
    stroke: inherit;
}
/* hide tabler's default box */
.icon-tabler > path[stroke="none"][fill="none"] {
    visibility: collapse;
}

rect.low {
    fill: #355978;
}
rect.medium-low {
    fill: #636696;
}
rect.medium {
    fill: #9E6DA4;
}
rect.medium-high {
    fill: #D7749D;
}
rect.high {
    fill: #FF8585;
}

/* green styling for Naginata kana-shift */
rect.kshift {
    fill: #00CC00;
}
text.left {
    font-size: 18px;
    translate: 16px 7px;
}
text.right {
    fill: #00CC00;
    font-size: 16px;
    translate: -16px -10px;
}
</style>
<g transform="translate(30, 0)" class="layer-HD Promethium">
<text x="0" y="28" class="label" id="HD-Promethium">HD Promethium</text>
<g transform="translate(0, 56)">
<g transform="translate(28, 28)" class="key keypos-0">
<rect rx="6" ry="6" x="-26" y="-26" width="52" height="52" class="key"/>
<text x="0" y="0" class="key tap">⎋</text>
</g>
<g transform="translate(85, 30) rotate(3.0)" class="key keypos-1">
<rect rx="6" ry="6" x="-26" y="-26" width="52" height="52" class="key"/>
<text x="0" y="0" class="key tap">⎋</text>
</g>
<g transform="translate(145, 38) rotate(12.0)" class="key medium-low keypos-2">
<rect rx="6" ry="6" x="-26" y="-26" width="52" height="52" class="key medium-low"/>
<text x="0" y="0" class="key medium-low tap">pP</text>
</g>
<g transform="translate(203, 54) rotate(21.0)" class="key medium keypos-3">
<rect rx="6" ry="6" x="-26" y="-26" width="52" height="52" class="key medium"/>
<text x="0" y="0" class="key medium tap">gG</text>
</g>
<g transform="translate(256, 77) rotate(25.0)" class="key medium keypos-4">
<rect rx="6" ry="6" x="-26" y="-26" width="52" height="52" class="key medium"/>
<text x="0" y="0" class="key medium tap">mM</text>
</g>
<g transform="translate(295, 126) rotate(25.0)" class="key low keypos-5">
<rect rx="6" ry="6" x="-26" y="-26" width="52" height="52" class="key low"/>
<text x="0" y="0" class="key low tap">kK</text>
</g>
<g transform="translate(399, 126) rotate(-25.0)" class="key medium-low keypos-6">
<rect rx="6" ry="6" x="-26" y="-26" width="52" height="52" class="key medium-low"/>
<text x="0" y="0" class="key medium-low tap">.:</text>
</g>
<g transform="translate(437, 77) rotate(-25.0)" class="key keypos-7">
<rect rx="6" ry="6" x="-26" y="-26" width="52" height="52" class="key"/>
<text x="0" y="0" class="key tap">⌫</text>
</g>
<g transform="translate(491, 54) rotate(-21.0)" class="key medium-low keypos-8">
<rect rx="6" ry="6" x="-26" y="-26" width="52" height="52" class="key medium-low"/>
<text x="0" y="0" class="key medium-low tap">&#x27;&quot;</text>
</g>
<g transform="translate(548, 38) rotate(-12.0)" class="key medium-low keypos-9">
<rect rx="6" ry="6" x="-26" y="-26" width="52" height="52" class="key medium-low"/>
<text x="0" y="0" class="key medium-low tap">-_</text>
</g>
<g transform="translate(608, 30) rotate(-3.0)" class="key low keypos-10">
<rect rx="6" ry="6" x="-26" y="-26" width="52" height="52" class="key low"/>
<text x="0" y="0" class="key low tap">+=</text>
</g>
<g transform="translate(666, 28)" class="key keypos-11">
<rect rx="6" ry="6" x="-26" y="-26" width="52" height="52" class="key"/>
<text x="0" y="0" class="key tap">*</text>
</g>
<g transform="translate(722, 28)" class="key keypos-12">
<rect rx="6" ry="6" x="-26" y="-26" width="52" height="52" class="key"/>
<text x="0" y="0" class="key tap">7</text>
</g>
<g transform="translate(778, 28)" class="key keypos-13">
<rect rx="6" ry="6" x="-26" y="-26" width="52" height="52" class="key"/>
<text x="0" y="0" class="key tap">8</text>
</g>
<g transform="translate(834, 28)" class="key keypos-14">
<rect rx="6" ry="6" x="-26" y="-26" width="52" height="52" class="key"/>
<text x="0" y="0" class="key tap">9</text>
</g>
<g transform="translate(28, 84)" class="key keypos-15">
<rect rx="6" ry="6" x="-26" y="-26" width="52" height="52" class="key"/>
<text x="0" y="0" class="key tap">⎋</text>
</g>
<g transform="translate(102, 88) rotate(7.0)" class="key high keypos-16">
<rect rx="6" ry="6" x="-26" y="-26" width="52" height="52" class="key high"/>
<text x="0" y="0" class="key high tap">nN</text>
</g>
<g transform="translate(177, 105) rotate(19.0)" class="key high keypos-17">
<rect rx="6" ry="6" x="-26" y="-26" width="52" height="52" class="key high"/>
<text x="0" y="0" class="key high tap">tT</text>
</g>
<g transform="translate(232, 128) rotate(25.0)" class="key high keypos-18">
<rect rx="6" ry="6" x="-26" y="-26" width="52" height="52" class="key high"/>
<text x="0" y="0" class="key high tap">hH</text>
</g>
<g transform="translate(272, 177) rotate(25.0)" class="key low keypos-19">
<rect rx="6" ry="6" x="-26" y="-26" width="52" height="52" class="key low"/>
<text x="0" y="0" class="key low tap">jJ</text>
</g>
<g transform="translate(422, 177) rotate(-25.0)" class="key medium-low keypos-20">
<rect rx="6" ry="6" x="-26" y="-26" width="52" height="52" class="key medium-low"/>
<text x="0" y="0" class="key medium-low tap">,;</text>
</g>
<g transform="translate(461, 128) rotate(-25.0)" class="key high keypos-21">
<rect rx="6" ry="6" x="-26" y="-26" width="52" height="52" class="key high"/>
<text x="0" y="0" class="key high tap">aA</text>
</g>
<g transform="translate(517, 105) rotate(-19.0)" class="key high keypos-22">
<rect rx="6" ry="6" x="-26" y="-26" width="52" height="52" class="key high"/>
<text x="0" y="0" class="key high tap">eE</text>
</g>
<g transform="translate(591, 88) rotate(-7.0)" class="key high keypos-23">
<rect rx="6" ry="6" x="-26" y="-26" width="52" height="52" class="key high"/>
<text x="0" y="0" class="key high tap">iI</text>
</g>
<g transform="translate(666, 84)" class="key low keypos-24">
<rect rx="6" ry="6" x="-26" y="-26" width="52" height="52" class="key low"/>
<text x="0" y="0" class="key low tap">/?</text>
</g>
<g transform="translate(722, 84)" class="key keypos-25">
<rect rx="6" ry="6" x="-26" y="-26" width="52" height="52" class="key"/>
<text x="0" y="0" class="key tap">4</text>
</g>
<g transform="translate(778, 84)" class="key keypos-26">
<rect rx="6" ry="6" x="-26" y="-26" width="52" height="52" class="key"/>
<text x="0" y="0" class="key tap">5</text>
</g>
<g transform="translate(834, 84)" class="key keypos-27">
<rect rx="6" ry="6" x="-26" y="-26" width="52" height="52" class="key"/>
<text x="0" y="0" class="key tap">6</text>
</g>
<g transform="translate(28, 140)" class="key high keypos-28">
<rect rx="6" ry="6" x="-26" y="-26" width="52" height="52" class="key high"/>
<text x="0" y="0" class="key high tap">sS</text>
</g>
<g transform="translate(89, 144) rotate(7.0)" class="key medium keypos-29">
<rect rx="6" ry="6" x="-26" y="-26" width="52" height="52" class="key medium"/>
<text x="0" y="0" class="key medium tap">fF</text>
</g>
<g transform="translate(151, 157) rotate(16.0)" class="key medium-high keypos-30">
<rect rx="6" ry="6" x="-26" y="-26" width="52" height="52" class="key medium-high"/>
<text x="0" y="0" class="key medium-high tap">dD</text>
</g>
<g transform="translate(209, 179) rotate(25.0)" class="key medium-high keypos-31">
<rect rx="6" ry="6" x="-26" y="-26" width="52" height="52" class="key medium-high"/>
<text x="0" y="0" class="key medium-high tap">lL</text>
</g>
<g transform="translate(248, 228) rotate(25.0)" class="key high keypos-32">
<rect rx="6" ry="6" x="-26" y="-26" width="52" height="52" class="key high"/>
<text x="0" y="0" class="key high tap">rR</text>
</g>
<g transform="translate(446, 228) rotate(-25.0)" class="key high keypos-33">
<rect rx="6" ry="6" x="-26" y="-26" width="52" height="52" class="key high"/>
<text x="0" y="0" class="key high tap">⎵</text>
<text x="0" y="24" class="key high hold">Num+Nav</text>
</g>
<g transform="translate(485, 179) rotate(-25.0)" class="key medium-high keypos-34">
<rect rx="6" ry="6" x="-26" y="-26" width="52" height="52" class="key medium-high"/>
<text x="0" y="0" class="key medium-high tap">uU</text>
</g>
<g transform="translate(543, 157) rotate(-16.0)" class="key high keypos-35">
<rect rx="6" ry="6" x="-26" y="-26" width="52" height="52" class="key high"/>
<text x="0" y="0" class="key high tap">oO</text>
</g>
<g transform="translate(604, 144) rotate(-7.0)" class="key medium keypos-36">
<rect rx="6" ry="6" x="-26" y="-26" width="52" height="52" class="key medium"/>
<text x="0" y="0" class="key medium tap">yY</text>
</g>
<g transform="translate(666, 140)" class="key medium keypos-37">
<rect rx="6" ry="6" x="-26" y="-26" width="52" height="52" class="key medium"/>
<text x="0" y="0" class="key medium tap">cC</text>
</g>
<g transform="translate(722, 140)" class="key keypos-38">
<rect rx="6" ry="6" x="-26" y="-26" width="52" height="52" class="key"/>
<text x="0" y="0" class="key tap">1</text>
</g>
<g transform="translate(778, 140)" class="key keypos-39">
<rect rx="6" ry="6" x="-26" y="-26" width="52" height="52" class="key"/>
<text x="0" y="0" class="key tap">2</text>
</g>
<g transform="translate(834, 140)" class="key keypos-40">
<rect rx="6" ry="6" x="-26" y="-26" width="52" height="52" class="key"/>
<text x="0" y="0" class="key tap">3</text>
</g>
<g transform="translate(28, 196)" class="key medium-low keypos-41">
<rect rx="6" ry="6" x="-26" y="-26" width="52" height="52" class="key medium-low"/>
<text x="0" y="0" class="key medium-low tap">bB</text>
</g>
<g transform="translate(300, 258) rotate(35.0)" class="key keypos-42">
<rect rx="6" ry="6" x="-26" y="-26" width="52" height="52" class="key"/>
<text x="0" y="0" class="key tap">⌫</text>
</g>
<g transform="translate(347, 297) rotate(-45.0)" class="key keypos-43">
<rect rx="6" ry="6" x="-26" y="-26" width="52" height="52" class="key"/>
<text x="0" y="0" class="key tap">⇧</text>
</g>
<g transform="translate(393, 258) rotate(-35.0)" class="key keypos-44">
<rect rx="6" ry="6" x="-26" y="-26" width="52" height="52" class="key"/>
<text x="0" y="0" class="key tap">⇧⇪</text>
</g>
<g transform="translate(547, 301) rotate(-11.5)" class="key keypos-45">
<rect rx="6" ry="6" x="-26" y="-26" width="52" height="52" class="key"/>
<text x="0" y="0" class="key tap">←</text>
</g>
<g transform="translate(602, 290) rotate(-11.5)" class="key keypos-46">
<rect rx="6" ry="6" x="-26" y="-26" width="52" height="52" class="key"/>
<text x="0" y="0" class="key tap">↓</text>
</g>
<g transform="translate(591, 236) rotate(-11.5)" class="key keypos-47">
<rect rx="6" ry="6" x="-26" y="-26" width="52" height="52" class="key"/>
<text x="0" y="0" class="key tap">↑</text>
</g>
<g transform="translate(657, 279) rotate(-11.5)" class="key keypos-48">
<rect rx="6" ry="6" x="-26" y="-26" width="52" height="52" class="key"/>
<text x="0" y="0" class="key tap">→</text>
</g>
<g transform="translate(666, 196)" class="key medium keypos-49">
<rect rx="6" ry="6" x="-26" y="-26" width="52" height="52" class="key medium"/>
<text x="0" y="0" class="key medium tap">wW</text>
</g>
<g transform="translate(722, 196)" class="key keypos-50">
<rect rx="6" ry="6" x="-26" y="-26" width="52" height="52" class="key"/>
<text x="0" y="0" class="key tap">0</text>
</g>
<g transform="translate(806, 204)" class="key keypos-51">
<rect rx="6" ry="6" x="-26" y="-26" width="52" height="52" class="key"/>
<text x="0" y="0" class="key tap">RET</text>
</g>
<g class="combo combopos-2">
<path d="M487,154 h-83 a6.0,6.0 0 0 1 -6.0,-6.0 v-3" class="combo"/>
<path d="M487,154 h24 a6.0,6.0 0 0 0 6.0,-6.0 v-24" class="combo"/>
<rect rx="6" ry="6" x="473" y="146" width="28" height="15" class="combo"/>
<text x="487" y="154" class="combo tap">かな</text>
</g>
<g class="combo combopos-3">
<path d="M206,154 h83 a6.0,6.0 0 0 0 6.0,-6.0 v-3" class="combo"/>
<path d="M206,154 h-24 a6.0,6.0 0 0 1 -6.0,-6.0 v-24" class="combo"/>
<rect rx="6" ry="6" x="192" y="146" width="28" height="15" class="combo"/>
<text x="206" y="154" class="combo tap">ABC</text>
</g>
<g class="combo combopos-4">
<path d="M119,207 h84 a6.0,6.0 0 0 0 6.0,-6.0 v-3" class="combo"/>
<path d="M119,207 h26 a6.0,6.0 0 0 0 6.0,-6.0 v-25" class="combo"/>
<path d="M119,207 h-24 a6.0,6.0 0 0 1 -6.0,-6.0 v-38" class="combo"/>
<rect rx="6" ry="6" x="105" y="199" width="28" height="15" class="combo"/>
<text x="119" y="207" class="combo tap">↹</text>
</g>
<g class="combo combopos-5">
<path d="M515,207 h-24 a6.0,6.0 0 0 1 -6.0,-6.0 v-3" class="combo"/>
<path d="M515,207 h22 a6.0,6.0 0 0 0 6.0,-6.0 v-25" class="combo"/>
<path d="M515,207 h83 a6.0,6.0 0 0 0 6.0,-6.0 v-38" class="combo"/>
<rect rx="6" ry="6" x="501" y="199" width="28" height="15" class="combo"/>
<text x="515" y="207" class="combo tap">⏎</text>
</g>
<g class="combo combopos-6">
<rect rx="6" ry="6" x="51" y="101" width="28" height="26" class="combo"/>
<text x="65" y="114" class="combo tap">⎇</text>
</g>
<g class="combo combopos-7">
<rect rx="6" ry="6" x="126" y="84" width="28" height="26" class="combo"/>
<text x="140" y="97" class="combo tap">⌃</text>
</g>
<g class="combo combopos-8">
<rect rx="6" ry="6" x="191" y="103" width="28" height="26" class="combo"/>
<text x="205" y="116" class="combo tap">⌘</text>
</g>
<g class="combo combopos-9">
<rect rx="6" ry="6" x="614" y="101" width="28" height="26" class="combo"/>
<text x="628" y="114" class="combo tap">⎇</text>
</g>
<g class="combo combopos-10">
<rect rx="6" ry="6" x="540" y="84" width="28" height="26" class="combo"/>
<text x="554" y="97" class="combo tap">⌃</text>
</g>
<g class="combo combopos-11">
<rect rx="6" ry="6" x="475" y="103" width="28" height="26" class="combo"/>
<text x="489" y="116" class="combo tap">⌘</text>
</g>
<g class="combo low combopos-12">
<rect rx="6" ry="6" x="216" y="53" width="28" height="26" class="combo low"/>
<text x="230" y="66" class="combo low tap">qQ</text>
</g>
<g class="combo low combopos-13">
<rect rx="6" ry="6" x="505" y="33" width="28" height="26" class="combo low"/>
<text x="519" y="46" class="combo low tap">zZ</text>
</g>
<g class="combo low combopos-14">
<rect rx="6" ry="6" x="160" y="33" width="28" height="26" class="combo low"/>
<text x="174" y="46" class="combo low tap">vV</text>
</g>
<g class="combo low combopos-15">
<rect rx="6" ry="6" x="106" y="137" width="28" height="26" class="combo low"/>
<text x="120" y="150" class="combo low tap">xX</text>
</g>
<g class="combo combopos-16">
<rect rx="6" ry="6" x="14" y="99" width="28" height="26" class="combo"/>
<text x="28" y="112" class="combo tap">`</text>
</g>
<g class="combo combopos-17">
<rect rx="6" ry="6" x="110" y="50" width="28" height="26" class="combo"/>
<text x="124" y="63" class="combo tap">@</text>
</g>
<g class="combo combopos-18">
<rect rx="6" ry="6" x="176" y="67" width="28" height="26" class="combo"/>
<text x="190" y="80" class="combo tap">£</text>
</g>
<g class="combo combopos-19">
<rect rx="6" ry="6" x="230" y="89" width="28" height="26" class="combo"/>
<text x="244" y="102" class="combo tap">$</text>
</g>
<g class="combo combopos-20">
<rect rx="6" ry="6" x="262" y="89" width="28" height="26" class="combo"/>
<text x="276" y="102" class="combo tap">%</text>
</g>
<g class="combo combopos-21">
<path d="M324,151 v-19 a6.0,6.0 0 0 0 -6.0,-6.0 h-4" class="combo"/>
<path d="M324,151 v19 a6.0,6.0 0 0 1 -6.0,6.0 h-28" class="combo"/>
<rect rx="6" ry="6" x="310" y="138" width="28" height="26" class="combo"/>
<text x="324" y="151" class="combo tap">|</text>
</g>
<g class="combo combopos-22">
<path d="M370,151 v-19 a6.0,6.0 0 0 1 6.0,-6.0 h4" class="combo"/>
<path d="M370,151 v19 a6.0,6.0 0 0 0 6.0,6.0 h28" class="combo"/>
<rect rx="6" ry="6" x="356" y="138" width="28" height="26" class="combo"/>
<text x="370" y="151" class="combo tap">!</text>
</g>
<g class="combo combopos-23">
<rect rx="6" ry="6" x="404" y="89" width="28" height="26" class="combo"/>
<text x="418" y="102" class="combo tap">^</text>
</g>
<g class="combo combopos-24">
<rect rx="6" ry="6" x="435" y="89" width="28" height="26" class="combo"/>
<text x="449" y="102" class="combo tap">&amp;</text>
</g>
<g class="combo combopos-25">
<rect rx="6" ry="6" x="490" y="67" width="28" height="26" class="combo"/>
<text x="504" y="80" class="combo tap">#</text>
</g>
<g class="combo combopos-26">
<rect rx="6" ry="6" x="556" y="50" width="28" height="26" class="combo"/>
<text x="570" y="63" class="combo tap">\</text>
</g>
<g class="combo combopos-27">
<rect rx="6" ry="6" x="652" y="99" width="28" height="26" class="combo"/>
<text x="666" y="112" class="combo tap">~</text>
</g>
<g class="combo combopos-28">
<rect rx="6" ry="6" x="238" y="139" width="28" height="26" class="combo"/>
<text x="252" y="152" class="combo tap">{</text>
</g>
<g class="combo combopos-29">
<rect rx="6" ry="6" x="428" y="139" width="28" height="26" class="combo"/>
<text x="442" y="152" class="combo tap">}</text>
</g>
<g class="combo combopos-30">
<rect rx="6" ry="6" x="250" y="114" width="28" height="26" class="combo"/>
<text x="264" y="127" class="combo tap">(&lt;</text>
</g>
<g class="combo combopos-31">
<rect rx="6" ry="6" x="416" y="114" width="28" height="26" class="combo"/>
<text x="430" y="127" class="combo tap">)&gt;</text>
</g>
<g class="combo combopos-32">
<rect rx="6" ry="6" x="226" y="165" width="28" height="26" class="combo"/>
<text x="240" y="178" class="combo tap">[{</text>
</g>
<g class="combo combopos-33">
<rect rx="6" ry="6" x="440" y="165" width="28" height="26" class="combo"/>
<text x="454" y="178" class="combo tap">]}</text>
</g>
</g>
</g>
<g transform="translate(30, 392)" class="layer-Naginata">
<text x="0" y="28" class="label" id="Naginata">Naginata</text>
<g transform="translate(0, 56)">
<g transform="translate(28, 28)" class="key keypos-0">
<rect rx="6" ry="6" x="-26" y="-26" width="52" height="52" class="key"/>
<text x="0" y="0" class="key tap">⎋</text>
<text x="0" y="24" class="key hold"><tspan style="font-size: 70%">Small-kana</tspan></text>
</g>
<g transform="translate(85, 30) rotate(3.0)" class="key keypos-1">
<rect rx="6" ry="6" x="-26" y="-26" width="52" height="52" class="key"/>
<text x="0" y="0" class="key tap">⎋</text>
<text x="0" y="24" class="key hold"><tspan style="font-size: 70%">Small-kana</tspan></text>
</g>
<g transform="translate(145, 38) rotate(12.0)" class="key keypos-2">
<rect rx="6" ry="6" x="-26" y="-26" width="52" height="52" class="key"/>
<text x="-24" y="0" class="key left">き</text>
<text x="24" y="0" class="key right">ぬ</text>
</g>
<g transform="translate(203, 54) rotate(21.0)" class="key keypos-3">
<rect rx="6" ry="6" x="-26" y="-26" width="52" height="52" class="key"/>
<text x="-24" y="0" class="key left">て</text>
<text x="24" y="0" class="key right">り</text>
</g>
<g transform="translate(256, 77) rotate(25.0)" class="key keypos-4">
<rect rx="6" ry="6" x="-26" y="-26" width="52" height="52" class="key"/>
<text x="-24" y="0" class="key left">し</text>
<text x="24" y="0" class="key right">め</text>
</g>
<g transform="translate(295, 126) rotate(25.0)" class="key keypos-5">
<rect rx="6" ry="6" x="-26" y="-26" width="52" height="52" class="key"/>
<text x="-24" y="0" class="key left">っ</text>
<text x="24" y="0" class="key right">ち</text>
</g>
<g transform="translate(399, 126) rotate(-25.0)" class="key keypos-6">
<rect rx="6" ry="6" x="-26" y="-26" width="52" height="52" class="key"/>
<text x="-24" y="0" class="key left">く</text>
<text x="24" y="0" class="key right">や</text>
</g>
<g transform="translate(437, 77) rotate(-25.0)" class="key keypos-7">
<rect rx="6" ry="6" x="-26" y="-26" width="52" height="52" class="key"/>
<text x="-24" y="0" class="key left">⌫</text>
<text x="24" y="0" class="key right">さ</text>
</g>
<g transform="translate(491, 54) rotate(-21.0)" class="key keypos-8">
<rect rx="6" ry="6" x="-26" y="-26" width="52" height="52" class="key"/>
<text x="-24" y="0" class="key left">る</text>
<text x="24" y="0" class="key right">よ</text>
</g>
<g transform="translate(548, 38) rotate(-12.0)" class="key keypos-9">
<rect rx="6" ry="6" x="-26" y="-26" width="52" height="52" class="key"/>
<text x="-24" y="0" class="key left">す</text>
<text x="24" y="0" class="key right">え</text>
</g>
<g transform="translate(608, 30) rotate(-3.0)" class="key keypos-10">
<rect rx="6" ry="6" x="-26" y="-26" width="52" height="52" class="key"/>
<text x="-24" y="0" class="key left">へ</text>
<text x="24" y="0" class="key right">ゆ</text>
</g>
<g transform="translate(666, 28)" class="key keypos-11">
<rect rx="6" ry="6" x="-26" y="-26" width="52" height="52" class="key"/>
<text x="-24" y="0" class="key left">へ</text>
<text x="24" y="0" class="key right">ゆ</text>
</g>
<g transform="translate(722, 28)" class="key keypos-12">
<rect rx="6" ry="6" x="-26" y="-26" width="52" height="52" class="key"/>
<text x="0" y="0" class="key tap">7</text>
</g>
<g transform="translate(778, 28)" class="key keypos-13">
<rect rx="6" ry="6" x="-26" y="-26" width="52" height="52" class="key"/>
<text x="0" y="0" class="key tap">8</text>
</g>
<g transform="translate(834, 28)" class="key keypos-14">
<rect rx="6" ry="6" x="-26" y="-26" width="52" height="52" class="key"/>
<text x="0" y="0" class="key tap">9</text>
</g>
<g transform="translate(28, 84)" class="key keypos-15">
<rect rx="6" ry="6" x="-26" y="-26" width="52" height="52" class="key"/>
<text x="0" y="0" class="key tap">⎋</text>
<text x="0" y="24" class="key hold"><tspan style="font-size: 70%">Small-kana</tspan></text>
</g>
<g transform="translate(102, 88) rotate(7.0)" class="key keypos-16">
<rect rx="6" ry="6" x="-26" y="-26" width="52" height="52" class="key"/>
<text x="-24" y="0" class="key left">け</text>
<text x="24" y="0" class="key right">み</text>
</g>
<g transform="translate(177, 105) rotate(19.0)" class="key keypos-17">
<rect rx="6" ry="6" x="-26" y="-26" width="52" height="52" class="key"/>
<text x="-24" y="0" class="key left">と</text>
<text x="24" y="0" class="key right">に</text>
</g>
<g transform="translate(232, 128) rotate(25.0)" class="key keypos-18">
<rect rx="6" ry="6" x="-26" y="-26" width="52" height="52" class="key"/>
<text x="0" y="24" class="key hold">濁音</text>
<text x="-24" y="0" class="key left">か</text>
<text x="24" y="0" class="key right">ま</text>
</g>
<g transform="translate(272, 177) rotate(25.0)" class="key keypos-19">
<rect rx="6" ry="6" x="-26" y="-26" width="52" height="52" class="key"/>
<text x="-24" y="0" class="key left">そ</text>
<text x="24" y="0" class="key right">む</text>
</g>
<g transform="translate(422, 177) rotate(-25.0)" class="key keypos-20">
<rect rx="6" ry="6" x="-26" y="-26" width="52" height="52" class="key"/>
<text x="-24" y="0" class="key left">た</text>
<text x="24" y="0" class="key right">お</text>
</g>
<g transform="translate(461, 128) rotate(-25.0)" class="key keypos-21">
<rect rx="6" ry="6" x="-26" y="-26" width="52" height="52" class="key"/>
<text x="0" y="24" class="key hold">濁音</text>
<text x="-24" y="0" class="key left">あ</text>
<text x="24" y="0" class="key right">の</text>
</g>
<g transform="translate(517, 105) rotate(-19.0)" class="key keypos-22">
<rect rx="6" ry="6" x="-26" y="-26" width="52" height="52" class="key"/>
<text x="-24" y="0" class="key left">い</text>
<text x="24" y="0" class="key right">も</text>
</g>
<g transform="translate(591, 88) rotate(-7.0)" class="key keypos-23">
<rect rx="6" ry="6" x="-26" y="-26" width="52" height="52" class="key"/>
<text x="-24" y="0" class="key left">う</text>
<text x="24" y="0" class="key right">つ</text>
</g>
<g transform="translate(666, 84)" class="key keypos-24">
<rect rx="6" ry="6" x="-26" y="-26" width="52" height="52" class="key"/>
<text x="-24" y="0" class="key left">へ</text>
<text x="24" y="0" class="key right">ゆ</text>
</g>
<g transform="translate(722, 84)" class="key keypos-25">
<rect rx="6" ry="6" x="-26" y="-26" width="52" height="52" class="key"/>
<text x="0" y="0" class="key tap">4</text>
</g>
<g transform="translate(778, 84)" class="key keypos-26">
<rect rx="6" ry="6" x="-26" y="-26" width="52" height="52" class="key"/>
<text x="0" y="0" class="key tap">5</text>
</g>
<g transform="translate(834, 84)" class="key keypos-27">
<rect rx="6" ry="6" x="-26" y="-26" width="52" height="52" class="key"/>
<text x="0" y="0" class="key tap">6</text>
</g>
<g transform="translate(28, 140)" class="key keypos-28">
<rect rx="6" ry="6" x="-26" y="-26" width="52" height="52" class="key"/>
<text x="-24" y="0" class="key left">ろ</text>
<text x="24" y="0" class="key right">せ</text>
</g>
<g transform="translate(89, 144) rotate(7.0)" class="key keypos-29">
<rect rx="6" ry="6" x="-26" y="-26" width="52" height="52" class="key"/>
<text x="-24" y="0" class="key left">ひ</text>
</g>
<g transform="translate(151, 157) rotate(16.0)" class="key keypos-30">
<rect rx="6" ry="6" x="-26" y="-26" width="52" height="52" class="key"/>
<text x="-24" y="0" class="key left">は</text>
<text x="24" y="0" class="key right">を</text>
</g>
<g transform="translate(209, 179) rotate(25.0)" class="key keypos-31">
<rect rx="6" ry="6" x="-26" y="-26" width="52" height="52" class="key"/>
<text x="0" y="24" class="key hold">半濁音</text>
<text x="-24" y="0" class="key left">こ</text>
<text x="24" y="0" class="key right">、</text>
</g>
<g transform="translate(248, 228) rotate(25.0)" class="key kshift keypos-32">
<rect rx="6" ry="6" x="-26" y="-26" width="52" height="52" class="key kshift"/>
<text x="0" y="0" class="key kshift tap">⏎</text>
<text x="0" y="24" class="key kshift hold"><tspan style="font-size: 70%">Kana-Shift</tspan></text>
</g>
<g transform="translate(446, 228) rotate(-25.0)" class="key keypos-33">
<rect rx="6" ry="6" x="-26" y="-26" width="52" height="52" class="key"/>
<text x="0" y="0" class="key tap">⇧⎵</text>
<a href="#Num--Nav">
<text x="0" y="24" class="key hold layer-activator"><tspan style="font-size: 78%">Num + Nav</tspan></text>
</a></g>
<g transform="translate(485, 179) rotate(-25.0)" class="key keypos-34">
<rect rx="6" ry="6" x="-26" y="-26" width="52" height="52" class="key"/>
<text x="0" y="24" class="key hold">半濁音</text>
<text x="-24" y="0" class="key left">な</text>
<text x="24" y="0" class="key right">。</text>
</g>
<g transform="translate(543, 157) rotate(-16.0)" class="key keypos-35">
<rect rx="6" ry="6" x="-26" y="-26" width="52" height="52" class="key"/>
<text x="-24" y="0" class="key left">ん</text>
<text x="24" y="0" class="key right">ね</text>
</g>
<g transform="translate(604, 144) rotate(-7.0)" class="key keypos-36">
<rect rx="6" ry="6" x="-26" y="-26" width="52" height="52" class="key"/>
<text x="-24" y="0" class="key left">ら</text>
<text x="24" y="0" class="key right">わ</text>
</g>
<g transform="translate(666, 140)" class="key keypos-37">
<rect rx="6" ry="6" x="-26" y="-26" width="52" height="52" class="key"/>
<text x="-24" y="0" class="key left">ー</text>
<text x="24" y="0" class="key right">ふ</text>
</g>
<g transform="translate(722, 140)" class="key keypos-38">
<rect rx="6" ry="6" x="-26" y="-26" width="52" height="52" class="key"/>
<text x="0" y="0" class="key tap">1</text>
</g>
<g transform="translate(778, 140)" class="key keypos-39">
<rect rx="6" ry="6" x="-26" y="-26" width="52" height="52" class="key"/>
<text x="0" y="0" class="key tap">2</text>
</g>
<g transform="translate(834, 140)" class="key keypos-40">
<rect rx="6" ry="6" x="-26" y="-26" width="52" height="52" class="key"/>
<text x="0" y="0" class="key tap">3</text>
</g>
<g transform="translate(28, 196)" class="key keypos-41">
<rect rx="6" ry="6" x="-26" y="-26" width="52" height="52" class="key"/>
<text x="-24" y="0" class="key left">ほ</text>
</g>
<g transform="translate(300, 258) rotate(35.0)" class="key keypos-42">
<rect rx="6" ry="6" x="-26" y="-26" width="52" height="52" class="key"/>
<text x="0" y="0" class="key tap">⌫</text>
</g>
<g transform="translate(347, 297) rotate(-45.0)" class="key keypos-43">
<rect rx="6" ry="6" x="-26" y="-26" width="52" height="52" class="key"/>
<text x="0" y="0" class="key tap">⇧</text>
</g>
<g transform="translate(393, 258) rotate(-35.0)" class="key kshift keypos-44">
<rect rx="6" ry="6" x="-26" y="-26" width="52" height="52" class="key kshift"/>
<text x="0" y="0" class="key kshift tap">⎵</text>
<text x="0" y="24" class="key kshift hold"><tspan style="font-size: 70%">Kana-Shift</tspan></text>
</g>
<g transform="translate(547, 301) rotate(-11.5)" class="key keypos-45">
<rect rx="6" ry="6" x="-26" y="-26" width="52" height="52" class="key"/>
<text x="0" y="0" class="key tap">←</text>
</g>
<g transform="translate(602, 290) rotate(-11.5)" class="key keypos-46">
<rect rx="6" ry="6" x="-26" y="-26" width="52" height="52" class="key"/>
<text x="0" y="0" class="key tap">↓</text>
</g>
<g transform="translate(591, 236) rotate(-11.5)" class="key keypos-47">
<rect rx="6" ry="6" x="-26" y="-26" width="52" height="52" class="key"/>
<text x="0" y="0" class="key tap">↑</text>
</g>
<g transform="translate(657, 279) rotate(-11.5)" class="key keypos-48">
<rect rx="6" ry="6" x="-26" y="-26" width="52" height="52" class="key"/>
<text x="0" y="0" class="key tap">→</text>
</g>
<g transform="translate(666, 196)" class="key keypos-49">
<rect rx="6" ry="6" x="-26" y="-26" width="52" height="52" class="key"/>
<text x="-24" y="0" class="key left">れ</text>
</g>
<g transform="translate(722, 196)" class="key keypos-50">
<rect rx="6" ry="6" x="-26" y="-26" width="52" height="52" class="key"/>
<text x="0" y="0" class="key tap">0</text>
</g>
<g transform="translate(806, 204)" class="key keypos-51">
<rect rx="6" ry="6" x="-26" y="-26" width="52" height="52" class="key"/>
<text x="0" y="0" class="key tap">RET</text>
</g>
<g class="combo combopos-0">
<path d="M487,154 h-83 a6.0,6.0 0 0 1 -6.0,-6.0 v-3" class="combo"/>
<path d="M487,154 h24 a6.0,6.0 0 0 0 6.0,-6.0 v-24" class="combo"/>
<rect rx="6" ry="6" x="473" y="146" width="28" height="15" class="combo"/>
<text x="487" y="154" class="combo tap">かな</text>
</g>
<g class="combo combopos-1">
<path d="M206,154 h83 a6.0,6.0 0 0 0 6.0,-6.0 v-3" class="combo"/>
<path d="M206,154 h-24 a6.0,6.0 0 0 1 -6.0,-6.0 v-24" class="combo"/>
<rect rx="6" ry="6" x="192" y="146" width="28" height="15" class="combo"/>
<text x="206" y="154" class="combo tap">ABC</text>
</g>
<g class="combo combopos-2">
<path d="M119,207 h84 a6.0,6.0 0 0 0 6.0,-6.0 v-3" class="combo"/>
<path d="M119,207 h26 a6.0,6.0 0 0 0 6.0,-6.0 v-25" class="combo"/>
<path d="M119,207 h-24 a6.0,6.0 0 0 1 -6.0,-6.0 v-38" class="combo"/>
<rect rx="6" ry="6" x="105" y="199" width="28" height="15" class="combo"/>
<text x="119" y="207" class="combo tap">↹</text>
</g>
<g class="combo combopos-3">
<path d="M515,207 h-24 a6.0,6.0 0 0 1 -6.0,-6.0 v-3" class="combo"/>
<path d="M515,207 h22 a6.0,6.0 0 0 0 6.0,-6.0 v-25" class="combo"/>
<path d="M515,207 h83 a6.0,6.0 0 0 0 6.0,-6.0 v-38" class="combo"/>
<rect rx="6" ry="6" x="501" y="199" width="28" height="15" class="combo"/>
<text x="515" y="207" class="combo tap">⏎</text>
</g>
</g>
</g>
<g transform="translate(30, 785)" class="layer-Num + Nav">
<text x="0" y="28" class="label" id="Num--Nav">Num + Nav</text>
<g transform="translate(0, 56)">
<g transform="translate(28, 28)" class="key keypos-0">
<rect rx="6" ry="6" x="-26" y="-26" width="52" height="52" class="key"/>
<text x="0" y="0" class="key tap">/</text>
</g>
<g transform="translate(85, 30) rotate(3.0)" class="key keypos-1">
<rect rx="6" ry="6" x="-26" y="-26" width="52" height="52" class="key"/>
<text x="0" y="0" class="key tap">/</text>
</g>
<g transform="translate(145, 38) rotate(12.0)" class="key keypos-2">
<rect rx="6" ry="6" x="-26" y="-26" width="52" height="52" class="key"/>
<text x="0" y="0" class="key tap">1</text>
</g>
<g transform="translate(203, 54) rotate(21.0)" class="key keypos-3">
<rect rx="6" ry="6" x="-26" y="-26" width="52" height="52" class="key"/>
<text x="0" y="0" class="key tap">2</text>
</g>
<g transform="translate(256, 77) rotate(25.0)" class="key keypos-4">
<rect rx="6" ry="6" x="-26" y="-26" width="52" height="52" class="key"/>
<text x="0" y="0" class="key tap">3</text>
</g>
<g transform="translate(295, 126) rotate(25.0)" class="key keypos-5">
<rect rx="6" ry="6" x="-26" y="-26" width="52" height="52" class="key"/>
<text x="0" y="0" class="key tap">+</text>
</g>
<g transform="translate(399, 126) rotate(-25.0)" class="key keypos-6">
<rect rx="6" ry="6" x="-26" y="-26" width="52" height="52" class="key"/>
<text x="0" y="0" class="key tap">⇞</text>
</g>
<g transform="translate(437, 77) rotate(-25.0)" class="key keypos-7">
<rect rx="6" ry="6" x="-26" y="-26" width="52" height="52" class="key"/>
<text x="0" y="0" class="key tap">↖</text>
</g>
<g transform="translate(491, 54) rotate(-21.0)" class="key keypos-8">
<rect rx="6" ry="6" x="-26" y="-26" width="52" height="52" class="key"/>
<text x="0" y="0" class="key tap">↑</text>
</g>
<g transform="translate(548, 38) rotate(-12.0)" class="key keypos-9">
<rect rx="6" ry="6" x="-26" y="-26" width="52" height="52" class="key"/>
<text x="0" y="0" class="key tap">↘</text>
</g>
<g transform="translate(608, 30) rotate(-3.0)" class="key keypos-10">
<rect rx="6" ry="6" x="-26" y="-26" width="52" height="52" class="key"/>
<text x="0" y="0" class="key tap">⏯</text>
</g>
<g transform="translate(666, 28)" class="key keypos-11">
<rect rx="6" ry="6" x="-26" y="-26" width="52" height="52" class="key"/>
<text x="0" y="0" class="key tap">*</text>
</g>
<g transform="translate(722, 28)" class="key keypos-12">
<rect rx="6" ry="6" x="-26" y="-26" width="52" height="52" class="key"/>
<text x="0" y="0" class="key tap">7</text>
</g>
<g transform="translate(778, 28)" class="key keypos-13">
<rect rx="6" ry="6" x="-26" y="-26" width="52" height="52" class="key"/>
<text x="0" y="0" class="key tap">8</text>
</g>
<g transform="translate(834, 28)" class="key keypos-14">
<rect rx="6" ry="6" x="-26" y="-26" width="52" height="52" class="key"/>
<text x="0" y="0" class="key tap">9</text>
</g>
<g transform="translate(28, 84)" class="key keypos-15">
<rect rx="6" ry="6" x="-26" y="-26" width="52" height="52" class="key"/>
<text x="0" y="0" class="key tap">/</text>
</g>
<g transform="translate(102, 88) rotate(7.0)" class="key keypos-16">
<rect rx="6" ry="6" x="-26" y="-26" width="52" height="52" class="key"/>
<text x="0" y="0" class="key tap">4</text>
</g>
<g transform="translate(177, 105) rotate(19.0)" class="key keypos-17">
<rect rx="6" ry="6" x="-26" y="-26" width="52" height="52" class="key"/>
<text x="0" y="0" class="key tap">5</text>
</g>
<g transform="translate(232, 128) rotate(25.0)" class="key keypos-18">
<rect rx="6" ry="6" x="-26" y="-26" width="52" height="52" class="key"/>
<text x="0" y="0" class="key tap">6</text>
</g>
<g transform="translate(272, 177) rotate(25.0)" class="key keypos-19">
<rect rx="6" ry="6" x="-26" y="-26" width="52" height="52" class="key"/>
<text x="0" y="0" class="key tap">-</text>
</g>
<g transform="translate(422, 177) rotate(-25.0)" class="key keypos-20">
<rect rx="6" ry="6" x="-26" y="-26" width="52" height="52" class="key"/>
<text x="0" y="0" class="key tap">⇟</text>
</g>
<g transform="translate(461, 128) rotate(-25.0)" class="key keypos-21">
<rect rx="6" ry="6" x="-26" y="-26" width="52" height="52" class="key"/>
<text x="0" y="0" class="key tap">←</text>
</g>
<g transform="translate(517, 105) rotate(-19.0)" class="key keypos-22">
<rect rx="6" ry="6" x="-26" y="-26" width="52" height="52" class="key"/>
<text x="0" y="0" class="key tap">↓</text>
</g>
<g transform="translate(591, 88) rotate(-7.0)" class="key keypos-23">
<rect rx="6" ry="6" x="-26" y="-26" width="52" height="52" class="key"/>
<text x="0" y="0" class="key tap">→</text>
</g>
<g transform="translate(666, 84)" class="key keypos-24">
<rect rx="6" ry="6" x="-26" y="-26" width="52" height="52" class="key"/>
<text x="0" y="0" class="key tap">⎋</text>
</g>
<g transform="translate(722, 84)" class="key keypos-25">
<rect rx="6" ry="6" x="-26" y="-26" width="52" height="52" class="key"/>
<text x="0" y="0" class="key tap">4</text>
</g>
<g transform="translate(778, 84)" class="key keypos-26">
<rect rx="6" ry="6" x="-26" y="-26" width="52" height="52" class="key"/>
<text x="0" y="0" class="key tap">5</text>
</g>
<g transform="translate(834, 84)" class="key keypos-27">
<rect rx="6" ry="6" x="-26" y="-26" width="52" height="52" class="key"/>
<text x="0" y="0" class="key tap">6</text>
</g>
<g transform="translate(28, 140)" class="key keypos-28">
<rect rx="6" ry="6" x="-26" y="-26" width="52" height="52" class="key"/>
<text x="0" y="0" class="key tap">*</text>
</g>
<g transform="translate(89, 144) rotate(7.0)" class="key keypos-29">
<rect rx="6" ry="6" x="-26" y="-26" width="52" height="52" class="key"/>
<text x="0" y="0" class="key tap">7</text>
</g>
<g transform="translate(151, 157) rotate(16.0)" class="key keypos-30">
<rect rx="6" ry="6" x="-26" y="-26" width="52" height="52" class="key"/>
<text x="0" y="0" class="key tap">8</text>
</g>
<g transform="translate(209, 179) rotate(25.0)" class="key keypos-31">
<rect rx="6" ry="6" x="-26" y="-26" width="52" height="52" class="key"/>
<text x="0" y="0" class="key tap">9</text>
</g>
<g transform="translate(248, 228) rotate(25.0)" class="key keypos-32">
<rect rx="6" ry="6" x="-26" y="-26" width="52" height="52" class="key"/>
<text x="0" y="0" class="key tap">0</text>
<text x="0" y="24" class="key hold">⇧</text>
</g>
<g transform="translate(446, 228) rotate(-25.0)" class="key held keypos-33">
<rect rx="6" ry="6" x="-26" y="-26" width="52" height="52" class="key held"/>
</g>
<g transform="translate(485, 179) rotate(-25.0)" class="key keypos-34">
<rect rx="6" ry="6" x="-26" y="-26" width="52" height="52" class="key"/>
<text x="0" y="0" class="key tap">↞</text>
</g>
<g transform="translate(543, 157) rotate(-16.0)" class="key keypos-35">
<rect rx="6" ry="6" x="-26" y="-26" width="52" height="52" class="key"/>
<text x="0" y="0" class="key tap">⏎</text>
</g>
<g transform="translate(604, 144) rotate(-7.0)" class="key keypos-36">
<rect rx="6" ry="6" x="-26" y="-26" width="52" height="52" class="key"/>
<text x="0" y="0" class="key tap">↠</text>
</g>
<g transform="translate(666, 140)" class="key keypos-37">
<rect rx="6" ry="6" x="-26" y="-26" width="52" height="52" class="key"/>
<text x="0" y="0" class="key tap">
<tspan x="0" dy="-0.6em">VOL</tspan><tspan x="0" dy="1.2em">UP</tspan>
</text>
</g>
<g transform="translate(722, 140)" class="key keypos-38">
<rect rx="6" ry="6" x="-26" y="-26" width="52" height="52" class="key"/>
<text x="0" y="0" class="key tap">1</text>
</g>
<g transform="translate(778, 140)" class="key keypos-39">
<rect rx="6" ry="6" x="-26" y="-26" width="52" height="52" class="key"/>
<text x="0" y="0" class="key tap">2</text>
</g>
<g transform="translate(834, 140)" class="key keypos-40">
<rect rx="6" ry="6" x="-26" y="-26" width="52" height="52" class="key"/>
<text x="0" y="0" class="key tap">3</text>
</g>
<g transform="translate(28, 196)" class="key keypos-41">
<rect rx="6" ry="6" x="-26" y="-26" width="52" height="52" class="key"/>
<text x="0" y="0" class="key tap">.</text>
</g>
<g transform="translate(300, 258) rotate(35.0)" class="key trans keypos-42">
<rect rx="6" ry="6" x="-26" y="-26" width="52" height="52" class="key trans"/>
<text x="0" y="0" class="key trans tap">▽</text>
</g>
<g transform="translate(347, 297) rotate(-45.0)" class="key keypos-43">
<rect rx="6" ry="6" x="-26" y="-26" width="52" height="52" class="key"/>
<text x="0" y="0" class="key tap">⇧</text>
</g>
<g transform="translate(393, 258) rotate(-35.0)" class="key trans keypos-44">
<rect rx="6" ry="6" x="-26" y="-26" width="52" height="52" class="key trans"/>
<text x="0" y="0" class="key trans tap">▽</text>
</g>
<g transform="translate(547, 301) rotate(-11.5)" class="key keypos-45">
<rect rx="6" ry="6" x="-26" y="-26" width="52" height="52" class="key"/>
<text x="0" y="0" class="key tap">←</text>
</g>
<g transform="translate(602, 290) rotate(-11.5)" class="key keypos-46">
<rect rx="6" ry="6" x="-26" y="-26" width="52" height="52" class="key"/>
<text x="0" y="0" class="key tap">↓</text>
</g>
<g transform="translate(591, 236) rotate(-11.5)" class="key keypos-47">
<rect rx="6" ry="6" x="-26" y="-26" width="52" height="52" class="key"/>
<text x="0" y="0" class="key tap">↑</text>
</g>
<g transform="translate(657, 279) rotate(-11.5)" class="key keypos-48">
<rect rx="6" ry="6" x="-26" y="-26" width="52" height="52" class="key"/>
<text x="0" y="0" class="key tap">→</text>
</g>
<g transform="translate(666, 196)" class="key keypos-49">
<rect rx="6" ry="6" x="-26" y="-26" width="52" height="52" class="key"/>
<text x="0" y="0" class="key tap">
<tspan x="0" dy="-0.6em">VOL</tspan><tspan x="0" dy="1.2em">DOWN</tspan>
</text>
</g>
<g transform="translate(722, 196)" class="key keypos-50">
<rect rx="6" ry="6" x="-26" y="-26" width="52" height="52" class="key"/>
<text x="0" y="0" class="key tap">0</text>
</g>
<g transform="translate(806, 204)" class="key keypos-51">
<rect rx="6" ry="6" x="-26" y="-26" width="52" height="52" class="key"/>
<text x="0" y="0" class="key tap">RET</text>
</g>
<g class="combo combopos-0">
<path d="M119,207 h84 a6.0,6.0 0 0 0 6.0,-6.0 v-3" class="combo"/>
<path d="M119,207 h26 a6.0,6.0 0 0 0 6.0,-6.0 v-25" class="combo"/>
<path d="M119,207 h-24 a6.0,6.0 0 0 1 -6.0,-6.0 v-38" class="combo"/>
<rect rx="6" ry="6" x="105" y="199" width="28" height="15" class="combo"/>
<text x="119" y="207" class="combo tap">↹</text>
</g>
<g class="combo combopos-1">
<path d="M515,207 h-24 a6.0,6.0 0 0 1 -6.0,-6.0 v-3" class="combo"/>
<path d="M515,207 h22 a6.0,6.0 0 0 0 6.0,-6.0 v-25" class="combo"/>
<path d="M515,207 h83 a6.0,6.0 0 0 0 6.0,-6.0 v-38" class="combo"/>
<rect rx="6" ry="6" x="501" y="199" width="28" height="15" class="combo"/>
<text x="515" y="207" class="combo tap">⏎</text>
</g>
<g class="combo combopos-2">
<rect rx="6" ry="6" x="51" y="101" width="28" height="26" class="combo"/>
<text x="65" y="114" class="combo tap">⎇</text>
</g>
<g class="combo combopos-3">
<rect rx="6" ry="6" x="126" y="84" width="28" height="26" class="combo"/>
<text x="140" y="97" class="combo tap">⌃</text>
</g>
<g class="combo combopos-4">
<rect rx="6" ry="6" x="191" y="103" width="28" height="26" class="combo"/>
<text x="205" y="116" class="combo tap">⌘</text>
</g>
<g class="combo combopos-5">
<rect rx="6" ry="6" x="614" y="101" width="28" height="26" class="combo"/>
<text x="628" y="114" class="combo tap">⎇</text>
</g>
<g class="combo combopos-6">
<rect rx="6" ry="6" x="540" y="84" width="28" height="26" class="combo"/>
<text x="554" y="97" class="combo tap">⌃</text>
</g>
<g class="combo combopos-7">
<rect rx="6" ry="6" x="475" y="103" width="28" height="26" class="combo"/>
<text x="489" y="116" class="combo tap">⌘</text>
</g>
<g class="combo combopos-8">
<rect rx="6" ry="6" x="14" y="99" width="28" height="26" class="combo"/>
<text x="28" y="112" class="combo tap">`</text>
</g>
<g class="combo combopos-9">
<rect rx="6" ry="6" x="110" y="50" width="28" height="26" class="combo"/>
<text x="124" y="63" class="combo tap">@</text>
</g>
<g class="combo combopos-10">
<rect rx="6" ry="6" x="176" y="67" width="28" height="26" class="combo"/>
<text x="190" y="80" class="combo tap">£</text>
</g>
<g class="combo combopos-11">
<rect rx="6" ry="6" x="230" y="89" width="28" height="26" class="combo"/>
<text x="244" y="102" class="combo tap">$</text>
</g>
<g class="combo combopos-12">
<rect rx="6" ry="6" x="262" y="89" width="28" height="26" class="combo"/>
<text x="276" y="102" class="combo tap">%</text>
</g>
<g class="combo combopos-13">
<path d="M324,151 v-19 a6.0,6.0 0 0 0 -6.0,-6.0 h-4" class="combo"/>
<path d="M324,151 v19 a6.0,6.0 0 0 1 -6.0,6.0 h-28" class="combo"/>
<rect rx="6" ry="6" x="310" y="138" width="28" height="26" class="combo"/>
<text x="324" y="151" class="combo tap">|</text>
</g>
<g class="combo combopos-14">
<path d="M370,151 v-19 a6.0,6.0 0 0 1 6.0,-6.0 h4" class="combo"/>
<path d="M370,151 v19 a6.0,6.0 0 0 0 6.0,6.0 h28" class="combo"/>
<rect rx="6" ry="6" x="356" y="138" width="28" height="26" class="combo"/>
<text x="370" y="151" class="combo tap">!</text>
</g>
<g class="combo combopos-15">
<rect rx="6" ry="6" x="404" y="89" width="28" height="26" class="combo"/>
<text x="418" y="102" class="combo tap">^</text>
</g>
<g class="combo combopos-16">
<rect rx="6" ry="6" x="435" y="89" width="28" height="26" class="combo"/>
<text x="449" y="102" class="combo tap">&amp;</text>
</g>
<g class="combo combopos-17">
<rect rx="6" ry="6" x="490" y="67" width="28" height="26" class="combo"/>
<text x="504" y="80" class="combo tap">#</text>
</g>
<g class="combo combopos-18">
<rect rx="6" ry="6" x="556" y="50" width="28" height="26" class="combo"/>
<text x="570" y="63" class="combo tap">\</text>
</g>
<g class="combo combopos-19">
<rect rx="6" ry="6" x="652" y="99" width="28" height="26" class="combo"/>
<text x="666" y="112" class="combo tap">~</text>
</g>
<g class="combo combopos-20">
<rect rx="6" ry="6" x="238" y="139" width="28" height="26" class="combo"/>
<text x="252" y="152" class="combo tap">{</text>
</g>
<g class="combo combopos-21">
<rect rx="6" ry="6" x="428" y="139" width="28" height="26" class="combo"/>
<text x="442" y="152" class="combo tap">}</text>
</g>
<g class="combo combopos-22">
<rect rx="6" ry="6" x="250" y="114" width="28" height="26" class="combo"/>
<text x="264" y="127" class="combo tap">(&lt;</text>
</g>
<g class="combo combopos-23">
<rect rx="6" ry="6" x="416" y="114" width="28" height="26" class="combo"/>
<text x="430" y="127" class="combo tap">)&gt;</text>
</g>
<g class="combo combopos-24">
<rect rx="6" ry="6" x="226" y="165" width="28" height="26" class="combo"/>
<text x="240" y="178" class="combo tap">[{</text>
</g>
<g class="combo combopos-25">
<rect rx="6" ry="6" x="440" y="165" width="28" height="26" class="combo"/>
<text x="454" y="178" class="combo tap">]}</text>
</g>
</g>
</g>
</svg>
