<svg width="676" height="896" viewBox="0 0 676 896" class="keymap" xmlns="http://www.w3.org/2000/svg" xmlns:xlink="http://www.w3.org/1999/xlink">
<style>/* inherit to force styles through use tags*/
svg path {
    fill: inherit;
}
/* font and background color specifications */
svg.keymap {
    font-family: SFMono-Regular,Consolas,Liberation Mono,Menlo,monospace;
    font-size: 14px;
    font-kerning: normal;
    text-rendering: optimizeLegibility;
    fill: #24292e;
}

/* default key styling */
rect.key {
    fill: #f6f8fa;
    stroke: #c9cccf;
    stroke-width: 1;
}

/* color accent for combo boxes */
rect.combo {
    fill: #cdf;
}

/* color accent for held keys */
rect.held, rect.combo.held {
    fill: #fdd;
}

/* color accent for ghost (optional) keys */
rect.ghost, rect.combo.ghost {
    stroke-dasharray: 4, 4;
    stroke-width: 2;
}

text {
    text-anchor: middle;
    dominant-baseline: middle;
}

/* styling for layer labels */
text.label {
    font-weight: bold;
    text-anchor: start;
    stroke: white;
    stroke-width: 2;
    paint-order: stroke;
}

text.tap {
    font-size: 16px;
}

/* styling for combo tap, and key hold/shifted label text */
text.combo, text.hold, text.shifted {
    font-size: 11px;
}

text.hold {
    text-anchor: middle;
    dominant-baseline: auto;
}

text.shifted {
    text-anchor: middle;
    dominant-baseline: hanging;
}

/* styling for hold/shifted label text in combo box */
text.combo.hold, text.combo.shifted {
    font-size: 8px;
}

/* lighter symbol for transparent keys */
text.trans {
    fill: #7b7e81;
}

/* styling for combo dendrons */
path.combo {
    stroke-width: 1;
    stroke: gray;
    fill: none;
}

/* Start Tabler Icons Cleanup */
/* cannot use height/width with glyphs */
.icon-tabler > path {
    fill: inherit;
    stroke: inherit;
}
/* hide tabler's default box */
.icon-tabler > path[stroke="none"][fill="none"] {
    visibility: collapse;
}
/* green styling for Naginata kana-shift */
rect.kshift {
    fill: #00CC00;
}
text.left {
    font-size: 18px;
    translate: 16px 7px;
}
text.right {
    fill: #00CC00;
    font-size: 16px;
    translate: -16px -10px;
}
</style>
<g transform="translate(30, 0)" class="layer-HD Promethium">
<text x="0" y="28" class="label" id="HD-Promethium">HD Promethium</text>
<g transform="translate(0, 56)">
<g transform="translate(28, 28)" class="key keypos-0">
<rect rx="6" ry="6" x="-26" y="-26" width="52" height="52" class="key"/>
<text x="0" y="0" class="key tap">⎋</text>
</g>
<g transform="translate(84, 28)" class="key keypos-1">
<rect rx="6" ry="6" x="-26" y="-26" width="52" height="52" class="key"/>
<text x="0" y="0" class="key tap">P</text>
</g>
<g transform="translate(140, 28)" class="key keypos-2">
<rect rx="6" ry="6" x="-26" y="-26" width="52" height="52" class="key"/>
<text x="0" y="0" class="key tap">G</text>
</g>
<g transform="translate(196, 28)" class="key keypos-3">
<rect rx="6" ry="6" x="-26" y="-26" width="52" height="52" class="key"/>
<text x="0" y="0" class="key tap">M</text>
</g>
<g transform="translate(252, 28)" class="key keypos-4">
<rect rx="6" ry="6" x="-26" y="-26" width="52" height="52" class="key"/>
<text x="0" y="0" class="key tap">X</text>
</g>
<g transform="translate(364, 28)" class="key keypos-5">
<rect rx="6" ry="6" x="-26" y="-26" width="52" height="52" class="key"/>
<text x="0" y="0" class="key tap">/</text>
<text x="0" y="-24" class="key shifted">?</text>
</g>
<g transform="translate(420, 28)" class="key keypos-6">
<rect rx="6" ry="6" x="-26" y="-26" width="52" height="52" class="key"/>
<text x="0" y="0" class="key tap">.</text>
<text x="0" y="-24" class="key shifted">&gt;</text>
</g>
<g transform="translate(476, 28)" class="key keypos-7">
<rect rx="6" ry="6" x="-26" y="-26" width="52" height="52" class="key"/>
<text x="0" y="0" class="key tap">&#x27;</text>
<text x="0" y="-24" class="key shifted">2</text>
</g>
<g transform="translate(532, 28)" class="key keypos-8">
<rect rx="6" ry="6" x="-26" y="-26" width="52" height="52" class="key"/>
<text x="0" y="0" class="key tap">-</text>
<text x="0" y="-24" class="key shifted">_</text>
</g>
<g transform="translate(588, 28)" class="key keypos-9">
<rect rx="6" ry="6" x="-26" y="-26" width="52" height="52" class="key"/>
<text x="0" y="0" class="key tap">=</text>
<text x="0" y="-24" class="key shifted">+</text>
</g>
<g transform="translate(28, 84)" class="key keypos-10">
<rect rx="6" ry="6" x="-26" y="-26" width="52" height="52" class="key"/>
<text x="0" y="0" class="key tap">S</text>
</g>
<g transform="translate(84, 84)" class="key keypos-11">
<rect rx="6" ry="6" x="-26" y="-26" width="52" height="52" class="key"/>
<text x="0" y="0" class="key tap">N</text>
</g>
<g transform="translate(140, 84)" class="key keypos-12">
<rect rx="6" ry="6" x="-26" y="-26" width="52" height="52" class="key"/>
<text x="0" y="0" class="key tap">T</text>
</g>
<g transform="translate(196, 84)" class="key keypos-13">
<rect rx="6" ry="6" x="-26" y="-26" width="52" height="52" class="key"/>
<text x="0" y="0" class="key tap">H</text>
</g>
<g transform="translate(252, 84)" class="key keypos-14">
<rect rx="6" ry="6" x="-26" y="-26" width="52" height="52" class="key"/>
<text x="0" y="0" class="key tap">K</text>
</g>
<g transform="translate(364, 84)" class="key keypos-15">
<rect rx="6" ry="6" x="-26" y="-26" width="52" height="52" class="key"/>
<text x="0" y="0" class="key tap">,</text>
<text x="0" y="-24" class="key shifted">&lt;</text>
</g>
<g transform="translate(420, 84)" class="key keypos-16">
<rect rx="6" ry="6" x="-26" y="-26" width="52" height="52" class="key"/>
<text x="0" y="0" class="key tap">A</text>
</g>
<g transform="translate(476, 84)" class="key keypos-17">
<rect rx="6" ry="6" x="-26" y="-26" width="52" height="52" class="key"/>
<text x="0" y="0" class="key tap">E</text>
</g>
<g transform="translate(532, 84)" class="key keypos-18">
<rect rx="6" ry="6" x="-26" y="-26" width="52" height="52" class="key"/>
<text x="0" y="0" class="key tap">I</text>
</g>
<g transform="translate(588, 84)" class="key keypos-19">
<rect rx="6" ry="6" x="-26" y="-26" width="52" height="52" class="key"/>
<text x="0" y="0" class="key tap">C</text>
</g>
<g transform="translate(28, 140)" class="key keypos-20">
<rect rx="6" ry="6" x="-26" y="-26" width="52" height="52" class="key"/>
<text x="0" y="0" class="key tap">B</text>
</g>
<g transform="translate(84, 140)" class="key keypos-21">
<rect rx="6" ry="6" x="-26" y="-26" width="52" height="52" class="key"/>
<text x="0" y="0" class="key tap">F</text>
</g>
<g transform="translate(140, 140)" class="key keypos-22">
<rect rx="6" ry="6" x="-26" y="-26" width="52" height="52" class="key"/>
<text x="0" y="0" class="key tap">D</text>
</g>
<g transform="translate(196, 140)" class="key keypos-23">
<rect rx="6" ry="6" x="-26" y="-26" width="52" height="52" class="key"/>
<text x="0" y="0" class="key tap">L</text>
</g>
<g transform="translate(252, 140)" class="key keypos-24">
<rect rx="6" ry="6" x="-26" y="-26" width="52" height="52" class="key"/>
<text x="0" y="0" class="key tap">J</text>
</g>
<g transform="translate(364, 140)" class="key keypos-25">
<rect rx="6" ry="6" x="-26" y="-26" width="52" height="52" class="key"/>
<text x="0" y="0" class="key tap">;</text>
<text x="0" y="-24" class="key shifted">:</text>
</g>
<g transform="translate(420, 140)" class="key keypos-26">
<rect rx="6" ry="6" x="-26" y="-26" width="52" height="52" class="key"/>
<text x="0" y="0" class="key tap">U</text>
</g>
<g transform="translate(476, 140)" class="key keypos-27">
<rect rx="6" ry="6" x="-26" y="-26" width="52" height="52" class="key"/>
<text x="0" y="0" class="key tap">O</text>
</g>
<g transform="translate(532, 140)" class="key keypos-28">
<rect rx="6" ry="6" x="-26" y="-26" width="52" height="52" class="key"/>
<text x="0" y="0" class="key tap">Y</text>
</g>
<g transform="translate(588, 140)" class="key keypos-29">
<rect rx="6" ry="6" x="-26" y="-26" width="52" height="52" class="key"/>
<text x="0" y="0" class="key tap">W</text>
</g>
<g transform="translate(140, 196)" class="key keypos-30">
<rect rx="6" ry="6" x="-26" y="-26" width="52" height="52" class="key"/>
<text x="0" y="0" class="key tap">⌘</text>
</g>
<g transform="translate(196, 196)" class="key keypos-31">
<rect rx="6" ry="6" x="-26" y="-26" width="52" height="52" class="key"/>
<text x="0" y="0" class="key tap">R</text>
</g>
<g transform="translate(252, 196)" class="key keypos-32">
<rect rx="6" ry="6" x="-26" y="-26" width="52" height="52" class="key"/>
<text x="0" y="0" class="key tap">⌫</text>
</g>
<g transform="translate(364, 196)" class="key keypos-33">
<rect rx="6" ry="6" x="-26" y="-26" width="52" height="52" class="key"/>
<text x="0" y="0" class="key tap">⇧</text>
</g>
<g transform="translate(420, 196)" class="key keypos-34">
<rect rx="6" ry="6" x="-26" y="-26" width="52" height="52" class="key"/>
<text x="0" y="0" class="key tap">⎵</text>
</g>
<g transform="translate(476, 196)" class="key keypos-35">
<rect rx="6" ry="6" x="-26" y="-26" width="52" height="52" class="key"/>
<a href="#Num--Nav">
<text x="0" y="0" class="key tap layer-activator">
<tspan x="0" dy="-1.2em">Num</tspan><tspan x="0" dy="1.2em">+</tspan><tspan x="0" dy="1.2em">Nav</tspan>
</text>
</a></g>
<g class="combo combopos-2">
<path d="M448,112 h-78 a6.0,6.0 0 0 1 -6.0,-6.0 v-3" class="combo"/>
<path d="M448,112 h22 a6.0,6.0 0 0 0 6.0,-6.0 v-3" class="combo"/>
<rect rx="6" ry="6" x="434" y="104" width="28" height="15" class="combo"/>
<text x="448" y="112" class="combo tap">かな</text>
</g>
<g class="combo combopos-3">
<path d="M168,112 h78 a6.0,6.0 0 0 0 6.0,-6.0 v-3" class="combo"/>
<path d="M168,112 h-22 a6.0,6.0 0 0 1 -6.0,-6.0 v-3" class="combo"/>
<rect rx="6" ry="6" x="154" y="104" width="28" height="15" class="combo"/>
<text x="168" y="112" class="combo tap">ABC</text>
</g>
<g class="combo combopos-4">
<path d="M112,168 h78 a6.0,6.0 0 0 0 6.0,-6.0 v-3" class="combo"/>
<path d="M112,168 h22 a6.0,6.0 0 0 0 6.0,-6.0 v-3" class="combo"/>
<path d="M112,168 h-22 a6.0,6.0 0 0 1 -6.0,-6.0 v-3" class="combo"/>
<rect rx="6" ry="6" x="98" y="160" width="28" height="15" class="combo"/>
<text x="112" y="168" class="combo tap">↹</text>
</g>
<g class="combo combopos-5">
<path d="M504,168 h-78 a6.0,6.0 0 0 1 -6.0,-6.0 v-3" class="combo"/>
<path d="M504,168 h-22 a6.0,6.0 0 0 1 -6.0,-6.0 v-3" class="combo"/>
<path d="M504,168 h22 a6.0,6.0 0 0 0 6.0,-6.0 v-3" class="combo"/>
<rect rx="6" ry="6" x="490" y="160" width="28" height="15" class="combo"/>
<text x="504" y="168" class="combo tap">⏎</text>
</g>
<g class="combo combopos-6">
<rect rx="6" ry="6" x="42" y="71" width="28" height="26" class="combo"/>
<text x="56" y="84" class="combo tap">⎇</text>
</g>
<g class="combo combopos-7">
<rect rx="6" ry="6" x="98" y="71" width="28" height="26" class="combo"/>
<text x="112" y="84" class="combo tap">⌃</text>
</g>
<g class="combo combopos-8">
<rect rx="6" ry="6" x="154" y="71" width="28" height="26" class="combo"/>
<text x="168" y="84" class="combo tap">⌘</text>
</g>
<g class="combo combopos-9">
<rect rx="6" ry="6" x="546" y="71" width="28" height="26" class="combo"/>
<text x="560" y="84" class="combo tap">⎇</text>
</g>
<g class="combo combopos-10">
<rect rx="6" ry="6" x="490" y="71" width="28" height="26" class="combo"/>
<text x="504" y="84" class="combo tap">⌃</text>
</g>
<g class="combo combopos-11">
<rect rx="6" ry="6" x="434" y="71" width="28" height="26" class="combo"/>
<text x="448" y="84" class="combo tap">⌘</text>
</g>
<g class="combo combopos-12">
<rect rx="6" ry="6" x="42" y="127" width="28" height="26" class="combo"/>
<text x="56" y="140" class="combo tap">Q</text>
</g>
<g class="combo combopos-13">
<rect rx="6" ry="6" x="546" y="127" width="28" height="26" class="combo"/>
<text x="560" y="140" class="combo tap">Z</text>
</g>
<g class="combo combopos-14">
<rect rx="6" ry="6" x="98" y="15" width="28" height="26" class="combo"/>
<text x="112" y="28" class="combo tap">V</text>
</g>
<g class="combo combopos-15">
<rect rx="6" ry="6" x="14" y="43" width="28" height="26" class="combo"/>
<text x="28" y="56" class="combo tap">`</text>
</g>
<g class="combo combopos-16">
<rect rx="6" ry="6" x="70" y="43" width="28" height="26" class="combo"/>
<text x="84" y="56" class="combo tap">@</text>
</g>
<g class="combo combopos-17">
<rect rx="6" ry="6" x="126" y="43" width="28" height="26" class="combo"/>
<text x="140" y="56" class="combo tap">£</text>
</g>
<g class="combo combopos-18">
<rect rx="6" ry="6" x="182" y="43" width="28" height="26" class="combo"/>
<text x="196" y="56" class="combo tap">$</text>
</g>
<g class="combo combopos-19">
<rect rx="6" ry="6" x="238" y="43" width="28" height="26" class="combo"/>
<text x="252" y="56" class="combo tap">%</text>
</g>
<g class="combo combopos-20">
<path d="M281,112 v-22 a6.0,6.0 0 0 0 -6.0,-6.0 h-4" class="combo"/>
<path d="M281,112 v22 a6.0,6.0 0 0 1 -6.0,6.0 h-4" class="combo"/>
<rect rx="6" ry="6" x="267" y="99" width="28" height="26" class="combo"/>
<text x="281" y="112" class="combo tap">|</text>
</g>
<g class="combo combopos-21">
<path d="M335,112 v-22 a6.0,6.0 0 0 1 6.0,-6.0 h4" class="combo"/>
<path d="M335,112 v22 a6.0,6.0 0 0 0 6.0,6.0 h4" class="combo"/>
<rect rx="6" ry="6" x="321" y="99" width="28" height="26" class="combo"/>
<text x="335" y="112" class="combo tap">!</text>
</g>
<g class="combo combopos-22">
<rect rx="6" ry="6" x="350" y="43" width="28" height="26" class="combo"/>
<text x="364" y="56" class="combo tap">^</text>
</g>
<g class="combo combopos-23">
<rect rx="6" ry="6" x="406" y="43" width="28" height="26" class="combo"/>
<text x="420" y="56" class="combo tap">&amp;</text>
</g>
<g class="combo combopos-24">
<rect rx="6" ry="6" x="462" y="43" width="28" height="26" class="combo"/>
<text x="476" y="56" class="combo tap">#</text>
</g>
<g class="combo combopos-25">
<rect rx="6" ry="6" x="518" y="43" width="28" height="26" class="combo"/>
<text x="532" y="56" class="combo tap">\</text>
</g>
<g class="combo combopos-26">
<rect rx="6" ry="6" x="574" y="43" width="28" height="26" class="combo"/>
<text x="588" y="56" class="combo tap">~</text>
</g>
<g class="combo combopos-27">
<rect rx="6" ry="6" x="210" y="15" width="28" height="26" class="combo"/>
<text x="224" y="28" class="combo tap">{</text>
</g>
<g class="combo combopos-28">
<rect rx="6" ry="6" x="378" y="15" width="28" height="26" class="combo"/>
<text x="392" y="28" class="combo tap">}</text>
</g>
<g class="combo combopos-29">
<rect rx="6" ry="6" x="210" y="71" width="28" height="26" class="combo"/>
<text x="224" y="84" class="combo tap">(</text>
</g>
<g class="combo combopos-30">
<rect rx="6" ry="6" x="378" y="71" width="28" height="26" class="combo"/>
<text x="392" y="84" class="combo tap">)</text>
</g>
<g class="combo combopos-31">
<rect rx="6" ry="6" x="210" y="127" width="28" height="26" class="combo"/>
<text x="224" y="140" class="combo tap">[</text>
</g>
<g class="combo combopos-32">
<rect rx="6" ry="6" x="378" y="127" width="28" height="26" class="combo"/>
<text x="392" y="140" class="combo tap">]</text>
</g>
</g>
</g>
<g transform="translate(30, 280)" class="layer-Naginata">
<text x="0" y="28" class="label" id="Naginata">Naginata</text>
<g transform="translate(0, 56)">
<g transform="translate(28, 28)" class="key keypos-0">
<rect rx="6" ry="6" x="-26" y="-26" width="52" height="52" class="key"/>
<text x="0" y="0" class="key tap">⎋</text>
<text x="0" y="24" class="key hold"><tspan style="font-size: 70%">Small-kana</tspan></text>
</g>
<g transform="translate(84, 28)" class="key keypos-1">
<rect rx="6" ry="6" x="-26" y="-26" width="52" height="52" class="key"/>
<text x="-24" y="0" class="key left">き</text>
<text x="24" y="0" class="key right">ぬ</text>
</g>
<g transform="translate(140, 28)" class="key keypos-2">
<rect rx="6" ry="6" x="-26" y="-26" width="52" height="52" class="key"/>
<text x="-24" y="0" class="key left">て</text>
<text x="24" y="0" class="key right">り</text>
</g>
<g transform="translate(196, 28)" class="key keypos-3">
<rect rx="6" ry="6" x="-26" y="-26" width="52" height="52" class="key"/>
<text x="-24" y="0" class="key left">し</text>
<text x="24" y="0" class="key right">め</text>
</g>
<g transform="translate(252, 28)" class="key keypos-4">
<rect rx="6" ry="6" x="-26" y="-26" width="52" height="52" class="key"/>
<text x="0" y="0" class="key tap">←</text>
</g>
<g transform="translate(364, 28)" class="key keypos-5">
<rect rx="6" ry="6" x="-26" y="-26" width="52" height="52" class="key"/>
<text x="0" y="0" class="key tap">→</text>
</g>
<g transform="translate(420, 28)" class="key keypos-6">
<rect rx="6" ry="6" x="-26" y="-26" width="52" height="52" class="key"/>
<text x="-24" y="0" class="key left">⌫</text>
<text x="24" y="0" class="key right">さ</text>
</g>
<g transform="translate(476, 28)" class="key keypos-7">
<rect rx="6" ry="6" x="-26" y="-26" width="52" height="52" class="key"/>
<text x="-24" y="0" class="key left">る</text>
<text x="24" y="0" class="key right">よ</text>
</g>
<g transform="translate(532, 28)" class="key keypos-8">
<rect rx="6" ry="6" x="-26" y="-26" width="52" height="52" class="key"/>
<text x="-24" y="0" class="key left">す</text>
<text x="24" y="0" class="key right">え</text>
</g>
<g transform="translate(588, 28)" class="key keypos-9">
<rect rx="6" ry="6" x="-26" y="-26" width="52" height="52" class="key"/>
<text x="-24" y="0" class="key left">へ</text>
<text x="24" y="0" class="key right">ゆ</text>
</g>
<g transform="translate(28, 84)" class="key keypos-10">
<rect rx="6" ry="6" x="-26" y="-26" width="52" height="52" class="key"/>
<text x="-24" y="0" class="key left">ろ</text>
<text x="24" y="0" class="key right">せ</text>
</g>
<g transform="translate(84, 84)" class="key keypos-11">
<rect rx="6" ry="6" x="-26" y="-26" width="52" height="52" class="key"/>
<text x="-24" y="0" class="key left">け</text>
<text x="24" y="0" class="key right">み</text>
</g>
<g transform="translate(140, 84)" class="key keypos-12">
<rect rx="6" ry="6" x="-26" y="-26" width="52" height="52" class="key"/>
<text x="-24" y="0" class="key left">と</text>
<text x="24" y="0" class="key right">に</text>
</g>
<g transform="translate(196, 84)" class="key keypos-13">
<rect rx="6" ry="6" x="-26" y="-26" width="52" height="52" class="key"/>
<text x="0" y="24" class="key hold">濁音</text>
<text x="-24" y="0" class="key left">か</text>
<text x="24" y="0" class="key right">ま</text>
</g>
<g transform="translate(252, 84)" class="key keypos-14">
<rect rx="6" ry="6" x="-26" y="-26" width="52" height="52" class="key"/>
<text x="-24" y="0" class="key left">っ</text>
<text x="24" y="0" class="key right">ち</text>
</g>
<g transform="translate(364, 84)" class="key keypos-15">
<rect rx="6" ry="6" x="-26" y="-26" width="52" height="52" class="key"/>
<text x="-24" y="0" class="key left">く</text>
<text x="24" y="0" class="key right">や</text>
</g>
<g transform="translate(420, 84)" class="key keypos-16">
<rect rx="6" ry="6" x="-26" y="-26" width="52" height="52" class="key"/>
<text x="0" y="24" class="key hold">濁音</text>
<text x="-24" y="0" class="key left">あ</text>
<text x="24" y="0" class="key right">の</text>
</g>
<g transform="translate(476, 84)" class="key keypos-17">
<rect rx="6" ry="6" x="-26" y="-26" width="52" height="52" class="key"/>
<text x="-24" y="0" class="key left">い</text>
<text x="24" y="0" class="key right">も</text>
</g>
<g transform="translate(532, 84)" class="key keypos-18">
<rect rx="6" ry="6" x="-26" y="-26" width="52" height="52" class="key"/>
<text x="-24" y="0" class="key left">う</text>
<text x="24" y="0" class="key right">つ</text>
</g>
<g transform="translate(588, 84)" class="key keypos-19">
<rect rx="6" ry="6" x="-26" y="-26" width="52" height="52" class="key"/>
<text x="-24" y="0" class="key left">ー</text>
<text x="24" y="0" class="key right">ふ</text>
</g>
<g transform="translate(28, 140)" class="key keypos-20">
<rect rx="6" ry="6" x="-26" y="-26" width="52" height="52" class="key"/>
<text x="-24" y="0" class="key left">ほ</text>
</g>
<g transform="translate(84, 140)" class="key keypos-21">
<rect rx="6" ry="6" x="-26" y="-26" width="52" height="52" class="key"/>
<text x="-24" y="0" class="key left">ひ</text>
</g>
<g transform="translate(140, 140)" class="key keypos-22">
<rect rx="6" ry="6" x="-26" y="-26" width="52" height="52" class="key"/>
<text x="-24" y="0" class="key left">は</text>
<text x="24" y="0" class="key right">を</text>
</g>
<g transform="translate(196, 140)" class="key keypos-23">
<rect rx="6" ry="6" x="-26" y="-26" width="52" height="52" class="key"/>
<text x="0" y="24" class="key hold">半濁音</text>
<text x="-24" y="0" class="key left">こ</text>
<text x="24" y="0" class="key right">、</text>
</g>
<g transform="translate(252, 140)" class="key keypos-24">
<rect rx="6" ry="6" x="-26" y="-26" width="52" height="52" class="key"/>
<text x="-24" y="0" class="key left">そ</text>
<text x="24" y="0" class="key right">む</text>
</g>
<g transform="translate(364, 140)" class="key keypos-25">
<rect rx="6" ry="6" x="-26" y="-26" width="52" height="52" class="key"/>
<text x="-24" y="0" class="key left">た</text>
<text x="24" y="0" class="key right">お</text>
</g>
<g transform="translate(420, 140)" class="key keypos-26">
<rect rx="6" ry="6" x="-26" y="-26" width="52" height="52" class="key"/>
<text x="0" y="24" class="key hold">半濁音</text>
<text x="-24" y="0" class="key left">な</text>
<text x="24" y="0" class="key right">。</text>
</g>
<g transform="translate(476, 140)" class="key keypos-27">
<rect rx="6" ry="6" x="-26" y="-26" width="52" height="52" class="key"/>
<text x="-24" y="0" class="key left">ん</text>
<text x="24" y="0" class="key right">ね</text>
</g>
<g transform="translate(532, 140)" class="key keypos-28">
<rect rx="6" ry="6" x="-26" y="-26" width="52" height="52" class="key"/>
<text x="-24" y="0" class="key left">ら</text>
<text x="24" y="0" class="key right">わ</text>
</g>
<g transform="translate(588, 140)" class="key keypos-29">
<rect rx="6" ry="6" x="-26" y="-26" width="52" height="52" class="key"/>
<text x="-24" y="0" class="key left">れ</text>
</g>
<g transform="translate(140, 196)" class="key keypos-30">
<rect rx="6" ry="6" x="-26" y="-26" width="52" height="52" class="key"/>
<text x="0" y="0" class="key tap">⌘</text>
</g>
<g transform="translate(196, 196)" class="key kshift keypos-31">
<rect rx="6" ry="6" x="-26" y="-26" width="52" height="52" class="key kshift"/>
<text x="0" y="0" class="key kshift tap">⏎</text>
<text x="0" y="24" class="key kshift hold"><tspan style="font-size: 70%">Kana-Shift</tspan></text>
</g>
<g transform="translate(252, 196)" class="key keypos-32">
<rect rx="6" ry="6" x="-26" y="-26" width="52" height="52" class="key"/>
<text x="0" y="0" class="key tap">⌫</text>
</g>
<g transform="translate(364, 196)" class="key keypos-33">
<rect rx="6" ry="6" x="-26" y="-26" width="52" height="52" class="key"/>
<text x="0" y="0" class="key tap">⇧⎵</text>
<text x="0" y="24" class="key hold">⇧</text>
</g>
<g transform="translate(420, 196)" class="key kshift keypos-34">
<rect rx="6" ry="6" x="-26" y="-26" width="52" height="52" class="key kshift"/>
<text x="0" y="0" class="key kshift tap">⎵</text>
<text x="0" y="24" class="key kshift hold"><tspan style="font-size: 70%">Kana-Shift</tspan></text>
</g>
<g transform="translate(476, 196)" class="key keypos-35">
<rect rx="6" ry="6" x="-26" y="-26" width="52" height="52" class="key"/>
<a href="#Num--Nav">
<text x="0" y="0" class="key tap layer-activator">
<tspan x="0" dy="-1.2em">Num</tspan><tspan x="0" dy="1.2em">+</tspan><tspan x="0" dy="1.2em">Nav</tspan>
</text>
</a></g>
<g class="combo combopos-0">
<path d="M448,112 h-78 a6.0,6.0 0 0 1 -6.0,-6.0 v-3" class="combo"/>
<path d="M448,112 h22 a6.0,6.0 0 0 0 6.0,-6.0 v-3" class="combo"/>
<rect rx="6" ry="6" x="434" y="104" width="28" height="15" class="combo"/>
<text x="448" y="112" class="combo tap">かな</text>
</g>
<g class="combo combopos-1">
<path d="M168,112 h78 a6.0,6.0 0 0 0 6.0,-6.0 v-3" class="combo"/>
<path d="M168,112 h-22 a6.0,6.0 0 0 1 -6.0,-6.0 v-3" class="combo"/>
<rect rx="6" ry="6" x="154" y="104" width="28" height="15" class="combo"/>
<text x="168" y="112" class="combo tap">ABC</text>
</g>
<g class="combo combopos-2">
<path d="M112,168 h78 a6.0,6.0 0 0 0 6.0,-6.0 v-3" class="combo"/>
<path d="M112,168 h22 a6.0,6.0 0 0 0 6.0,-6.0 v-3" class="combo"/>
<path d="M112,168 h-22 a6.0,6.0 0 0 1 -6.0,-6.0 v-3" class="combo"/>
<rect rx="6" ry="6" x="98" y="160" width="28" height="15" class="combo"/>
<text x="112" y="168" class="combo tap">↹</text>
</g>
<g class="combo combopos-3">
<path d="M504,168 h-78 a6.0,6.0 0 0 1 -6.0,-6.0 v-3" class="combo"/>
<path d="M504,168 h-22 a6.0,6.0 0 0 1 -6.0,-6.0 v-3" class="combo"/>
<path d="M504,168 h22 a6.0,6.0 0 0 0 6.0,-6.0 v-3" class="combo"/>
<rect rx="6" ry="6" x="490" y="160" width="28" height="15" class="combo"/>
<text x="504" y="168" class="combo tap">⏎</text>
</g>
</g>
</g>
<g transform="translate(30, 560)" class="layer-Num + Nav">
<text x="0" y="28" class="label" id="Num--Nav">Num + Nav</text>
<g transform="translate(0, 56)">
<g transform="translate(28, 28)" class="key keypos-0">
<rect rx="6" ry="6" x="-26" y="-26" width="52" height="52" class="key"/>
<text x="0" y="0" class="key tap">/</text>
</g>
<g transform="translate(84, 28)" class="key keypos-1">
<rect rx="6" ry="6" x="-26" y="-26" width="52" height="52" class="key"/>
<text x="0" y="0" class="key tap">1</text>
</g>
<g transform="translate(140, 28)" class="key keypos-2">
<rect rx="6" ry="6" x="-26" y="-26" width="52" height="52" class="key"/>
<text x="0" y="0" class="key tap">2</text>
</g>
<g transform="translate(196, 28)" class="key keypos-3">
<rect rx="6" ry="6" x="-26" y="-26" width="52" height="52" class="key"/>
<text x="0" y="0" class="key tap">3</text>
</g>
<g transform="translate(252, 28)" class="key keypos-4">
<rect rx="6" ry="6" x="-26" y="-26" width="52" height="52" class="key"/>
<text x="0" y="0" class="key tap">=</text>
</g>
<g transform="translate(364, 28)" class="key keypos-5">
<rect rx="6" ry="6" x="-26" y="-26" width="52" height="52" class="key"/>
<text x="0" y="0" class="key tap">⎋</text>
</g>
<g transform="translate(420, 28)" class="key keypos-6">
<rect rx="6" ry="6" x="-26" y="-26" width="52" height="52" class="key"/>
<text x="0" y="0" class="key tap">↖</text>
</g>
<g transform="translate(476, 28)" class="key keypos-7">
<rect rx="6" ry="6" x="-26" y="-26" width="52" height="52" class="key"/>
<text x="0" y="0" class="key tap">↑</text>
</g>
<g transform="translate(532, 28)" class="key keypos-8">
<rect rx="6" ry="6" x="-26" y="-26" width="52" height="52" class="key"/>
<text x="0" y="0" class="key tap">↘</text>
</g>
<g transform="translate(588, 28)" class="key keypos-9">
<rect rx="6" ry="6" x="-26" y="-26" width="52" height="52" class="key"/>
<text x="0" y="0" class="key tap">⌫</text>
</g>
<g transform="translate(28, 84)" class="key keypos-10">
<rect rx="6" ry="6" x="-26" y="-26" width="52" height="52" class="key"/>
<text x="0" y="0" class="key tap">*</text>
</g>
<g transform="translate(84, 84)" class="key keypos-11">
<rect rx="6" ry="6" x="-26" y="-26" width="52" height="52" class="key"/>
<text x="0" y="0" class="key tap">4</text>
</g>
<g transform="translate(140, 84)" class="key keypos-12">
<rect rx="6" ry="6" x="-26" y="-26" width="52" height="52" class="key"/>
<text x="0" y="0" class="key tap">5</text>
</g>
<g transform="translate(196, 84)" class="key keypos-13">
<rect rx="6" ry="6" x="-26" y="-26" width="52" height="52" class="key"/>
<text x="0" y="0" class="key tap">6</text>
</g>
<g transform="translate(252, 84)" class="key keypos-14">
<rect rx="6" ry="6" x="-26" y="-26" width="52" height="52" class="key"/>
<text x="0" y="0" class="key tap">+</text>
</g>
<g transform="translate(364, 84)" class="key keypos-15">
<rect rx="6" ry="6" x="-26" y="-26" width="52" height="52" class="key"/>
<text x="0" y="0" class="key tap">⇞</text>
</g>
<g transform="translate(420, 84)" class="key keypos-16">
<rect rx="6" ry="6" x="-26" y="-26" width="52" height="52" class="key"/>
<text x="0" y="0" class="key tap">←</text>
</g>
<g transform="translate(476, 84)" class="key keypos-17">
<rect rx="6" ry="6" x="-26" y="-26" width="52" height="52" class="key"/>
<text x="0" y="0" class="key tap">↓</text>
</g>
<g transform="translate(532, 84)" class="key keypos-18">
<rect rx="6" ry="6" x="-26" y="-26" width="52" height="52" class="key"/>
<text x="0" y="0" class="key tap">→</text>
</g>
<g transform="translate(588, 84)" class="key keypos-19">
<rect rx="6" ry="6" x="-26" y="-26" width="52" height="52" class="key"/>
<text x="0" y="0" class="key tap">Q</text>
</g>
<g transform="translate(28, 140)" class="key keypos-20">
<rect rx="6" ry="6" x="-26" y="-26" width="52" height="52" class="key"/>
<text x="0" y="0" class="key tap">.</text>
<text x="0" y="24" class="key hold">⇧</text>
</g>
<g transform="translate(84, 140)" class="key keypos-21">
<rect rx="6" ry="6" x="-26" y="-26" width="52" height="52" class="key"/>
<text x="0" y="0" class="key tap">7</text>
</g>
<g transform="translate(140, 140)" class="key keypos-22">
<rect rx="6" ry="6" x="-26" y="-26" width="52" height="52" class="key"/>
<text x="0" y="0" class="key tap">8</text>
</g>
<g transform="translate(196, 140)" class="key keypos-23">
<rect rx="6" ry="6" x="-26" y="-26" width="52" height="52" class="key"/>
<text x="0" y="0" class="key tap">9</text>
</g>
<g transform="translate(252, 140)" class="key keypos-24">
<rect rx="6" ry="6" x="-26" y="-26" width="52" height="52" class="key"/>
<text x="0" y="0" class="key tap">-</text>
</g>
<g transform="translate(364, 140)" class="key keypos-25">
<rect rx="6" ry="6" x="-26" y="-26" width="52" height="52" class="key"/>
<text x="0" y="0" class="key tap">⇟</text>
</g>
<g transform="translate(420, 140)" class="key keypos-26">
<rect rx="6" ry="6" x="-26" y="-26" width="52" height="52" class="key"/>
<text x="0" y="0" class="key tap">↞</text>
</g>
<g transform="translate(476, 140)" class="key keypos-27">
<rect rx="6" ry="6" x="-26" y="-26" width="52" height="52" class="key"/>
<text x="0" y="0" class="key tap">⏎</text>
</g>
<g transform="translate(532, 140)" class="key keypos-28">
<rect rx="6" ry="6" x="-26" y="-26" width="52" height="52" class="key"/>
<text x="0" y="0" class="key tap">↠</text>
</g>
<g transform="translate(588, 140)" class="key keypos-29">
<rect rx="6" ry="6" x="-26" y="-26" width="52" height="52" class="key"/>
<text x="0" y="0" class="key tap">Z</text>
</g>
<g transform="translate(140, 196)" class="key trans keypos-30">
<rect rx="6" ry="6" x="-26" y="-26" width="52" height="52" class="key trans"/>
<text x="0" y="0" class="key trans tap">▽</text>
</g>
<g transform="translate(196, 196)" class="key keypos-31">
<rect rx="6" ry="6" x="-26" y="-26" width="52" height="52" class="key"/>
<text x="0" y="0" class="key tap">0</text>
</g>
<g transform="translate(252, 196)" class="key trans keypos-32">
<rect rx="6" ry="6" x="-26" y="-26" width="52" height="52" class="key trans"/>
<text x="0" y="0" class="key trans tap">▽</text>
</g>
<g transform="translate(364, 196)" class="key trans keypos-33">
<rect rx="6" ry="6" x="-26" y="-26" width="52" height="52" class="key trans"/>
<text x="0" y="0" class="key trans tap">▽</text>
</g>
<g transform="translate(420, 196)" class="key trans keypos-34">
<rect rx="6" ry="6" x="-26" y="-26" width="52" height="52" class="key trans"/>
<text x="0" y="0" class="key trans tap">▽</text>
</g>
<g transform="translate(476, 196)" class="key held keypos-35">
<rect rx="6" ry="6" x="-26" y="-26" width="52" height="52" class="key held"/>
</g>
<g class="combo combopos-0">
<path d="M112,168 h78 a6.0,6.0 0 0 0 6.0,-6.0 v-3" class="combo"/>
<path d="M112,168 h22 a6.0,6.0 0 0 0 6.0,-6.0 v-3" class="combo"/>
<path d="M112,168 h-22 a6.0,6.0 0 0 1 -6.0,-6.0 v-3" class="combo"/>
<rect rx="6" ry="6" x="98" y="160" width="28" height="15" class="combo"/>
<text x="112" y="168" class="combo tap">↹</text>
</g>
<g class="combo combopos-1">
<path d="M504,168 h-78 a6.0,6.0 0 0 1 -6.0,-6.0 v-3" class="combo"/>
<path d="M504,168 h-22 a6.0,6.0 0 0 1 -6.0,-6.0 v-3" class="combo"/>
<path d="M504,168 h22 a6.0,6.0 0 0 0 6.0,-6.0 v-3" class="combo"/>
<rect rx="6" ry="6" x="490" y="160" width="28" height="15" class="combo"/>
<text x="504" y="168" class="combo tap">⏎</text>
</g>
<g class="combo combopos-2">
<rect rx="6" ry="6" x="42" y="71" width="28" height="26" class="combo"/>
<text x="56" y="84" class="combo tap">⎇</text>
</g>
<g class="combo combopos-3">
<rect rx="6" ry="6" x="98" y="71" width="28" height="26" class="combo"/>
<text x="112" y="84" class="combo tap">⌃</text>
</g>
<g class="combo combopos-4">
<rect rx="6" ry="6" x="154" y="71" width="28" height="26" class="combo"/>
<text x="168" y="84" class="combo tap">⌘</text>
</g>
<g class="combo combopos-5">
<rect rx="6" ry="6" x="546" y="71" width="28" height="26" class="combo"/>
<text x="560" y="84" class="combo tap">⎇</text>
</g>
<g class="combo combopos-6">
<rect rx="6" ry="6" x="490" y="71" width="28" height="26" class="combo"/>
<text x="504" y="84" class="combo tap">⌃</text>
</g>
<g class="combo combopos-7">
<rect rx="6" ry="6" x="434" y="71" width="28" height="26" class="combo"/>
<text x="448" y="84" class="combo tap">⌘</text>
</g>
<g class="combo combopos-8">
<rect rx="6" ry="6" x="14" y="43" width="28" height="26" class="combo"/>
<text x="28" y="56" class="combo tap">`</text>
</g>
<g class="combo combopos-9">
<rect rx="6" ry="6" x="70" y="43" width="28" height="26" class="combo"/>
<text x="84" y="56" class="combo tap">@</text>
</g>
<g class="combo combopos-10">
<rect rx="6" ry="6" x="126" y="43" width="28" height="26" class="combo"/>
<text x="140" y="56" class="combo tap">£</text>
</g>
<g class="combo combopos-11">
<rect rx="6" ry="6" x="182" y="43" width="28" height="26" class="combo"/>
<text x="196" y="56" class="combo tap">$</text>
</g>
<g class="combo combopos-12">
<rect rx="6" ry="6" x="238" y="43" width="28" height="26" class="combo"/>
<text x="252" y="56" class="combo tap">%</text>
</g>
<g class="combo combopos-13">
<path d="M281,112 v-22 a6.0,6.0 0 0 0 -6.0,-6.0 h-4" class="combo"/>
<path d="M281,112 v22 a6.0,6.0 0 0 1 -6.0,6.0 h-4" class="combo"/>
<rect rx="6" ry="6" x="267" y="99" width="28" height="26" class="combo"/>
<text x="281" y="112" class="combo tap">|</text>
</g>
<g class="combo combopos-14">
<path d="M335,112 v-22 a6.0,6.0 0 0 1 6.0,-6.0 h4" class="combo"/>
<path d="M335,112 v22 a6.0,6.0 0 0 0 6.0,6.0 h4" class="combo"/>
<rect rx="6" ry="6" x="321" y="99" width="28" height="26" class="combo"/>
<text x="335" y="112" class="combo tap">!</text>
</g>
<g class="combo combopos-15">
<rect rx="6" ry="6" x="350" y="43" width="28" height="26" class="combo"/>
<text x="364" y="56" class="combo tap">^</text>
</g>
<g class="combo combopos-16">
<rect rx="6" ry="6" x="406" y="43" width="28" height="26" class="combo"/>
<text x="420" y="56" class="combo tap">&amp;</text>
</g>
<g class="combo combopos-17">
<rect rx="6" ry="6" x="462" y="43" width="28" height="26" class="combo"/>
<text x="476" y="56" class="combo tap">#</text>
</g>
<g class="combo combopos-18">
<rect rx="6" ry="6" x="518" y="43" width="28" height="26" class="combo"/>
<text x="532" y="56" class="combo tap">\</text>
</g>
<g class="combo combopos-19">
<rect rx="6" ry="6" x="574" y="43" width="28" height="26" class="combo"/>
<text x="588" y="56" class="combo tap">~</text>
</g>
<g class="combo combopos-20">
<rect rx="6" ry="6" x="210" y="15" width="28" height="26" class="combo"/>
<text x="224" y="28" class="combo tap">{</text>
</g>
<g class="combo combopos-21">
<rect rx="6" ry="6" x="378" y="15" width="28" height="26" class="combo"/>
<text x="392" y="28" class="combo tap">}</text>
</g>
<g class="combo combopos-22">
<rect rx="6" ry="6" x="210" y="71" width="28" height="26" class="combo"/>
<text x="224" y="84" class="combo tap">(</text>
</g>
<g class="combo combopos-23">
<rect rx="6" ry="6" x="378" y="71" width="28" height="26" class="combo"/>
<text x="392" y="84" class="combo tap">)</text>
</g>
<g class="combo combopos-24">
<rect rx="6" ry="6" x="210" y="127" width="28" height="26" class="combo"/>
<text x="224" y="140" class="combo tap">[</text>
</g>
<g class="combo combopos-25">
<rect rx="6" ry="6" x="378" y="127" width="28" height="26" class="combo"/>
<text x="392" y="140" class="combo tap">]</text>
</g>
</g>
</g>
</svg>
