<svg width="907" height="1150" viewBox="0 0 907 1150" class="keymap" xmlns="http://www.w3.org/2000/svg" xmlns:xlink="http://www.w3.org/1999/xlink">
<style>/* inherit to force styles through use tags*/
svg path {
    fill: inherit;
}
/* font and background color specifications */
svg.keymap {
    font-family: SFMono-Regular,Consolas,Liberation Mono,Menlo,monospace;
    font-size: 14px;
    font-kerning: normal;
    text-rendering: optimizeLegibility;
    fill: #24292e;
}

/* default key styling */
rect.key {
    fill: #f6f8fa;
    stroke: #c9cccf;
    stroke-width: 1;
}

/* color accent for combo boxes */
rect.combo {
    fill: #cdf;
}

/* color accent for held keys */
rect.held, rect.combo.held {
    fill: #fdd;
}

/* color accent for ghost (optional) keys */
rect.ghost, rect.combo.ghost {
    stroke-dasharray: 4, 4;
    stroke-width: 2;
}

text {
    text-anchor: middle;
    dominant-baseline: middle;
}

/* styling for layer labels */
text.label {
    font-weight: bold;
    text-anchor: start;
    stroke: white;
    stroke-width: 2;
    paint-order: stroke;
}

text.tap {
    font-size: 16px;
}

/* styling for combo tap, and key hold/shifted label text */
text.combo, text.hold, text.shifted {
    font-size: 11px;
}

text.hold {
    text-anchor: middle;
    dominant-baseline: auto;
}

text.shifted {
    text-anchor: middle;
    dominant-baseline: hanging;
}

/* styling for hold/shifted label text in combo box */
text.combo.hold, text.combo.shifted {
    font-size: 8px;
}

/* lighter symbol for transparent keys */
text.trans {
    fill: #7b7e81;
}

/* styling for combo dendrons */
path.combo {
    stroke-width: 1;
    stroke: gray;
    fill: none;
}

/* Start Tabler Icons Cleanup */
/* cannot use height/width with glyphs */
.icon-tabler > path {
    fill: inherit;
    stroke: inherit;
}
/* hide tabler's default box */
.icon-tabler > path[stroke="none"][fill="none"] {
    visibility: collapse;
}

rect.low {
    fill: #355978;
}
rect.medium-low {
    fill: #636696;
}
rect.medium {
    fill: #9E6DA4;
}
rect.medium-high {
    fill: #D7749D;
}
rect.high {
    fill: #FF8585;
}

/* green styling for Naginata kana-shift */
rect.kshift {
    fill: #00CC00;
}
text.left {
    font-size: 18px;
    translate: 16px 7px;
}
text.right {
    fill: #00CC00;
    font-size: 16px;
    translate: -16px -10px;
}
</style>
<g transform="translate(30, 0)" class="layer-HD Promethium">
<text x="0" y="28" class="label" id="HD-Promethium">HD Promethium</text>
<g transform="translate(0, 74)">
<g transform="translate(47, 55) rotate(10.0)" class="key keypos-0">
<rect rx="6" ry="6" x="-26" y="-40" width="52" height="80" class="key"/>
<text x="0" y="0" class="key tap">⎋</text>
</g>
<g transform="translate(106, 39) rotate(10.0)" class="key medium-low keypos-1">
<rect rx="6" ry="6" x="-26" y="-26" width="52" height="52" class="key medium-low"/>
<text x="0" y="0" class="key medium-low tap">pP</text>
</g>
<g transform="translate(183, 35) rotate(18.0)" class="key medium keypos-2">
<rect rx="6" ry="6" x="-26" y="-26" width="52" height="52" class="key medium"/>
<text x="0" y="0" class="key medium tap">gG</text>
</g>
<g transform="translate(235, 83) rotate(22.0)" class="key medium keypos-3">
<rect rx="6" ry="6" x="-26" y="-26" width="52" height="52" class="key medium"/>
<text x="0" y="0" class="key medium tap">mM</text>
</g>
<g transform="translate(277, 132) rotate(22.0)" class="key low keypos-4">
<rect rx="6" ry="6" x="-26" y="-26" width="52" height="52" class="key low"/>
<text x="0" y="0" class="key low tap">kK</text>
</g>
<g transform="translate(570, 132) rotate(-22.0)" class="key medium-low keypos-5">
<rect rx="6" ry="6" x="-26" y="-26" width="52" height="52" class="key medium-low"/>
<text x="0" y="0" class="key medium-low tap">.:</text>
</g>
<g transform="translate(612, 83) rotate(-22.0)" class="key keypos-6">
<rect rx="6" ry="6" x="-26" y="-26" width="52" height="52" class="key"/>
<text x="0" y="0" class="key tap">⌫</text>
<text x="0" y="24" class="key hold">Sft+⌫</text>
</g>
<g transform="translate(664, 35) rotate(-18.0)" class="key medium-low keypos-7">
<rect rx="6" ry="6" x="-26" y="-26" width="52" height="52" class="key medium-low"/>
<text x="0" y="0" class="key medium-low tap">&#x27;&quot;</text>
</g>
<g transform="translate(740, 39) rotate(-10.0)" class="key medium-low keypos-8">
<rect rx="6" ry="6" x="-26" y="-26" width="52" height="52" class="key medium-low"/>
<text x="0" y="0" class="key medium-low tap">-_</text>
</g>
<g transform="translate(799, 55) rotate(-10.0)" class="key low keypos-9">
<rect rx="6" ry="6" x="-26" y="-40" width="52" height="80" class="key low"/>
<text x="0" y="0" class="key low tap">=+</text>
</g>
<g transform="translate(28, 129)" class="key high keypos-10">
<rect rx="6" ry="6" x="-26" y="-26" width="52" height="52" class="key high"/>
<text x="0" y="0" class="key high tap">sS</text>
</g>
<g transform="translate(97, 94) rotate(10.0)" class="key high keypos-11">
<rect rx="6" ry="6" x="-26" y="-26" width="52" height="52" class="key high"/>
<text x="0" y="0" class="key high tap">nN</text>
</g>
<g transform="translate(166, 88) rotate(18.0)" class="key high keypos-12">
<rect rx="6" ry="6" x="-26" y="-26" width="52" height="52" class="key high"/>
<text x="0" y="0" class="key high tap">tT</text>
</g>
<g transform="translate(215, 135) rotate(22.0)" class="key high keypos-13">
<rect rx="6" ry="6" x="-26" y="-26" width="52" height="52" class="key high"/>
<text x="0" y="0" class="key high tap">hH</text>
</g>
<g transform="translate(257, 183) rotate(22.0)" class="key low keypos-14">
<rect rx="6" ry="6" x="-26" y="-26" width="52" height="52" class="key low"/>
<text x="0" y="0" class="key low tap">jJ</text>
</g>
<g transform="translate(590, 183) rotate(-22.0)" class="key medium-low keypos-15">
<rect rx="6" ry="6" x="-26" y="-26" width="52" height="52" class="key medium-low"/>
<text x="0" y="0" class="key medium-low tap">,;</text>
</g>
<g transform="translate(632, 135) rotate(-22.0)" class="key high keypos-16">
<rect rx="6" ry="6" x="-26" y="-26" width="52" height="52" class="key high"/>
<text x="0" y="0" class="key high tap">aA</text>
</g>
<g transform="translate(681, 88) rotate(-18.0)" class="key high keypos-17">
<rect rx="6" ry="6" x="-26" y="-26" width="52" height="52" class="key high"/>
<text x="0" y="0" class="key high tap">eE</text>
</g>
<g transform="translate(750, 94) rotate(-10.0)" class="key high keypos-18">
<rect rx="6" ry="6" x="-26" y="-26" width="52" height="52" class="key high"/>
<text x="0" y="0" class="key high tap">iI</text>
</g>
<g transform="translate(819, 129)" class="key medium keypos-19">
<rect rx="6" ry="6" x="-26" y="-26" width="52" height="52" class="key medium"/>
<text x="0" y="0" class="key medium tap">cC</text>
</g>
<g transform="translate(28, 185)" class="key medium-low keypos-20">
<rect rx="6" ry="6" x="-26" y="-26" width="52" height="52" class="key medium-low"/>
<text x="0" y="0" class="key medium-low tap">bB</text>
</g>
<g transform="translate(88, 149) rotate(10.0)" class="key medium keypos-21">
<rect rx="6" ry="6" x="-26" y="-26" width="52" height="52" class="key medium"/>
<text x="0" y="0" class="key medium tap">fF</text>
</g>
<g transform="translate(150, 142) rotate(18.0)" class="key medium-high keypos-22">
<rect rx="6" ry="6" x="-26" y="-26" width="52" height="52" class="key medium-high"/>
<text x="0" y="0" class="key medium-high tap">dD</text>
</g>
<g transform="translate(195, 187) rotate(22.0)" class="key medium-high keypos-23">
<rect rx="6" ry="6" x="-26" y="-26" width="52" height="52" class="key medium-high"/>
<text x="0" y="0" class="key medium-high tap">lL</text>
</g>
<g transform="translate(257, 275)" class="key high keypos-24">
<rect rx="6" ry="6" x="-47" y="-26" width="94" height="52" class="key high"/>
<text x="0" y="0" class="key high tap">rR</text>
<text x="0" y="24" class="key high hold">⇧</text>
</g>
<g transform="translate(590, 275)" class="key high keypos-25">
<rect rx="6" ry="6" x="-47" y="-26" width="94" height="52" class="key high"/>
<text x="0" y="0" class="key high tap">⎵R</text>
<text x="0" y="24" class="key high hold">Num+Nav</text>
</g>
<g transform="translate(652, 187) rotate(-22.0)" class="key medium-high keypos-26">
<rect rx="6" ry="6" x="-26" y="-26" width="52" height="52" class="key medium-high"/>
<text x="0" y="0" class="key medium-high tap">uU</text>
</g>
<g transform="translate(697, 142) rotate(-18.0)" class="key high keypos-27">
<rect rx="6" ry="6" x="-26" y="-26" width="52" height="52" class="key high"/>
<text x="0" y="0" class="key high tap">oO</text>
</g>
<g transform="translate(759, 149) rotate(-10.0)" class="key medium keypos-28">
<rect rx="6" ry="6" x="-26" y="-26" width="52" height="52" class="key medium"/>
<text x="0" y="0" class="key medium tap">yY</text>
</g>
<g transform="translate(819, 185)" class="key medium keypos-29">
<rect rx="6" ry="6" x="-26" y="-26" width="52" height="52" class="key medium"/>
<text x="0" y="0" class="key medium tap">wW</text>
</g>
<g class="combo combopos-0">
<path d="M423,-5 h-370 a6.0,6.0 0 0 0 -6.0,6.0 v26" class="combo"/>
<path d="M423,-5 h370 a6.0,6.0 0 0 1 6.0,6.0 v26" class="combo"/>
<rect rx="6" ry="6" x="398" y="-18" width="50" height="26" class="combo"/>
<text x="423" y="-5" class="combo tap">
<tspan x="423" dy="-0.6em">Studio</tspan><tspan x="423" dy="1.2em">Unlock</tspan>
</text>
</g>
<g class="combo combopos-1">
<path d="M423,212 h-160 a6.0,6.0 0 0 1 -6.0,-6.0 v-4" class="combo"/>
<path d="M423,212 h160 a6.0,6.0 0 0 0 6.0,-6.0 v-4" class="combo"/>
<path d="M423,212 h-141 a6.0,6.0 0 0 1 -6.0,-6.0 v-56" class="combo"/>
<path d="M423,212 h141 a6.0,6.0 0 0 0 6.0,-6.0 v-56" class="combo"/>
<rect rx="6" ry="6" x="398" y="199" width="50" height="26" class="combo"/>
<text x="423" y="212" class="combo tap">
<tspan x="423" dy="-0.6em">Boot</tspan><tspan x="423" dy="1.2em">loader</tspan>
</text>
</g>
<g class="combo combopos-2">
<path d="M720,163 h-83 a6.0,6.0 0 0 1 -6.0,-6.0 v-3" class="combo"/>
<path d="M720,163 h24 a6.0,6.0 0 0 0 6.0,-6.0 v-45" class="combo"/>
<rect rx="6" ry="6" x="706" y="155" width="28" height="15" class="combo"/>
<text x="720" y="163" class="combo tap">かな</text>
</g>
<g class="combo combopos-3">
<path d="M127,163 h82 a6.0,6.0 0 0 0 6.0,-6.0 v-3" class="combo"/>
<path d="M127,163 h-23 a6.0,6.0 0 0 1 -6.0,-6.0 v-45" class="combo"/>
<rect rx="6" ry="6" x="113" y="155" width="28" height="15" class="combo"/>
<text x="127" y="163" class="combo tap">ABC</text>
</g>
<g class="combo combopos-4">
<path d="M168,215 h21 a6.0,6.0 0 0 0 6.0,-6.0 v-3" class="combo"/>
<path d="M168,215 h-13 a6.0,6.0 0 0 1 -6.0,-6.0 v-49" class="combo"/>
<path d="M168,215 h-74 a6.0,6.0 0 0 1 -6.0,-6.0 v-41" class="combo"/>
<rect rx="6" ry="6" x="154" y="207" width="28" height="15" class="combo"/>
<text x="168" y="215" class="combo tap">↹</text>
</g>
<g class="combo combopos-5">
<path d="M732,215 h-74 a6.0,6.0 0 0 1 -6.0,-6.0 v-3" class="combo"/>
<path d="M732,215 h-29 a6.0,6.0 0 0 1 -6.0,-6.0 v-49" class="combo"/>
<path d="M732,215 h21 a6.0,6.0 0 0 0 6.0,-6.0 v-41" class="combo"/>
<rect rx="6" ry="6" x="718" y="207" width="28" height="15" class="combo"/>
<text x="732" y="215" class="combo tap">⏎</text>
</g>
<g class="combo combopos-6">
<rect rx="6" ry="6" x="49" y="98" width="28" height="26" class="combo"/>
<text x="63" y="111" class="combo tap">⎇</text>
</g>
<g class="combo combopos-7">
<rect rx="6" ry="6" x="770" y="98" width="28" height="26" class="combo"/>
<text x="784" y="111" class="combo tap">⎇</text>
</g>
<g class="combo combopos-8">
<rect rx="6" ry="6" x="118" y="78" width="28" height="26" class="combo"/>
<text x="132" y="91" class="combo tap">⌃</text>
</g>
<g class="combo combopos-9">
<rect rx="6" ry="6" x="701" y="78" width="28" height="26" class="combo"/>
<text x="715" y="91" class="combo tap">⌃</text>
</g>
<g class="combo combopos-10">
<rect rx="6" ry="6" x="176" y="99" width="28" height="26" class="combo"/>
<text x="190" y="112" class="combo tap">⌘</text>
</g>
<g class="combo combopos-11">
<rect rx="6" ry="6" x="642" y="99" width="28" height="26" class="combo"/>
<text x="656" y="112" class="combo tap">⌘</text>
</g>
<g class="combo combopos-18">
<rect rx="6" ry="6" x="158" y="151" width="28" height="26" class="combo"/>
<text x="172" y="164" class="combo tap">⇧</text>
</g>
<g class="combo combopos-19">
<rect rx="6" ry="6" x="661" y="151" width="28" height="26" class="combo"/>
<text x="675" y="164" class="combo tap">⇧</text>
</g>
<g class="combo low combopos-20">
<rect rx="6" ry="6" x="195" y="46" width="28" height="26" class="combo low"/>
<text x="209" y="59" class="combo low tap">qQ</text>
</g>
<g class="combo low combopos-21">
<rect rx="6" ry="6" x="688" y="24" width="28" height="26" class="combo low"/>
<text x="702" y="37" class="combo low tap">zZ</text>
</g>
<g class="combo low combopos-22">
<rect rx="6" ry="6" x="130" y="24" width="28" height="26" class="combo low"/>
<text x="144" y="37" class="combo low tap">vV</text>
</g>
<g class="combo low combopos-23">
<rect rx="6" ry="6" x="105" y="132" width="28" height="26" class="combo low"/>
<text x="119" y="145" class="combo low tap">xX</text>
</g>
<g class="combo combopos-24">
<path d="M423,275 l-134,0" class="combo"/>
<path d="M423,275 l134,0" class="combo"/>
<rect rx="6" ry="6" x="409" y="262" width="28" height="26" class="combo"/>
<text x="423" y="275" class="combo tap">⇪</text>
</g>
<g class="combo combopos-25">
<rect rx="6" ry="6" x="24" y="79" width="28" height="26" class="combo"/>
<text x="38" y="92" class="combo tap">`</text>
</g>
<g class="combo combopos-26">
<rect rx="6" ry="6" x="88" y="53" width="28" height="26" class="combo"/>
<text x="102" y="66" class="combo tap">@</text>
</g>
<g class="combo combopos-27">
<rect rx="6" ry="6" x="160" y="49" width="28" height="26" class="combo"/>
<text x="174" y="62" class="combo tap">|</text>
</g>
<g class="combo combopos-28">
<rect rx="6" ry="6" x="211" y="96" width="28" height="26" class="combo"/>
<text x="225" y="109" class="combo tap">$</text>
</g>
<g class="combo combopos-29">
<rect rx="6" ry="6" x="242" y="95" width="28" height="26" class="combo"/>
<text x="256" y="108" class="combo tap">\</text>
</g>
<g class="combo combopos-30">
<path d="M306,157 v-20 a6.0,6.0 0 0 0 -6.0,-6.0 h-4" class="combo"/>
<path d="M306,157 v20 a6.0,6.0 0 0 1 -6.0,6.0 h-24" class="combo"/>
<rect rx="6" ry="6" x="292" y="144" width="28" height="26" class="combo"/>
<text x="306" y="157" class="combo tap">%</text>
</g>
<g class="combo combopos-31">
<rect rx="6" ry="6" x="577" y="95" width="28" height="26" class="combo"/>
<text x="591" y="108" class="combo tap">/</text>
</g>
<g class="combo combopos-32">
<path d="M541,157 v-20 a6.0,6.0 0 0 1 6.0,-6.0 h4" class="combo"/>
<path d="M541,157 v20 a6.0,6.0 0 0 0 6.0,6.0 h24" class="combo"/>
<rect rx="6" ry="6" x="527" y="144" width="28" height="26" class="combo"/>
<text x="541" y="157" class="combo tap">^</text>
</g>
<g class="combo combopos-33">
<rect rx="6" ry="6" x="608" y="96" width="28" height="26" class="combo"/>
<text x="622" y="109" class="combo tap">?</text>
</g>
<g class="combo combopos-34">
<rect rx="6" ry="6" x="659" y="49" width="28" height="26" class="combo"/>
<text x="673" y="62" class="combo tap">#</text>
</g>
<g class="combo combopos-35">
<rect rx="6" ry="6" x="731" y="53" width="28" height="26" class="combo"/>
<text x="745" y="66" class="combo tap">!</text>
</g>
<g class="combo combopos-36">
<rect rx="6" ry="6" x="795" y="79" width="28" height="26" class="combo"/>
<text x="809" y="92" class="combo tap">~</text>
</g>
<g class="combo combopos-37">
<rect rx="6" ry="6" x="232" y="120" width="28" height="26" class="combo"/>
<text x="246" y="133" class="combo tap">{</text>
</g>
<g class="combo combopos-38">
<rect rx="6" ry="6" x="587" y="120" width="28" height="26" class="combo"/>
<text x="601" y="133" class="combo tap">}</text>
</g>
<g class="combo combopos-39">
<rect rx="6" ry="6" x="222" y="146" width="28" height="26" class="combo"/>
<text x="236" y="159" class="combo tap">(&lt;</text>
</g>
<g class="combo combopos-40">
<rect rx="6" ry="6" x="597" y="146" width="28" height="26" class="combo"/>
<text x="611" y="159" class="combo tap">)&gt;</text>
</g>
<g class="combo combopos-41">
<rect rx="6" ry="6" x="212" y="172" width="28" height="26" class="combo"/>
<text x="226" y="185" class="combo tap">[{</text>
</g>
<g class="combo combopos-42">
<rect rx="6" ry="6" x="607" y="172" width="28" height="26" class="combo"/>
<text x="621" y="185" class="combo tap">]}</text>
</g>
</g>
</g>
<g transform="translate(30, 377)" class="layer-Naginata">
<text x="0" y="28" class="label" id="Naginata">Naginata</text>
<g transform="translate(0, 56)">
<g transform="translate(47, 55) rotate(10.0)" class="key keypos-0">
<rect rx="6" ry="6" x="-26" y="-40" width="52" height="80" class="key"/>
<text x="0" y="0" class="key tap">⎋</text>
<text x="0" y="38" class="key hold"><tspan style="font-size: 70%">Small-kana</tspan></text>
</g>
<g transform="translate(106, 39) rotate(10.0)" class="key keypos-1">
<rect rx="6" ry="6" x="-26" y="-26" width="52" height="52" class="key"/>
<text x="-24" y="0" class="key left">き</text>
<text x="24" y="0" class="key right">ね</text>
</g>
<g transform="translate(183, 35) rotate(18.0)" class="key keypos-2">
<rect rx="6" ry="6" x="-26" y="-26" width="52" height="52" class="key"/>
<text x="-24" y="0" class="key left">て</text>
<text x="24" y="0" class="key right">り</text>
</g>
<g transform="translate(235, 83) rotate(22.0)" class="key keypos-3">
<rect rx="6" ry="6" x="-26" y="-26" width="52" height="52" class="key"/>
<text x="-24" y="0" class="key left">し</text>
<text x="24" y="0" class="key right">め</text>
</g>
<g transform="translate(277, 132) rotate(22.0)" class="key keypos-4">
<rect rx="6" ry="6" x="-26" y="-26" width="52" height="52" class="key"/>
<text x="-24" y="0" class="key left">そ</text>
<text x="24" y="0" class="key right">ぬ</text>
</g>
<g transform="translate(570, 132) rotate(-22.0)" class="key keypos-5">
<rect rx="6" ry="6" x="-26" y="-26" width="52" height="52" class="key"/>
<text x="-24" y="0" class="key left">た</text>
<text x="24" y="0" class="key right">お</text>
</g>
<g transform="translate(612, 83) rotate(-22.0)" class="key keypos-6">
<rect rx="6" ry="6" x="-26" y="-26" width="52" height="52" class="key"/>
<text x="-24" y="0" class="key left">⌫</text>
<text x="24" y="0" class="key right">さ</text>
</g>
<g transform="translate(664, 35) rotate(-18.0)" class="key keypos-7">
<rect rx="6" ry="6" x="-26" y="-26" width="52" height="52" class="key"/>
<text x="-24" y="0" class="key left">る</text>
<text x="24" y="0" class="key right">よ</text>
</g>
<g transform="translate(740, 39) rotate(-10.0)" class="key keypos-8">
<rect rx="6" ry="6" x="-26" y="-26" width="52" height="52" class="key"/>
<text x="-24" y="0" class="key left">す</text>
<text x="24" y="0" class="key right">え</text>
</g>
<g transform="translate(799, 55) rotate(-10.0)" class="key keypos-9">
<rect rx="6" ry="6" x="-26" y="-40" width="52" height="80" class="key"/>
<text x="-24" y="0" class="key left">へ</text>
<text x="24" y="0" class="key right">ゆ</text>
</g>
<g transform="translate(28, 129)" class="key keypos-10">
<rect rx="6" ry="6" x="-26" y="-26" width="52" height="52" class="key"/>
<text x="-24" y="0" class="key left">ろ</text>
<text x="24" y="0" class="key right">せ</text>
</g>
<g transform="translate(97, 94) rotate(10.0)" class="key keypos-11">
<rect rx="6" ry="6" x="-26" y="-26" width="52" height="52" class="key"/>
<text x="-24" y="0" class="key left">け</text>
<text x="24" y="0" class="key right">み</text>
</g>
<g transform="translate(166, 88) rotate(18.0)" class="key keypos-12">
<rect rx="6" ry="6" x="-26" y="-26" width="52" height="52" class="key"/>
<text x="-24" y="0" class="key left">と</text>
<text x="24" y="0" class="key right">に</text>
</g>
<g transform="translate(215, 135) rotate(22.0)" class="key keypos-13">
<rect rx="6" ry="6" x="-26" y="-26" width="52" height="52" class="key"/>
<text x="0" y="24" class="key hold">濁音</text>
<text x="-24" y="0" class="key left">か</text>
<text x="24" y="0" class="key right">ま</text>
</g>
<g transform="translate(257, 183) rotate(22.0)" class="key keypos-14">
<rect rx="6" ry="6" x="-26" y="-26" width="52" height="52" class="key"/>
<text x="-24" y="0" class="key left">っ</text>
<text x="24" y="0" class="key right">ち</text>
</g>
<g transform="translate(590, 183) rotate(-22.0)" class="key keypos-15">
<rect rx="6" ry="6" x="-26" y="-26" width="52" height="52" class="key"/>
<text x="-24" y="0" class="key left">く</text>
<text x="24" y="0" class="key right">や</text>
</g>
<g transform="translate(632, 135) rotate(-22.0)" class="key keypos-16">
<rect rx="6" ry="6" x="-26" y="-26" width="52" height="52" class="key"/>
<text x="0" y="24" class="key hold">濁音</text>
<text x="-24" y="0" class="key left">あ</text>
<text x="24" y="0" class="key right">の</text>
</g>
<g transform="translate(681, 88) rotate(-18.0)" class="key keypos-17">
<rect rx="6" ry="6" x="-26" y="-26" width="52" height="52" class="key"/>
<text x="-24" y="0" class="key left">い</text>
<text x="24" y="0" class="key right">も</text>
</g>
<g transform="translate(750, 94) rotate(-10.0)" class="key keypos-18">
<rect rx="6" ry="6" x="-26" y="-26" width="52" height="52" class="key"/>
<text x="-24" y="0" class="key left">う</text>
<text x="24" y="0" class="key right">つ</text>
</g>
<g transform="translate(819, 129)" class="key keypos-19">
<rect rx="6" ry="6" x="-26" y="-26" width="52" height="52" class="key"/>
<text x="-24" y="0" class="key left">ー</text>
<text x="24" y="0" class="key right">ふ</text>
</g>
<g transform="translate(28, 185)" class="key keypos-20">
<rect rx="6" ry="6" x="-26" y="-26" width="52" height="52" class="key"/>
<text x="-24" y="0" class="key left">ほ</text>
</g>
<g transform="translate(88, 149) rotate(10.0)" class="key keypos-21">
<rect rx="6" ry="6" x="-26" y="-26" width="52" height="52" class="key"/>
<text x="-24" y="0" class="key left">ひ</text>
</g>
<g transform="translate(150, 142) rotate(18.0)" class="key keypos-22">
<rect rx="6" ry="6" x="-26" y="-26" width="52" height="52" class="key"/>
<text x="-24" y="0" class="key left">は</text>
<text x="24" y="0" class="key right">を</text>
</g>
<g transform="translate(195, 187) rotate(22.0)" class="key keypos-23">
<rect rx="6" ry="6" x="-26" y="-26" width="52" height="52" class="key"/>
<text x="0" y="24" class="key hold">半濁音</text>
<text x="-24" y="0" class="key left">こ</text>
<text x="24" y="0" class="key right">、</text>
</g>
<g transform="translate(257, 275)" class="key kshift keypos-24">
<rect rx="6" ry="6" x="-47" y="-26" width="94" height="52" class="key kshift"/>
<text x="0" y="0" class="key kshift tap">⇧+⎵</text>
<text x="0" y="24" class="key kshift hold"><tspan style="font-size: 70%">Kana-Shift</tspan></text>
</g>
<g transform="translate(590, 275)" class="key keypos-25">
<rect rx="6" ry="6" x="-47" y="-26" width="94" height="52" class="key"/>
<text x="0" y="0" class="key tap">⎵</text>
<text x="0" y="24" class="key hold">Num+Nav</text>
</g>
<g transform="translate(652, 187) rotate(-22.0)" class="key keypos-26">
<rect rx="6" ry="6" x="-26" y="-26" width="52" height="52" class="key"/>
<text x="0" y="24" class="key hold">半濁音</text>
<text x="-24" y="0" class="key left">な</text>
<text x="24" y="0" class="key right">。</text>
</g>
<g transform="translate(697, 142) rotate(-18.0)" class="key keypos-27">
<rect rx="6" ry="6" x="-26" y="-26" width="52" height="52" class="key"/>
<text x="-24" y="0" class="key left">ん</text>
<text x="24" y="0" class="key right">む</text>
</g>
<g transform="translate(759, 149) rotate(-10.0)" class="key keypos-28">
<rect rx="6" ry="6" x="-26" y="-26" width="52" height="52" class="key"/>
<text x="-24" y="0" class="key left">ら</text>
<text x="24" y="0" class="key right">わ</text>
</g>
<g transform="translate(819, 185)" class="key keypos-29">
<rect rx="6" ry="6" x="-26" y="-26" width="52" height="52" class="key"/>
<text x="-24" y="0" class="key left">れ</text>
</g>
<g class="combo combopos-0">
<path d="M720,163 h-83 a6.0,6.0 0 0 1 -6.0,-6.0 v-3" class="combo"/>
<path d="M720,163 h24 a6.0,6.0 0 0 0 6.0,-6.0 v-45" class="combo"/>
<rect rx="6" ry="6" x="706" y="155" width="28" height="15" class="combo"/>
<text x="720" y="163" class="combo tap">かな</text>
</g>
<g class="combo combopos-1">
<path d="M127,163 h82 a6.0,6.0 0 0 0 6.0,-6.0 v-3" class="combo"/>
<path d="M127,163 h-23 a6.0,6.0 0 0 1 -6.0,-6.0 v-45" class="combo"/>
<rect rx="6" ry="6" x="113" y="155" width="28" height="15" class="combo"/>
<text x="127" y="163" class="combo tap">ABC</text>
</g>
<g class="combo combopos-2">
<path d="M168,215 h21 a6.0,6.0 0 0 0 6.0,-6.0 v-3" class="combo"/>
<path d="M168,215 h-13 a6.0,6.0 0 0 1 -6.0,-6.0 v-49" class="combo"/>
<path d="M168,215 h-74 a6.0,6.0 0 0 1 -6.0,-6.0 v-41" class="combo"/>
<rect rx="6" ry="6" x="154" y="207" width="28" height="15" class="combo"/>
<text x="168" y="215" class="combo tap">↹</text>
</g>
<g class="combo combopos-3">
<path d="M732,215 h-74 a6.0,6.0 0 0 1 -6.0,-6.0 v-3" class="combo"/>
<path d="M732,215 h-29 a6.0,6.0 0 0 1 -6.0,-6.0 v-49" class="combo"/>
<path d="M732,215 h21 a6.0,6.0 0 0 0 6.0,-6.0 v-41" class="combo"/>
<rect rx="6" ry="6" x="718" y="207" width="28" height="15" class="combo"/>
<text x="732" y="215" class="combo tap">⏎</text>
</g>
<g class="combo combopos-4">
<path d="M423,275 l-134,0" class="combo"/>
<path d="M423,275 l134,0" class="combo"/>
<rect rx="6" ry="6" x="409" y="262" width="28" height="26" class="combo"/>
<text x="423" y="275" class="combo tap">⇪</text>
</g>
</g>
</g>
<g transform="translate(30, 736)" class="layer-Num + Nav">
<text x="0" y="28" class="label" id="Num--Nav">Num + Nav</text>
<g transform="translate(0, 56)">
<g transform="translate(47, 55) rotate(10.0)" class="key keypos-0">
<rect rx="6" ry="6" x="-26" y="-40" width="52" height="80" class="key"/>
<text x="0" y="0" class="key tap">/</text>
</g>
<g transform="translate(106, 39) rotate(10.0)" class="key keypos-1">
<rect rx="6" ry="6" x="-26" y="-26" width="52" height="52" class="key"/>
<text x="0" y="0" class="key tap">1</text>
</g>
<g transform="translate(183, 35) rotate(18.0)" class="key keypos-2">
<rect rx="6" ry="6" x="-26" y="-26" width="52" height="52" class="key"/>
<text x="0" y="0" class="key tap">2</text>
</g>
<g transform="translate(235, 83) rotate(22.0)" class="key keypos-3">
<rect rx="6" ry="6" x="-26" y="-26" width="52" height="52" class="key"/>
<text x="0" y="0" class="key tap">3</text>
</g>
<g transform="translate(277, 132) rotate(22.0)" class="key keypos-4">
<rect rx="6" ry="6" x="-26" y="-26" width="52" height="52" class="key"/>
<text x="0" y="0" class="key tap">+</text>
</g>
<g transform="translate(570, 132) rotate(-22.0)" class="key keypos-5">
<rect rx="6" ry="6" x="-26" y="-26" width="52" height="52" class="key"/>
<text x="0" y="0" class="key tap">⇞</text>
</g>
<g transform="translate(612, 83) rotate(-22.0)" class="key keypos-6">
<rect rx="6" ry="6" x="-26" y="-26" width="52" height="52" class="key"/>
<text x="0" y="0" class="key tap">⌫</text>
</g>
<g transform="translate(664, 35) rotate(-18.0)" class="key keypos-7">
<rect rx="6" ry="6" x="-26" y="-26" width="52" height="52" class="key"/>
<text x="0" y="0" class="key tap">↑</text>
</g>
<g transform="translate(740, 39) rotate(-10.0)" class="key keypos-8">
<rect rx="6" ry="6" x="-26" y="-26" width="52" height="52" class="key"/>
<text x="0" y="0" class="key tap">_</text>
</g>
<g transform="translate(799, 55) rotate(-10.0)" class="key keypos-9">
<rect rx="6" ry="6" x="-26" y="-40" width="52" height="80" class="key"/>
<text x="0" y="0" class="key tap">⏯</text>
</g>
<g transform="translate(28, 129)" class="key keypos-10">
<rect rx="6" ry="6" x="-26" y="-26" width="52" height="52" class="key"/>
<text x="0" y="0" class="key tap">*</text>
</g>
<g transform="translate(97, 94) rotate(10.0)" class="key keypos-11">
<rect rx="6" ry="6" x="-26" y="-26" width="52" height="52" class="key"/>
<text x="0" y="0" class="key tap">4</text>
</g>
<g transform="translate(166, 88) rotate(18.0)" class="key keypos-12">
<rect rx="6" ry="6" x="-26" y="-26" width="52" height="52" class="key"/>
<text x="0" y="0" class="key tap">5</text>
</g>
<g transform="translate(215, 135) rotate(22.0)" class="key keypos-13">
<rect rx="6" ry="6" x="-26" y="-26" width="52" height="52" class="key"/>
<text x="0" y="0" class="key tap">6</text>
</g>
<g transform="translate(257, 183) rotate(22.0)" class="key keypos-14">
<rect rx="6" ry="6" x="-26" y="-26" width="52" height="52" class="key"/>
<text x="0" y="0" class="key tap">-</text>
</g>
<g transform="translate(590, 183) rotate(-22.0)" class="key keypos-15">
<rect rx="6" ry="6" x="-26" y="-26" width="52" height="52" class="key"/>
<text x="0" y="0" class="key tap">⇟</text>
</g>
<g transform="translate(632, 135) rotate(-22.0)" class="key keypos-16">
<rect rx="6" ry="6" x="-26" y="-26" width="52" height="52" class="key"/>
<text x="0" y="0" class="key tap">←</text>
</g>
<g transform="translate(681, 88) rotate(-18.0)" class="key keypos-17">
<rect rx="6" ry="6" x="-26" y="-26" width="52" height="52" class="key"/>
<text x="0" y="0" class="key tap">↓</text>
</g>
<g transform="translate(750, 94) rotate(-10.0)" class="key keypos-18">
<rect rx="6" ry="6" x="-26" y="-26" width="52" height="52" class="key"/>
<text x="0" y="0" class="key tap">→</text>
</g>
<g transform="translate(819, 129)" class="key keypos-19">
<rect rx="6" ry="6" x="-26" y="-26" width="52" height="52" class="key"/>
<text x="0" y="0" class="key tap">
<tspan x="0" dy="-0.6em">VOL</tspan><tspan x="0" dy="1.2em">UP</tspan>
</text>
</g>
<g transform="translate(28, 185)" class="key keypos-20">
<rect rx="6" ry="6" x="-26" y="-26" width="52" height="52" class="key"/>
<text x="0" y="0" class="key tap">.</text>
</g>
<g transform="translate(88, 149) rotate(10.0)" class="key keypos-21">
<rect rx="6" ry="6" x="-26" y="-26" width="52" height="52" class="key"/>
<text x="0" y="0" class="key tap">7</text>
</g>
<g transform="translate(150, 142) rotate(18.0)" class="key keypos-22">
<rect rx="6" ry="6" x="-26" y="-26" width="52" height="52" class="key"/>
<text x="0" y="0" class="key tap">8</text>
</g>
<g transform="translate(195, 187) rotate(22.0)" class="key keypos-23">
<rect rx="6" ry="6" x="-26" y="-26" width="52" height="52" class="key"/>
<text x="0" y="0" class="key tap">9</text>
</g>
<g transform="translate(257, 275)" class="key keypos-24">
<rect rx="6" ry="6" x="-47" y="-26" width="94" height="52" class="key"/>
<text x="0" y="0" class="key tap">0</text>
<text x="0" y="24" class="key hold">⇧</text>
</g>
<g transform="translate(590, 275)" class="key trans keypos-25">
<rect rx="6" ry="6" x="-47" y="-26" width="94" height="52" class="key trans"/>
<text x="0" y="0" class="key trans tap">▽</text>
</g>
<g transform="translate(652, 187) rotate(-22.0)" class="key keypos-26">
<rect rx="6" ry="6" x="-26" y="-26" width="52" height="52" class="key"/>
<text x="0" y="0" class="key tap">↞</text>
</g>
<g transform="translate(697, 142) rotate(-18.0)" class="key keypos-27">
<rect rx="6" ry="6" x="-26" y="-26" width="52" height="52" class="key"/>
<text x="0" y="0" class="key tap">⏎</text>
</g>
<g transform="translate(759, 149) rotate(-10.0)" class="key keypos-28">
<rect rx="6" ry="6" x="-26" y="-26" width="52" height="52" class="key"/>
<text x="0" y="0" class="key tap">↠</text>
</g>
<g transform="translate(819, 185)" class="key keypos-29">
<rect rx="6" ry="6" x="-26" y="-26" width="52" height="52" class="key"/>
<text x="0" y="0" class="key tap">
<tspan x="0" dy="-0.6em">VOL</tspan><tspan x="0" dy="1.2em">DOWN</tspan>
</text>
</g>
<g class="combo combopos-0">
<path d="M168,215 h21 a6.0,6.0 0 0 0 6.0,-6.0 v-3" class="combo"/>
<path d="M168,215 h-13 a6.0,6.0 0 0 1 -6.0,-6.0 v-49" class="combo"/>
<path d="M168,215 h-74 a6.0,6.0 0 0 1 -6.0,-6.0 v-41" class="combo"/>
<rect rx="6" ry="6" x="154" y="207" width="28" height="15" class="combo"/>
<text x="168" y="215" class="combo tap">↹</text>
</g>
<g class="combo combopos-1">
<path d="M732,215 h-74 a6.0,6.0 0 0 1 -6.0,-6.0 v-3" class="combo"/>
<path d="M732,215 h-29 a6.0,6.0 0 0 1 -6.0,-6.0 v-49" class="combo"/>
<path d="M732,215 h21 a6.0,6.0 0 0 0 6.0,-6.0 v-41" class="combo"/>
<rect rx="6" ry="6" x="718" y="207" width="28" height="15" class="combo"/>
<text x="732" y="215" class="combo tap">⏎</text>
</g>
<g class="combo combopos-2">
<rect rx="6" ry="6" x="49" y="98" width="28" height="26" class="combo"/>
<text x="63" y="111" class="combo tap">⎇</text>
</g>
<g class="combo combopos-3">
<rect rx="6" ry="6" x="770" y="98" width="28" height="26" class="combo"/>
<text x="784" y="111" class="combo tap">⎇</text>
</g>
<g class="combo combopos-4">
<rect rx="6" ry="6" x="118" y="78" width="28" height="26" class="combo"/>
<text x="132" y="91" class="combo tap">⌃</text>
</g>
<g class="combo combopos-5">
<rect rx="6" ry="6" x="701" y="78" width="28" height="26" class="combo"/>
<text x="715" y="91" class="combo tap">⌃</text>
</g>
<g class="combo combopos-6">
<rect rx="6" ry="6" x="176" y="99" width="28" height="26" class="combo"/>
<text x="190" y="112" class="combo tap">⌘</text>
</g>
<g class="combo combopos-7">
<rect rx="6" ry="6" x="642" y="99" width="28" height="26" class="combo"/>
<text x="656" y="112" class="combo tap">⌘</text>
</g>
<g class="combo combopos-14">
<rect rx="6" ry="6" x="158" y="151" width="28" height="26" class="combo"/>
<text x="172" y="164" class="combo tap">⇧</text>
</g>
<g class="combo combopos-15">
<rect rx="6" ry="6" x="661" y="151" width="28" height="26" class="combo"/>
<text x="675" y="164" class="combo tap">⇧</text>
</g>
<g class="combo combopos-16">
<rect rx="6" ry="6" x="24" y="79" width="28" height="26" class="combo"/>
<text x="38" y="92" class="combo tap">`</text>
</g>
<g class="combo combopos-17">
<rect rx="6" ry="6" x="88" y="53" width="28" height="26" class="combo"/>
<text x="102" y="66" class="combo tap">@</text>
</g>
<g class="combo combopos-18">
<rect rx="6" ry="6" x="160" y="49" width="28" height="26" class="combo"/>
<text x="174" y="62" class="combo tap">|</text>
</g>
<g class="combo combopos-19">
<rect rx="6" ry="6" x="211" y="96" width="28" height="26" class="combo"/>
<text x="225" y="109" class="combo tap">$</text>
</g>
<g class="combo combopos-20">
<rect rx="6" ry="6" x="242" y="95" width="28" height="26" class="combo"/>
<text x="256" y="108" class="combo tap">\</text>
</g>
<g class="combo combopos-21">
<path d="M306,157 v-20 a6.0,6.0 0 0 0 -6.0,-6.0 h-4" class="combo"/>
<path d="M306,157 v20 a6.0,6.0 0 0 1 -6.0,6.0 h-24" class="combo"/>
<rect rx="6" ry="6" x="292" y="144" width="28" height="26" class="combo"/>
<text x="306" y="157" class="combo tap">%</text>
</g>
<g class="combo combopos-22">
<rect rx="6" ry="6" x="577" y="95" width="28" height="26" class="combo"/>
<text x="591" y="108" class="combo tap">/</text>
</g>
<g class="combo combopos-23">
<path d="M541,157 v-20 a6.0,6.0 0 0 1 6.0,-6.0 h4" class="combo"/>
<path d="M541,157 v20 a6.0,6.0 0 0 0 6.0,6.0 h24" class="combo"/>
<rect rx="6" ry="6" x="527" y="144" width="28" height="26" class="combo"/>
<text x="541" y="157" class="combo tap">^</text>
</g>
<g class="combo combopos-24">
<rect rx="6" ry="6" x="608" y="96" width="28" height="26" class="combo"/>
<text x="622" y="109" class="combo tap">?</text>
</g>
<g class="combo combopos-25">
<rect rx="6" ry="6" x="659" y="49" width="28" height="26" class="combo"/>
<text x="673" y="62" class="combo tap">#</text>
</g>
<g class="combo combopos-26">
<rect rx="6" ry="6" x="731" y="53" width="28" height="26" class="combo"/>
<text x="745" y="66" class="combo tap">!</text>
</g>
<g class="combo combopos-27">
<rect rx="6" ry="6" x="795" y="79" width="28" height="26" class="combo"/>
<text x="809" y="92" class="combo tap">~</text>
</g>
<g class="combo combopos-28">
<rect rx="6" ry="6" x="232" y="120" width="28" height="26" class="combo"/>
<text x="246" y="133" class="combo tap">{</text>
</g>
<g class="combo combopos-29">
<rect rx="6" ry="6" x="587" y="120" width="28" height="26" class="combo"/>
<text x="601" y="133" class="combo tap">}</text>
</g>
<g class="combo combopos-30">
<rect rx="6" ry="6" x="222" y="146" width="28" height="26" class="combo"/>
<text x="236" y="159" class="combo tap">(&lt;</text>
</g>
<g class="combo combopos-31">
<rect rx="6" ry="6" x="597" y="146" width="28" height="26" class="combo"/>
<text x="611" y="159" class="combo tap">)&gt;</text>
</g>
<g class="combo combopos-32">
<rect rx="6" ry="6" x="212" y="172" width="28" height="26" class="combo"/>
<text x="226" y="185" class="combo tap">[{</text>
</g>
<g class="combo combopos-33">
<rect rx="6" ry="6" x="607" y="172" width="28" height="26" class="combo"/>
<text x="621" y="185" class="combo tap">]}</text>
</g>
</g>
</g>
</svg>
